<?xml version="1.0" standalone="yes"?>

<svg version="1.1" viewBox="0.0 0.0 297.11811023622045 295.5459317585302" fill="none" stroke="none" stroke-linecap="square" stroke-miterlimit="10" xmlns="http://www.w3.org/2000/svg" xmlns:xlink="http://www.w3.org/1999/xlink"><clipPath id="p.0"><path d="m0 0l297.1181 0l0 295.54593l-297.1181 0l0 -295.54593z" clip-rule="nonzero"></path></clipPath><g clip-path="url(#p.0)"><path fill="#000000" fill-opacity="0.0" d="m0 0l297.1181 0l0 295.54593l-297.1181 0z" fill-rule="nonzero"></path><path fill="#69b72a" d="m9.173228 147.77296l0 0c0 -76.98067 62.405163 -139.38582 139.38582 -139.38582l0 0c36.967422 0 72.42076 14.68525 98.56067 40.825165c26.139923 26.139915 40.825165 61.593246 40.825165 98.56066l0 0c0 76.98067 -62.405167 139.38582 -139.38583 139.38582l0 0c-76.98066 0 -139.38582 -62.40515 -139.38582 -139.38582z" fill-rule="nonzero"></path><path stroke="#6aa84f" stroke-width="8.0" stroke-linejoin="round" stroke-linecap="butt" d="m9.173228 147.77296l0 0c0 -76.98067 62.405163 -139.38582 139.38582 -139.38582l0 0c36.967422 0 72.42076 14.68525 98.56067 40.825165c26.139923 26.139915 40.825165 61.593246 40.825165 98.56066l0 0c0 76.98067 -62.405167 139.38582 -139.38583 139.38582l0 0c-76.98066 0 -139.38582 -62.40515 -139.38582 -139.38582z" fill-rule="nonzero"></path><path fill="#ffffff" d="m87.11524 154.22572c0.10761261 -3.226593 3.0118103 -10.21785 0.645668 -19.359589c-2.3661423 -9.141724 -9.787399 -25.919067 -14.842514 -35.490807c-5.0551224 -9.571739 -21.403328 -15.70166 -15.4881935 -21.939636c5.9151382 -6.2379684 40.869205 -13.444878 50.979 -15.488186c10.109802 -2.0433083 9.679794 4.5188103 9.679794 3.228344c0 -1.2904625 -8.819336 -8.174538 -9.679794 -10.971127c-0.86045074 -2.796585 -1.8285141 -4.195099 4.517067 -5.808399c6.345581 -1.6132965 21.40332 -4.301834 33.556427 -3.8713913c12.153107 0.43044662 32.3714 3.8727036 39.362198 6.454071c6.990814 2.5813637 4.841217 6.345581 2.5826874 9.034119c-2.2585297 2.6885414 -18.822403 6.1290436 -16.133865 7.0971146c2.6885376 0.96806335 22.478134 -1.9339447 32.26509 -1.2887115c9.786972 0.6452255 20.75679 2.1487274 26.456696 5.160103c5.6999207 3.0113754 9.570862 8.391075 7.7427826 12.908134c-1.8280792 4.5170593 -14.087051 8.3867035 -18.711288 14.194229c-4.624237 5.807518 -7.313202 10.648727 -9.034119 20.650917c-1.7209015 10.002182 -1.0761108 32.801834 -1.291336 39.362198" fill-rule="nonzero"></path><path stroke="#ffffff" stroke-width="8.0" stroke-linejoin="round" stroke-linecap="butt" d="m87.11524 154.22572c0.10761261 -3.226593 3.0118103 -10.21785 0.645668 -19.359589c-2.3661423 -9.141724 -9.787399 -25.919067 -14.842514 -35.490807c-5.0551224 -9.571739 -21.403328 -15.70166 -15.4881935 -21.939636c5.9151382 -6.2379684 40.869205 -13.444878 50.979 -15.488186c10.109802 -2.0433083 9.679794 4.5188103 9.679794 3.228344c0 -1.2904625 -8.819336 -8.174538 -9.679794 -10.971127c-0.86045074 -2.796585 -1.8285141 -4.195099 4.517067 -5.808399c6.345581 -1.6132965 21.40332 -4.301834 33.556427 -3.8713913c12.153107 0.43044662 32.3714 3.8727036 39.362198 6.454071c6.990814 2.5813637 4.841217 6.345581 2.5826874 9.034119c-2.2585297 2.6885414 -18.822403 6.1290436 -16.133865 7.0971146c2.6885376 0.96806335 22.478134 -1.9339447 32.26509 -1.2887115c9.786972 0.6452255 20.75679 2.1487274 26.456696 5.160103c5.6999207 3.0113754 9.570862 8.391075 7.7427826 12.908134c-1.8280792 4.5170593 -14.087051 8.3867035 -18.711288 14.194229c-4.624237 5.807518 -7.313202 10.648727 -9.034119 20.650917c-1.7209015 10.002182 -1.0761108 32.801834 -1.291336 39.362198" fill-rule="nonzero"></path><path fill="#000000" fill-opacity="0.0" d="m78.97507 200.15224l0 0c0 -31.423706 30.768967 -56.897644 68.72441 -56.897644l0 0c37.955444 0 68.72441 25.473938 68.72441 56.897644l0 0c0 31.42369 -30.768967 56.89763 -68.72441 56.89763l0 0c-37.955444 0 -68.72441 -25.473938 -68.72441 -56.89763z" fill-rule="nonzero"></path><path stroke="#ffffff" stroke-width="8.0" stroke-linejoin="round" stroke-linecap="butt" d="m78.97507 200.15224l0 0c0 -31.423706 30.768967 -56.897644 68.72441 -56.897644l0 0c37.955444 0 68.72441 25.473938 68.72441 56.897644l0 0c0 31.42369 -30.768967 56.89763 -68.72441 56.89763l0 0c-37.955444 0 -68.72441 -25.473938 -68.72441 -56.89763z" fill-rule="nonzero"></path><path fill="#000000" fill-opacity="0.0" d="m131.64043 229.08136c4.6246643 0 20.757217 0.8604584 27.748032 0c6.990814 -0.8604431 11.830704 -4.3022766 14.196838 -5.1627197" fill-rule="nonzero"></path><path stroke="#ffffff" stroke-width="4.0" stroke-linejoin="round" stroke-linecap="butt" d="m131.64043 229.08136c4.6246643 0 20.757217 0.8604584 27.748032 0c6.990814 -0.8604431 11.830704 -4.3022766 14.196838 -5.1627197" fill-rule="nonzero"></path></g></svg>

