<?xml version="1.0" standalone="yes"?>

<svg version="1.1" viewBox="0.0 0.0 297.11811023622045 295.5459317585302" fill="none" stroke="none" stroke-linecap="square" stroke-miterlimit="10" xmlns="http://www.w3.org/2000/svg" xmlns:xlink="http://www.w3.org/1999/xlink"><clipPath id="p.0"><path d="m0 0l297.1181 0l0 295.54593l-297.1181 0l0 -295.54593z" clip-rule="nonzero"></path></clipPath><g clip-path="url(#p.0)"><path fill="#000000" fill-opacity="0.0" d="m0 0l297.1181 0l0 295.54593l-297.1181 0z" fill-rule="nonzero"></path><path fill="#69b72a" d="m9.173228 147.77296l0 0c0 -76.98067 62.405163 -139.38582 139.38582 -139.38582l0 0c36.967422 0 72.42076 14.68525 98.56067 40.825165c26.139923 26.139915 40.825165 61.593246 40.825165 98.56066l0 0c0 76.98067 -62.405167 139.38582 -139.38583 139.38582l0 0c-76.98066 0 -139.38582 -62.40515 -139.38582 -139.38582z" fill-rule="nonzero"></path><path stroke="#6aa84f" stroke-width="8.0" stroke-linejoin="round" stroke-linecap="butt" d="m9.173228 147.77296l0 0c0 -76.98067 62.405163 -139.38582 139.38582 -139.38582l0 0c36.967422 0 72.42076 14.68525 98.56067 40.825165c26.139923 26.139915 40.825165 61.593246 40.825165 98.56066l0 0c0 76.98067 -62.405167 139.38582 -139.38583 139.38582l0 0c-76.98066 0 -139.38582 -62.40515 -139.38582 -139.38582z" fill-rule="nonzero"></path><path fill="#ffffff" d="m200.14891 70.930984l0 0c33.47528 22.648941 48.26349 64.48274 36.459213 103.13797c-11.804291 38.655228 -47.44017 65.09085 -87.85751 65.17494c-40.417336 0.08409119 -76.162926 -26.202988 -88.12797 -64.80876c-11.965042 -38.605774 2.64896 -80.500755 36.029686 -103.2888l18.281548 26.77945l0 0c-21.624031 14.762093 -31.09098 41.901657 -23.340027 66.91048c7.7509537 25.00882 30.906944 42.037598 57.089302 41.983124c26.182343 -0.054473877 49.267273 -17.179474 56.914093 -42.22032c7.646805 -25.040863 -1.9329987 -52.1408 -23.61827 -66.81278z" fill-rule="nonzero"></path><path fill="#000000" fill-opacity="0.0" d="m148.35957 53.35958l0 110.83465" fill-rule="nonzero"></path><path stroke="#ffffff" stroke-width="24.0" stroke-linejoin="round" stroke-linecap="butt" d="m148.35957 53.35958l0 110.83465" fill-rule="nonzero"></path><path fill="#ffffff" d="m136.45145 53.800526l0 0c0 -6.5752335 5.3302765 -11.905514 11.905502 -11.905514l0 0c3.157547 0 6.1857605 1.2543297 8.418472 3.4870453c2.2327118 2.2327156 3.4870453 5.260929 3.4870453 8.418468l0 0c0 6.5752335 -5.3302765 11.905514 -11.905518 11.905514l0 0c-6.575226 0 -11.905502 -5.3302803 -11.905502 -11.905514z" fill-rule="nonzero"></path><path fill="#ffffff" d="m136.45145 163.79002l0 0c0 -6.575226 5.3302765 -11.905502 11.905502 -11.905502l0 0c3.157547 0 6.1857605 1.2543182 8.418472 3.48703c2.2327118 2.232727 3.4870453 5.2609406 3.4870453 8.418472l0 0c0 6.575241 -5.3302765 11.905518 -11.905518 11.905518l0 0c-6.575226 0 -11.905502 -5.3302765 -11.905502 -11.905518z" fill-rule="nonzero"></path></g></svg>

