<?xml version="1.0" standalone="yes"?>

<svg version="1.1" viewBox="0.0 0.0 297.11811023622045 295.5459317585302" fill="none" stroke="none" stroke-linecap="square" stroke-miterlimit="10" xmlns="http://www.w3.org/2000/svg" xmlns:xlink="http://www.w3.org/1999/xlink"><clipPath id="p.0"><path d="m0 0l297.1181 0l0 295.54593l-297.1181 0l0 -295.54593z" clip-rule="nonzero"></path></clipPath><g clip-path="url(#p.0)"><path fill="#000000" fill-opacity="0.0" d="m0 0l297.1181 0l0 295.54593l-297.1181 0z" fill-rule="nonzero"></path><path fill="#69b72a" d="m9.173228 147.77296l0 0c0 -76.98067 62.405163 -139.38582 139.38582 -139.38582l0 0c36.967422 0 72.42076 14.68525 98.56067 40.825165c26.139923 26.139915 40.825165 61.593246 40.825165 98.56066l0 0c0 76.98067 -62.405167 139.38582 -139.38583 139.38582l0 0c-76.98066 0 -139.38582 -62.40515 -139.38582 -139.38582z" fill-rule="nonzero"></path><path stroke="#6aa84f" stroke-width="8.0" stroke-linejoin="round" stroke-linecap="butt" d="m9.173228 147.77296l0 0c0 -76.98067 62.405163 -139.38582 139.38582 -139.38582l0 0c36.967422 0 72.42076 14.68525 98.56067 40.825165c26.139923 26.139915 40.825165 61.593246 40.825165 98.56066l0 0c0 76.98067 -62.405167 139.38582 -139.38583 139.38582l0 0c-76.98066 0 -139.38582 -62.40515 -139.38582 -139.38582z" fill-rule="nonzero"></path><path fill="#000000" fill-opacity="0.0" d="m56.593185 30.162813l58.866142 -6.4566917l28.566933 260.2205l-58.86615 6.4566956z" fill-rule="nonzero"></path><path fill="#ffffff" d="m98.050804 79.768394q1.6768799 0.24047852 3.136879 0.080345154q1.0716934 -0.11755371 1.9314346 -0.44763184l-0.08634186 1.3612823q-0.50231934 0.14940643 -1.4808273 0.25672913q-0.978508 0.10733032 -3.1423645 0.156044l-2.7229996 0.11004639q-2.0036087 0.21976471 -3.5261078 0.6697006q0.9534378 -3.342636 1.0050583 -7.167946l0.04712677 -1.7185059l-1.7706299 0.19421387l-6.637398 0.82232666q-3.228218 6.390068 -4.6807785 8.765732q-1.4525604 2.3756638 -2.5878754 3.6319351q-1.135315 1.2562714 -2.3975449 1.9291534q-1.2467041 0.6711807 -2.722229 0.8330231q-2.7025452 0.29642487 -2.963417 -2.079918q-0.08695984 -0.7921219 0.21911621 -1.2972488q0.29055023 -0.5034332 0.9584198 -0.5766907q0.27957153 -0.030662537 1.2647171 0.06562805q0.9885483 0.12734985 1.4700394 0.074539185q2.3608398 -0.25894928 3.6103668 -1.7635269q1.5864792 -1.8716354 3.2881088 -4.6990204q1.701622 -2.827385 4.4800034 -8.303581q5.193489 -10.252369 9.297379 -15.968269q-4.5635147 0.95638657 -5.7770767 1.3567123q-1.1997375 0.3830948 -1.9837036 0.8306122q-0.76844025 0.44581604 -1.2247238 1.0145798q-0.45799255 0.5532341 -0.68678284 1.3328285q-0.22879791 0.7795906 -0.14183807 1.5717087q0.07331848 0.66786194 0.51220703 1.5156898q0.42676544 0.88059235 0.46427917 1.22229q0.059677124 0.5436096 -0.45513916 1.0087662q-0.5148163 0.46514893 -1.2137451 0.5418091q-1.071701 0.11755371 -1.7318192 -0.45451355q-0.64458466 -0.573761 -0.76734924 -1.6920433q-0.35295105 -3.2150612 2.3006744 -5.6753044q2.6536255 -2.4602432 7.582901 -3.3781548l2.404213 -0.43661118q1.9933777 -0.31295395 3.3020172 -0.8494606q1.3224716 -0.55374146 2.2019043 -1.420414q-0.39543915 2.841301 -0.4781494 5.3810844l-0.36792755 13.401257l0.0699234 9.800804zm-4.1236496 -22.52845q-4.1228027 6.9754715 -8.126068 14.896675l2.6610641 -0.24472046q4.286789 -0.47019958 4.747635 -0.5679016q0.018180847 -8.568687 0.7173691 -14.084053z" fill-rule="nonzero"></path><path fill="#ffffff" d="m97.10054 114.78388q-0.25170898 1.1436386 -0.41514587 2.0889664q-0.14962006 0.92809296 -1.0103607 7.2628326q3.7121124 -0.4071579 5.299156 -2.7032623q1.5870438 -2.2960968 1.2835388 -5.0607376q-0.21995544 -2.0035858 -1.7525177 -3.0772629q-1.5170364 -1.075386 -4.2351074 -0.7772598q-4.271263 0.4684906 -7.9566193 2.837555q-3.6870728 2.3535385 -5.6034775 5.8017883q-1.9025803 3.4310226 -1.5189362 6.9256516q0.28474426 2.5937958 2.4594193 3.5027313q1.552063 0.6785736 2.0346985 1.0657501q0.4826355 0.38719177 0.54572296 0.9618683q0.08013916 0.72998047 -0.3880844 1.190033q-0.45269012 0.4583435 -1.1205597 0.5315857q-1.0716934 0.11755371 -2.2059174 -0.7640381q-1.1359329 -0.89712524 -1.8672943 -2.4044952q-0.73135376 -1.50737 -0.9444885 -3.448822q-0.36488342 -3.3237915 0.91093445 -6.450279q1.2913513 -3.1281967 3.6722183 -5.4956512q2.3808746 -2.367447 5.5353317 -3.845192q3.1699905 -1.4794388 7.052948 -1.9053421q4.4265823 -0.48552704 7.1304855 0.8054886q2.7177277 1.2737808 2.9956512 3.8054428q0.24893951 2.267624 -1.2566605 4.3032913q-1.5056 2.0356674 -4.842842 3.4234314q3.468155 0.091156006 5.2350388 1.4377899q1.7807007 1.3293991 2.0313416 3.612564q0.2728119 2.4850616 -1.0537872 4.862625q-1.3265915 2.3775635 -4.2796936 4.2576294q-2.9375687 1.8783569 -6.618622 2.2821045q-1.6774368 0.18399048 -4.2606506 0.27870178q-2.4280853 0.21917725 -3.282341 0.3128662q-2.3763733 0.26065063 -4.199272 0.83784485l0.1846466 -1.3249054q2.6095428 -0.4276886 3.461876 -1.6843567q0.85232544 -1.2566833 1.3244629 -4.6879883l1.968071 -13.859703q0.13578796 -0.91085815 0.0846405 -1.3768082q-0.035812378 -0.32617188 -0.35990143 -0.55783844q-0.3102646 -0.248909 -0.7762222 -0.19779968l-0.45742798 0.12876892l0.15169525 -1.1955414q3.7452545 -0.67801666 7.044052 -1.7000275zm-4.510353 23.491188q2.0149841 0.31341553 3.3817825 0.16349792q3.820839 -0.41908264 5.4188538 -3.1879425q1.6135559 -2.7705688 1.2810669 -5.7992554q-0.15856934 -1.4444427 -1.0147476 -2.5137177q-0.8406372 -1.0709763 -2.037735 -1.3797989q-1.1832733 -0.32605743 -4.180916 0.0027389526q-0.9755173 7.0075073 -1.3471069 8.7773285q-0.37329102 1.7542877 -0.70910645 2.561325q-0.32028198 0.8053589 -0.79209137 1.375824z" fill-rule="nonzero"></path><path fill="#ffffff" d="m109.678246 178.66838q-0.07505798 -1.9723206 -0.15177917 -2.6712494q-0.34613037 -3.1529388 -1.8108978 -4.6112976q-1.4664688 -1.4738922 -3.7962494 -1.2183533q-3.0597687 0.3356018 -5.7022095 3.47052q-2.6268997 3.1332245 -3.8649902 7.7488556q-1.2225647 4.613922 -0.7212753 9.180237q0.50299835 4.581848 2.6409607 7.1609955q2.1379623 2.5791473 5.259865 2.2367249q1.2114868 -0.13287354 2.143959 -0.65956116q0.94970703 -0.5128479 1.6908646 -1.2071686q0.74115753 -0.69433594 1.2701721 -1.4597015q0.5290146 -0.7653656 0.9284744 -1.4222107q0.41498566 -0.6585388 0.71235657 -1.0998383q0.29566193 -0.45684814 0.52864075 -0.48239136q0.32617188 -0.03578186 0.5381241 0.17675781q0.22749329 0.21081543 0.25136566 0.42826843q0.06819916 0.6212616 -1.0019531 2.1847687q-1.0546112 1.5617981 -2.4176025 2.7487335q-1.3474655 1.1852264 -3.0205307 1.9817657q-1.6730728 0.7965393 -3.366043 0.9822235q-3.0287094 0.33221436 -5.594719 -0.84817505q-2.550476 -1.1820984 -4.1828995 -3.7380981q-1.6185913 -2.5732422 -2.0022278 -6.067871q-0.55244446 -5.0322723 1.5042801 -10.209259q2.0567245 -5.1769867 5.897003 -8.569031q3.854103 -3.4092865 8.125366 -3.877777q2.4695587 -0.27087402 6.1438217 0.5521698l1.8992538 0.40470886q-0.927269 4.4400787 -0.6119919 8.743851l-1.2891388 0.1414032z" fill-rule="nonzero"></path><path fill="#ffffff" d="m104.327774 233.45335q-0.09036255 -0.82318115 -0.9446182 -0.7294769l-0.6472244 0.118133545l0.12385559 -1.019577q3.9265213 -0.74505615 7.3133926 -1.823883q-0.85341644 3.3945312 -1.1416473 6.0668945l-0.8232269 6.6764374q-0.9525757 7.9324036 -2.5596771 11.048065q1.6407013 0.19729614 3.3957977 0.0047912598q3.789772 -0.41567993 6.561981 -2.5116882q2.7860336 -2.1132355 4.0483932 -5.5054626q1.2623672 -3.3922424 0.82416534 -7.3838806q-0.36829376 -3.3548431 -1.978363 -5.850418q-1.5945358 -2.4972992 -4.17437 -3.6604462q-2.581543 -1.1786804 -5.703438 -0.83625793q-3.8984985 0.42759705 -7.2179184 2.6936493q-3.3194122 2.2660522 -5.173691 5.707489q-1.8559875 3.4259186 -1.4911041 6.749695q0.17391968 1.5842285 0.9696655 2.6758575q0.8112793 1.08992 2.6203842 1.8188934q0.8485794 0.28416443 0.91677856 0.9054413q0.059677124 0.5436096 -0.34129333 1.0434265q-0.38715363 0.48258972 -1.0394897 0.5541382q-1.8793564 0.20613098 -3.4920578 -1.5975342q-1.612709 -1.8036652 -1.8787003 -4.2266083q-0.4586563 -4.1780243 1.741478 -8.1918335q2.2139587 -4.0310516 6.362053 -6.6237793q4.146385 -2.6082458 9.302963 -3.1738434q4.3333893 -0.47531128 7.9019547 0.67370605q3.568573 1.1490173 5.704834 3.7126312q2.1517944 2.5619202 2.535431 6.056549q0.48082733 4.3799286 -1.4795074 8.430313q-1.9620438 4.034851 -5.868637 6.6796875q-3.9082947 2.629303 -8.84742 3.1710358q-1.7240372 0.18910217 -4.1208725 0.26338196q-2.3968277 0.07426453 -5.363411 0.3996582q-2.438507 0.2674713 -3.178917 0.39582825l0.38637543 -1.2055664q1.9208374 -0.25784302 2.4284592 -0.50213623q0.5059128 -0.25984192 0.82923126 -0.7511444q0.33714294 -0.5085449 0.59719086 -1.4330292q0.8528595 -2.9700775 1.0914841 -4.66243l0.7488251 -5.206436q1.1632004 -8.018372 1.0608902 -8.950272z" fill-rule="nonzero"></path><path fill="#000000" fill-opacity="0.0" d="m22.824575 -61.943657l216.063 -54.48819l68.15747 270.29922l-216.06299 54.48819z" fill-rule="nonzero"></path><path fill="#ffffff" d="m155.36708 195.35559l-10.332748 2.605774q-5.152008 -32.70169 -2.8758392 -42.718643q1.4863129 -7.0783234 11.561417 -13.389862q29.766983 -18.835114 38.17975 -33.84806q8.291946 -14.789116 4.628235 -29.318695q-2.9302063 -11.620628 -10.7777405 -16.860752q-7.847534 -5.24012 -16.892471 -2.9591064q-7.741974 1.9524231 -17.286636 13.818493q-4.0788727 4.9766235 -5.2062225 5.9377213q-1.884491 1.3454056 -4.308609 1.9567337q-4.045212 1.0201492 -7.782501 -1.211853q-3.7411041 -2.2471542 -4.757324 -6.277252q-1.7917404 -7.105713 4.8878174 -15.31646q6.6947174 -8.214565 19.133392 -11.351437q19.362534 -4.882969 36.52495 5.9845886q17.177582 10.863739 22.675064 32.665684q5.577713 22.12011 -5.494919 42.944275q-6.915344 13.410629 -30.748795 29.89534q-18.100006 12.637802 -20.37648 16.902054q-2.276474 4.2642365 -0.7503357 20.541458zm-3.7937622 20.35823q6.3026733 -1.589447 11.778564 2.1055756q5.4720764 3.6798706 7.302017 10.937088q2.6475067 10.499481 -0.84317017 17.744888q-3.4944916 7.2302704 -11.084976 9.144485q-6.302658 1.5894318 -11.709656 -1.7684479q-5.3918457 -3.3617096 -7.1453857 -10.315903q-2.5634613 -10.166168 1.5070496 -19.2659q2.9232483 -6.7478027 10.195557 -8.581787z" fill-rule="nonzero"></path><path fill="#000000" fill-opacity="0.0" d="m188.12895 87.29913l104.535446 20.661415l-29.952759 151.2756l-104.535446 -20.661423z" fill-rule="nonzero"></path><path fill="#ffffff" d="m201.89792 203.42787l-3.5561981 -0.70288086q9.775894 -28.457047 15.510834 -48.41124q0.29196167 -1.152771 0.87957764 -1.5462952q1.0896606 -0.67655945 3.7983856 -0.84198q4.4491577 -0.26739502 6.1046295 0.059814453q1.2875977 0.25448608 1.0326691 1.5419922q-0.1699524 0.8583374 -0.93966675 2.1715088q-1.2583771 2.172226 -9.353073 18.920532l-13.477158 28.808548zm-4.6948395 6.3349q2.3912506 0.47262573 3.6579437 2.602417q1.2667084 2.129776 0.7204437 4.8887177q-0.7890625 3.9851227 -3.1389618 5.8779144q-2.349884 1.8927765 -5.2316284 1.3231964q-2.3912354 -0.47262573 -3.6822205 -2.479782q-1.2909851 -2.0071716 -0.7689972 -4.6434937q0.76478577 -3.862503 3.6039429 -6.2956696q2.0803528 -1.8186493 4.8394775 -1.2733002z" fill-rule="nonzero"></path></g></svg>

