<?xml version="1.0" standalone="yes"?>

<svg version="1.1" viewBox="0.0 0.0 960.0 720.0" fill="none" stroke="none" stroke-linecap="square" stroke-miterlimit="10" xmlns="http://www.w3.org/2000/svg" xmlns:xlink="http://www.w3.org/1999/xlink"><clipPath id="p.0"><path d="m0 0l960.0 0l0 720.0l-960.0 0l0 -720.0z" clip-rule="nonzero"></path></clipPath><g clip-path="url(#p.0)"><path fill="#000000" fill-opacity="0.0" d="m0 0l960.0 0l0 720.0l-960.0 0z" fill-rule="nonzero"></path><path fill="#000000" fill-opacity="0.0" d="m21.430447 70.71391l371.43307 0l0 637.13385l-371.43307 0z" fill-rule="nonzero"></path><path stroke="#666666" stroke-width="8.0" stroke-linejoin="round" stroke-linecap="butt" stroke-dasharray="32.0,24.0" d="m21.430447 70.71391l371.43307 0l0 637.13385l-371.43307 0z" fill-rule="nonzero"></path><path fill="#000000" fill-opacity="0.0" d="m571.7139 70.71391l371.43304 0l0 637.13385l-371.43304 0z" fill-rule="nonzero"></path><path stroke="#666666" stroke-width="8.0" stroke-linejoin="round" stroke-linecap="butt" stroke-dasharray="32.0,24.0" d="m571.7139 70.71391l371.43304 0l0 637.13385l-371.43304 0z" fill-rule="nonzero"></path><path fill="#000000" fill-opacity="0.0" d="m124.9895 0l165.73227 0l0 87.874016l-165.73227 0z" fill-rule="nonzero"></path><path fill="#000000" d="m166.67204 42.439373l6.71875 2.140625q-1.546875 5.625 -5.140625 8.359375q-3.59375 2.734375 -9.125 2.734375q-6.84375 0 -11.25 -4.671875q-4.40625 -4.6875 -4.40625 -12.796875q0 -8.578125 4.421875 -13.328125q4.4375 -4.75 11.65625 -4.75q6.296875 0 10.234375 3.734375q2.34375 2.203125 3.515625 6.328125l-6.859375 1.640625q-0.609375 -2.671875 -2.546875 -4.21875q-1.9375 -1.546875 -4.703125 -1.546875q-3.8125 0 -6.203125 2.75q-2.375 2.734375 -2.375 8.875q0 6.515625 2.34375 9.28125q2.34375 2.765625 6.09375 2.765625q2.765625 0 4.75 -1.75q2.0 -1.765625 2.875 -5.546875zm12.6328125 12.640625l0 -34.359375l6.578125 0l0 34.359375l-6.578125 0zm13.3359375 -28.265625l0 -6.09375l6.578125 0l0 6.09375l-6.578125 0zm0 28.265625l0 -24.890625l6.578125 0l0 24.890625l-6.578125 0zm27.742188 -7.921875l6.5625 1.09375q-1.265625 3.609375 -4.0 5.5q-2.71875 1.890625 -6.828125 1.890625q-6.484375 0 -9.609375 -4.25q-2.453125 -3.390625 -2.453125 -8.578125q0 -6.1875 3.234375 -9.6875q3.234375 -3.5 8.171875 -3.5q5.5625 0 8.765625 3.671875q3.21875 3.65625 3.078125 11.234375l-16.5 0q0.0625 2.921875 1.578125 4.5625q1.53125 1.625 3.8125 1.625q1.546875 0 2.59375 -0.84375q1.0625 -0.84375 1.59375 -2.71875zm0.375 -6.65625q-0.0625 -2.859375 -1.46875 -4.34375q-1.40625 -1.5 -3.421875 -1.5q-2.15625 0 -3.5625 1.578125q-1.40625 1.5625 -1.390625 4.265625l9.84375 0zm34.554703 14.578125l-6.5937653 0l0 -12.703125q0 -4.03125 -0.421875 -5.21875q-0.421875 -1.1875 -1.375 -1.84375q-0.9375 -0.65625 -2.28125 -0.65625q-1.703125 0 -3.0625 0.9375q-1.359375 0.9375 -1.875 2.484375q-0.5 1.546875 -0.5 5.71875l0 11.28125l-6.578125 0l0 -24.890625l6.109375 0l0 3.65625q3.265625 -4.21875 8.203125 -4.21875q2.1875 0 3.984375 0.78125q1.8125 0.78125 2.7343903 2.0q0.921875 1.21875 1.28125 2.765625q0.375 1.546875 0.375 4.4375l0 15.46875zm18.085938 -24.890625l0 5.25l-4.5 0l0 10.03125q0 3.046875 0.125 3.546875q0.140625 0.5 0.59375 0.828125q0.453125 0.328125 1.109375 0.328125q0.921875 0 2.65625 -0.625l0.5625 5.109375q-2.296875 0.984375 -5.203125 0.984375q-1.78125 0 -3.21875 -0.59375q-1.421875 -0.609375 -2.09375 -1.546875q-0.671875 -0.953125 -0.921875 -2.578125q-0.21875 -1.140625 -0.21875 -4.640625l0 -10.84375l-3.015625 0l0 -5.25l3.015625 0l0 -4.953125l6.609375 -3.84375l0 8.796875l4.5 0z" fill-rule="nonzero"></path><path fill="#cccccc" d="m424.2861 211.43045l90.01572 0l0 -20.0l40.0 40.0l-40.0 40.0l0 -20.0l-90.01572 0z" fill-rule="nonzero"></path><path stroke="#000000" stroke-width="2.0" stroke-linejoin="round" stroke-linecap="butt" d="m424.2861 211.43045l90.01572 0l0 -20.0l40.0 40.0l-40.0 40.0l0 -20.0l-90.01572 0z" fill-rule="nonzero"></path><path fill="#000000" d="m434.67673 238.35045l0 -13.59375l5.78125 0q2.1875 0 3.171875 0.359375q0.984375 0.359375 1.578125 1.296875q0.59375 0.9375 0.59375 2.15625q0 1.53125 -0.90625 2.53125q-0.890625 0.984375 -2.6875 1.25q0.890625 0.515625 1.46875 1.140625q0.578125 0.625 1.5625 2.203125l1.671875 2.65625l-3.296875 0l-1.984375 -2.953125q-1.046875 -1.59375 -1.4375 -2.0q-0.390625 -0.421875 -0.828125 -0.5625q-0.4375 -0.15625 -1.390625 -0.15625l-0.546875 0l0 5.671875l-2.75 0zm2.75 -7.84375l2.03125 0q1.96875 0 2.453125 -0.171875q0.5 -0.171875 0.78125 -0.578125q0.28125 -0.40625 0.28125 -1.015625q0 -0.6875 -0.375 -1.109375q-0.359375 -0.421875 -1.03125 -0.53125q-0.328125 -0.046875 -2.0 -0.046875l-2.140625 0l0 3.453125zm16.394806 4.703125l2.609375 0.4375q-0.5 1.4375 -1.59375 2.1875q-1.078125 0.734375 -2.703125 0.734375q-2.5625 0 -3.796875 -1.671875q-0.96875 -1.34375 -0.96875 -3.40625q0 -2.4375 1.265625 -3.828125q1.28125 -1.390625 3.25 -1.390625q2.1875 0 3.453125 1.453125q1.28125 1.453125 1.234375 4.453125l-6.53125 0q0.015625 1.15625 0.625 1.8125q0.609375 0.640625 1.5 0.640625q0.609375 0 1.03125 -0.328125q0.421875 -0.34375 0.625 -1.09375zm0.15625 -2.625q-0.03125 -1.140625 -0.59375 -1.71875q-0.546875 -0.59375 -1.34375 -0.59375q-0.859375 0 -1.40625 0.625q-0.5625 0.609375 -0.546875 1.6875l3.890625 0zm10.953857 9.515625l0 -4.953125q-0.5 0.65625 -1.265625 1.046875q-0.765625 0.375 -1.640625 0.375q-1.6875 0 -2.765625 -1.265625q-1.28125 -1.46875 -1.28125 -3.984375q0 -2.375 1.203125 -3.703125q1.203125 -1.34375 2.984375 -1.34375q0.984375 0 1.703125 0.421875q0.71875 0.421875 1.265625 1.265625l0 -1.46875l2.40625 0l0 13.609375l-2.609375 0zm0.09375 -8.796875q0 -1.515625 -0.625 -2.25q-0.609375 -0.734375 -1.546875 -0.734375q-0.9375 0 -1.578125 0.75q-0.640625 0.75 -0.640625 2.375q0 1.625 0.609375 2.34375q0.625 0.71875 1.515625 0.71875q0.90625 0 1.578125 -0.796875q0.6875 -0.8125 0.6875 -2.40625zm11.349091 5.046875l0 -1.46875q-0.53125 0.78125 -1.40625 1.234375q-0.875 0.453125 -1.859375 0.453125q-0.984375 0 -1.78125 -0.4375q-0.78125 -0.4375 -1.140625 -1.21875q-0.34375 -0.796875 -0.34375 -2.1875l0 -6.234375l2.609375 0l0 4.53125q0 2.078125 0.140625 2.546875q0.140625 0.46875 0.515625 0.75q0.390625 0.265625 0.96875 0.265625q0.671875 0 1.203125 -0.359375q0.53125 -0.375 0.71875 -0.90625q0.1875 -0.546875 0.1875 -2.671875l0 -4.15625l2.609375 0l0 9.859375l-2.421875 0zm10.614746 -3.140625l2.609375 0.4375q-0.5 1.4375 -1.59375 2.1875q-1.078125 0.734375 -2.703125 0.734375q-2.5625 0 -3.796875 -1.671875q-0.96875 -1.34375 -0.96875 -3.40625q0 -2.4375 1.265625 -3.828125q1.28125 -1.390625 3.25 -1.390625q2.1875 0 3.453125 1.453125q1.28125 1.453125 1.234375 4.453125l-6.53125 0q0.015625 1.15625 0.625 1.8125q0.609375 0.640625 1.5 0.640625q0.609375 0 1.03125 -0.328125q0.421875 -0.34375 0.625 -1.09375zm0.15625 -2.625q-0.03125 -1.140625 -0.59375 -1.71875q-0.546875 -0.59375 -1.34375 -0.59375q-0.859375 0 -1.40625 0.625q-0.5625 0.609375 -0.546875 1.6875l3.890625 0zm3.610077 2.953125l2.609375 -0.390625q0.171875 0.75 0.671875 1.15625q0.515625 0.390625 1.4375 0.390625q1.0 0 1.515625 -0.375q0.34375 -0.265625 0.34375 -0.703125q0 -0.296875 -0.1875 -0.484375q-0.1875 -0.1875 -0.875 -0.34375q-3.140625 -0.703125 -4.0 -1.265625q-1.15625 -0.796875 -1.15625 -2.21875q0 -1.28125 1.0 -2.15625q1.015625 -0.875 3.140625 -0.875q2.03125 0 3.0 0.65625q0.984375 0.65625 1.359375 1.953125l-2.453125 0.453125q-0.15625 -0.578125 -0.609375 -0.875q-0.4375 -0.3125 -1.25 -0.3125q-1.03125 0 -1.46875 0.296875q-0.296875 0.203125 -0.296875 0.515625q0 0.28125 0.25 0.484375q0.359375 0.25 2.4375 0.734375q2.078125 0.46875 2.90625 1.15625q0.828125 0.6875 0.828125 1.9375q0 1.359375 -1.140625 2.328125q-1.125 0.96875 -3.34375 0.96875q-2.015625 0 -3.1875 -0.8125q-1.171875 -0.8125 -1.53125 -2.21875zm15.797607 -7.046875l0 2.078125l-1.78125 0l0 3.984375q0 1.203125 0.046875 1.40625q0.0625 0.1875 0.234375 0.328125q0.1875 0.125 0.453125 0.125q0.359375 0 1.046875 -0.25l0.21875 2.015625q-0.90625 0.390625 -2.0625 0.390625q-0.703125 0 -1.265625 -0.234375q-0.5625 -0.234375 -0.828125 -0.609375q-0.265625 -0.375 -0.375 -1.015625q-0.078125 -0.453125 -0.078125 -1.84375l0 -4.296875l-1.203125 0l0 -2.078125l1.203125 0l0 -1.953125l2.609375 -1.515625l0 3.46875l1.78125 0z" fill-rule="nonzero"></path><path fill="#000000" fill-opacity="0.0" d="m440.79266 365.2966l82.99213 0l0 47.968506l-82.99213 0z" fill-rule="nonzero"></path><path fill="#000000" d="m451.5583 397.33658l0 -17.1875l3.46875 0l0 6.765625l6.796875 0l0 -6.765625l3.46875 0l0 17.1875l-3.46875 0l0 -7.515625l-6.796875 0l0 7.515625l-3.46875 0zm21.175781 0l0 -14.28125l-5.09375 0l0 -2.90625l13.65625 0l0 2.90625l-5.09375 0l0 14.28125l-3.46875 0zm14.660156 0l0 -14.28125l-5.09375 0l0 -2.90625l13.65625 0l0 2.90625l-5.09375 0l0 14.28125l-3.46875 0zm10.800781 0l0 -17.1875l5.5625 0q3.171875 0 4.125 0.265625q1.484375 0.390625 2.46875 1.6875q1.0 1.28125 1.0 3.34375q0 1.578125 -0.578125 2.65625q-0.5625 1.078125 -1.453125 1.703125q-0.890625 0.609375 -1.796875 0.796875q-1.25 0.25 -3.59375 0.25l-2.265625 0l0 6.484375l-3.46875 0zm3.46875 -14.28125l0 4.875l1.890625 0q2.0625 0 2.75 -0.265625q0.6875 -0.265625 1.078125 -0.84375q0.390625 -0.578125 0.390625 -1.328125q0 -0.9375 -0.546875 -1.546875q-0.546875 -0.609375 -1.390625 -0.765625q-0.625 -0.125 -2.5 -0.125l-1.671875 0z" fill-rule="nonzero"></path><path fill="#000000" fill-opacity="0.0" d="m626.35956 0l275.71655 0l0 87.874016l-275.71655 0z" fill-rule="nonzero"></path><path fill="#000000" d="m647.2022 55.079998l-8.203125 -34.359375l7.09375 0l5.1875 23.59375l6.28125 -23.59375l8.25 0l6.015625 24.0l5.28125 -24.0l6.984375 0l-8.34375 34.359375l-7.359375 0l-6.84375 -25.6875l-6.828125 25.6875l-7.515625 0zm54.789062 -7.921875l6.5625 1.09375q-1.265625 3.609375 -4.0 5.5q-2.71875 1.890625 -6.828125 1.890625q-6.484375 0 -9.609375 -4.25q-2.453125 -3.390625 -2.453125 -8.578125q0 -6.1875 3.234375 -9.6875q3.234375 -3.5 8.171875 -3.5q5.5625 0 8.765625 3.671875q3.21875 3.65625 3.078125 11.234375l-16.5 0q0.0625 2.921875 1.578125 4.5625q1.53125 1.625 3.8125 1.625q1.546875 0 2.59375 -0.84375q1.0625 -0.84375 1.59375 -2.71875zm0.375 -6.65625q-0.0625 -2.859375 -1.46875 -4.34375q-1.40625 -1.5 -3.421875 -1.5q-2.15625 0 -3.5625 1.578125q-1.40625 1.5625 -1.390625 4.265625l9.84375 0zm11.6328125 14.578125l0 -34.359375l6.578125 0l0 12.375q3.046875 -3.46875 7.21875 -3.46875q4.546875 0 7.515625 3.296875q2.984375 3.28125 2.984375 9.453125q0 6.375 -3.03125 9.828125q-3.03125 3.4375 -7.375 3.4375q-2.125 0 -4.203125 -1.0625q-2.078125 -1.078125 -3.578125 -3.15625l0 3.65625l-6.109375 0zm6.53125 -12.984375q0 3.859375 1.21875 5.71875q1.71875 2.625 4.546875 2.625q2.1875 0 3.71875 -1.859375q1.53125 -1.875 1.53125 -5.875q0 -4.265625 -1.546875 -6.15625q-1.546875 -1.890625 -3.953125 -1.890625q-2.375 0 -3.953125 1.84375q-1.5625 1.84375 -1.5625 5.59375zm21.351562 1.796875l6.75 -0.65625q0.609375 3.40625 2.46875 5.0q1.875 1.59375 5.03125 1.59375q3.359375 0 5.046875 -1.421875q1.703125 -1.421875 1.703125 -3.3125q0 -1.21875 -0.71875 -2.078125q-0.703125 -0.859375 -2.484375 -1.484375q-1.21875 -0.421875 -5.5625 -1.5q-5.578125 -1.390625 -7.828125 -3.40625q-3.15625 -2.828125 -3.15625 -6.90625q0 -2.625 1.484375 -4.90625q1.484375 -2.296875 4.28125 -3.484375q2.8125 -1.203125 6.765625 -1.203125q6.46875 0 9.734375 2.84375q3.28125 2.828125 3.4375 7.5625l-6.9375 0.3125q-0.4375 -2.65625 -1.90625 -3.8125q-1.46875 -1.15625 -4.390625 -1.15625q-3.03125 0 -4.734375 1.234375q-1.109375 0.796875 -1.109375 2.140625q0 1.21875 1.03125 2.078125q1.3125 1.109375 6.375 2.3125q5.0625 1.1875 7.484375 2.46875q2.4375 1.265625 3.796875 3.484375q1.375 2.21875 1.375 5.46875q0 2.953125 -1.640625 5.53125q-1.640625 2.578125 -4.640625 3.84375q-3.0 1.25 -7.46875 1.25q-6.515625 0 -10.015625 -3.015625q-3.484375 -3.015625 -4.171875 -8.78125zm48.140625 3.265625l6.5625 1.09375q-1.265625 3.609375 -4.0 5.5q-2.71875 1.890625 -6.828125 1.890625q-6.484375 0 -9.609375 -4.25q-2.453125 -3.390625 -2.453125 -8.578125q0 -6.1875 3.234375 -9.6875q3.234375 -3.5 8.171875 -3.5q5.5625 0 8.765625 3.671875q3.21875 3.65625 3.078125 11.234375l-16.5 0q0.0625 2.921875 1.578125 4.5625q1.53125 1.625 3.8125 1.625q1.546875 0 2.59375 -0.84375q1.0625 -0.84375 1.59375 -2.71875zm0.375 -6.65625q-0.0625 -2.859375 -1.46875 -4.34375q-1.40625 -1.5 -3.421875 -1.5q-2.15625 0 -3.5625 1.578125q-1.40625 1.5625 -1.390625 4.265625l9.84375 0zm18.210938 14.578125l-6.578125 0l0 -24.890625l6.109375 0l0 3.53125q1.578125 -2.5 2.828125 -3.296875q1.25 -0.796875 2.84375 -0.796875q2.25 0 4.34375 1.234375l-2.046875 5.75q-1.65625 -1.078125 -3.09375 -1.078125q-1.375 0 -2.34375 0.765625q-0.953125 0.75 -1.515625 2.75q-0.546875 1.984375 -0.546875 8.34375l0 7.6875zm19.226562 0l-10.03125 -24.890625l6.90625 0l4.6875 12.703125l1.359375 4.234375q0.546875 -1.609375 0.6875 -2.125q0.328125 -1.0625 0.703125 -2.109375l4.734375 -12.703125l6.765625 0l-9.890625 24.890625l-5.921875 0zm34.257812 -7.921875l6.5625 1.09375q-1.265625 3.609375 -4.0 5.5q-2.71875 1.890625 -6.828125 1.890625q-6.484375 0 -9.609375 -4.25q-2.453125 -3.390625 -2.453125 -8.578125q0 -6.1875 3.234375 -9.6875q3.234375 -3.5 8.171875 -3.5q5.5625 0 8.765625 3.671875q3.21875 3.65625 3.078125 11.234375l-16.5 0q0.0625 2.921875 1.578125 4.5625q1.53125 1.625 3.8125 1.625q1.546875 0 2.59375 -0.84375q1.0625 -0.84375 1.59375 -2.71875zm0.375 -6.65625q-0.0625 -2.859375 -1.46875 -4.34375q-1.40625 -1.5 -3.421875 -1.5q-2.15625 0 -3.5625 1.578125q-1.40625 1.5625 -1.390625 4.265625l9.84375 0zm18.210938 14.578125l-6.578125 0l0 -24.890625l6.109375 0l0 3.53125q1.578125 -2.5 2.828125 -3.296875q1.25 -0.796875 2.84375 -0.796875q2.25 0 4.34375 1.234375l-2.046875 5.75q-1.65625 -1.078125 -3.09375 -1.078125q-1.375 0 -2.34375 0.765625q-0.953125 0.75 -1.515625 2.75q-0.546875 1.984375 -0.546875 8.34375l0 7.6875z" fill-rule="nonzero"></path><path fill="#f3f3f3" d="m53.00525 215.4411l0 0c0 -4.4154663 3.579445 -7.9949036 7.994911 -7.9949036l293.71097 0c2.1203918 0 4.1539307 0.8423157 5.6532593 2.3416443c1.4993286 1.4993439 2.3416443 3.5328827 2.3416443 5.6532593l0 31.978683c0 4.4154663 -3.5794373 7.994919 -7.9949036 7.994919l-293.71097 0c-4.4154663 0 -7.994911 -3.5794525 -7.994911 -7.994919z" fill-rule="nonzero"></path><path stroke="#666666" stroke-width="2.0" stroke-linejoin="round" stroke-linecap="butt" d="m53.00525 215.4411l0 0c0 -4.4154663 3.579445 -7.9949036 7.994911 -7.9949036l293.71097 0c2.1203918 0 4.1539307 0.8423157 5.6532593 2.3416443c1.4993286 1.4993439 2.3416443 3.5328827 2.3416443 5.6532593l0 31.978683c0 4.4154663 -3.5794373 7.994919 -7.9949036 7.994919l-293.71097 0c-4.4154663 0 -7.994911 -3.5794525 -7.994911 -7.994919z" fill-rule="nonzero"></path><path fill="#000000" d="m68.08125 226.3192l0 4.046875q0.59375 -0.34375 1.203125 -0.515625q0.609375 -0.171875 1.234375 -0.171875q0.984375 0 1.75 0.34375q0.765625 0.328125 1.265625 1.046875q0.515625 0.71875 0.515625 1.8125l0 3.5625q0.71875 0 0.953125 0.140625q0.4375 0.296875 0.4375 0.8125q0 0.421875 -0.296875 0.6875q-0.28125 0.265625 -0.96875 0.265625l-2.171875 0q-0.671875 0 -0.96875 -0.265625q-0.28125 -0.265625 -0.28125 -0.6875q0 -0.515625 0.4375 -0.8125q0.234375 -0.140625 0.953125 -0.140625l0 -3.4375q0 -0.734375 -0.34375 -1.03125q-0.4375 -0.390625 -1.28125 -0.390625q-0.640625 0 -1.125 0.25q-0.484375 0.234375 -1.3125 1.046875l0 3.5625q0.734375 0 0.953125 0.140625q0.453125 0.296875 0.453125 0.8125q0 0.421875 -0.296875 0.6875q-0.28125 0.265625 -0.96875 0.265625l-2.171875 0q-0.6875 0 -0.984375 -0.265625q-0.28125 -0.265625 -0.28125 -0.6875q0 -0.515625 0.453125 -0.8125q0.21875 -0.140625 0.953125 -0.140625l0 -8.21875l-0.328125 0q-0.6875 0 -0.984375 -0.265625q-0.296875 -0.265625 -0.296875 -0.703125q0 -0.40625 0.296875 -0.671875q0.296875 -0.265625 0.984375 -0.265625l2.21875 0zm12.695572 5.515625l0 3.8125q0 0.609375 0.25 0.796875q0.390625 0.3125 1.390625 0.3125q1.453125 0 2.6875 -0.625q0.46875 -0.234375 0.75 -0.234375q0.359375 0 0.625 0.28125q0.28125 0.265625 0.28125 0.671875q0 0.375 -0.296875 0.640625q-0.453125 0.4375 -1.796875 0.8125q-1.328125 0.359375 -2.25 0.359375q-1.765625 0 -2.65625 -0.765625q-0.890625 -0.765625 -0.890625 -1.890625l0 -4.171875l-0.6875 0q-0.6875 0 -0.984375 -0.265625q-0.28125 -0.265625 -0.28125 -0.703125q0 -0.40625 0.28125 -0.671875q0.296875 -0.265625 0.984375 -0.265625l0.6875 0l0 -1.71875q0 -0.6875 0.265625 -0.96875q0.265625 -0.296875 0.6875 -0.296875q0.421875 0 0.6875 0.296875q0.265625 0.28125 0.265625 0.96875l0 1.71875l3.515625 0q0.6875 0 0.96875 0.265625q0.296875 0.265625 0.296875 0.6875q0 0.421875 -0.296875 0.6875q-0.28125 0.265625 -0.96875 0.265625l-3.515625 0zm11.195572 0l0 3.8125q0 0.609375 0.25 0.796875q0.390625 0.3125 1.390625 0.3125q1.453125 0 2.6875 -0.625q0.46875 -0.234375 0.75 -0.234375q0.359375 0 0.625 0.28125q0.28125 0.265625 0.28125 0.671875q0 0.375 -0.296875 0.640625q-0.453125 0.4375 -1.796875 0.8125q-1.328125 0.359375 -2.25 0.359375q-1.765625 0 -2.65625 -0.765625q-0.890625 -0.765625 -0.890625 -1.890625l0 -4.171875l-0.6875 0q-0.6875 0 -0.984375 -0.265625q-0.28125 -0.265625 -0.28125 -0.703125q0 -0.40625 0.28125 -0.671875q0.296875 -0.265625 0.984375 -0.265625l0.6875 0l0 -1.71875q0 -0.6875 0.265625 -0.96875q0.265625 -0.296875 0.6875 -0.296875q0.421875 0 0.6875 0.296875q0.265625 0.28125 0.265625 0.96875l0 1.71875l3.515625 0q0.6875 0 0.96875 0.265625q0.296875 0.265625 0.296875 0.6875q0 0.421875 -0.296875 0.6875q-0.28125 0.265625 -0.96875 0.265625l-3.515625 0zm9.304947 5.46875l0 3.109375l1.140625 0q0.6875 0 0.96875 0.265625q0.296875 0.265625 0.296875 0.703125q0 0.40625 -0.296875 0.671875q-0.28125 0.265625 -0.96875 0.265625l-3.375 0q-0.6875 0 -0.984375 -0.265625q-0.28125 -0.265625 -0.28125 -0.671875q0 -0.4375 0.296875 -0.703125q0.296875 -0.265625 0.96875 -0.265625l0.328125 0l0 -8.578125l-0.328125 0q-0.6875 0 -0.984375 -0.265625q-0.28125 -0.265625 -0.28125 -0.703125q0 -0.40625 0.28125 -0.671875q0.296875 -0.265625 0.984375 -0.265625l2.234375 0l0 0.640625q0.671875 -0.453125 1.375 -0.671875q0.71875 -0.21875 1.46875 -0.21875q1.953125 0 3.3125 1.328125q1.375 1.3125 1.375 3.015625q0 1.890625 -1.609375 3.109375q-1.359375 1.03125 -3.0625 1.03125q-0.734375 0 -1.453125 -0.21875q-0.703125 -0.21875 -1.40625 -0.640625zm5.640625 -3.265625q0 -0.40625 -0.328125 -1.015625q-0.3125 -0.625 -0.96875 -1.03125q-0.640625 -0.40625 -1.53125 -0.40625q-1.421875 0 -2.25 1.0625q-0.5625 0.734375 -0.5625 1.40625q0 0.765625 0.8125 1.484375q0.8125 0.71875 2.0 0.71875q1.203125 0 2.015625 -0.71875q0.8125 -0.71875 0.8125 -1.5zm9.351822 -2.84375q0 0.546875 -0.390625 0.90625q-0.375 0.359375 -1.046875 0.359375q-0.671875 0 -1.046875 -0.359375q-0.375 -0.359375 -0.375 -0.90625q0 -0.53125 0.375 -0.890625q0.375 -0.375 1.046875 -0.375q0.671875 0 1.046875 0.375q0.390625 0.359375 0.390625 0.890625zm0.015625 6.234375q0 0.53125 -0.390625 0.890625q-0.375 0.359375 -1.046875 0.359375q-0.65625 0 -1.046875 -0.359375q-0.375 -0.359375 -0.375 -0.890625q0 -0.546875 0.375 -0.90625q0.390625 -0.359375 1.046875 -0.359375q0.671875 0 1.046875 0.359375q0.390625 0.359375 0.390625 0.90625zm13.664322 -10.859375l-6.09375 13.140625q-0.234375 0.484375 -0.421875 0.640625q-0.25 0.1875 -0.578125 0.1875q-0.390625 0 -0.6875 -0.28125q-0.28125 -0.265625 -0.28125 -0.625q0 -0.25 0.234375 -0.734375l6.109375 -13.125q0.234375 -0.5 0.40625 -0.640625q0.25 -0.203125 0.578125 -0.203125q0.390625 0 0.671875 0.28125q0.28125 0.265625 0.28125 0.625q0 0.25 -0.21875 0.734375zm11.195572 0l-6.09375 13.140625q-0.234375 0.484375 -0.421875 0.640625q-0.25 0.1875 -0.578125 0.1875q-0.390625 0 -0.6875 -0.28125q-0.28125 -0.265625 -0.28125 -0.625q0 -0.25 0.234375 -0.734375l6.109375 -13.125q0.234375 -0.5 0.40625 -0.640625q0.25 -0.203125 0.578125 -0.203125q0.390625 0 0.671875 0.28125q0.28125 0.265625 0.28125 0.625q0 0.25 -0.21875 0.734375zm7.289322 8.28125l-1.328125 3.5l-1.78125 0l-1.59375 -6.515625q-0.53125 -0.03125 -0.796875 -0.296875q-0.25 -0.265625 -0.25 -0.671875q0 -0.40625 0.28125 -0.671875q0.296875 -0.265625 0.984375 -0.265625l1.765625 0q0.6875 0 0.984375 0.265625q0.296875 0.265625 0.296875 0.6875q0 0.421875 -0.34375 0.71875q-0.25 0.234375 -0.984375 0.234375l0.734375 3.015625l1.171875 -3.09375l1.6875 0l1.1875 3.09375l0.75 -3.015625q-0.703125 0 -0.9375 -0.140625q-0.4375 -0.296875 -0.4375 -0.828125q0 -0.40625 0.28125 -0.671875q0.296875 -0.265625 0.984375 -0.265625l1.796875 0q0.6875 0 0.96875 0.265625q0.296875 0.265625 0.296875 0.6875q0 0.375 -0.265625 0.640625q-0.25 0.265625 -0.75 0.3125l-1.546875 6.515625l-1.765625 0l-1.390625 -3.5zm11.195572 0l-1.328125 3.5l-1.78125 0l-1.59375 -6.515625q-0.53125 -0.03125 -0.796875 -0.296875q-0.25 -0.265625 -0.25 -0.671875q0 -0.40625 0.28125 -0.671875q0.296875 -0.265625 0.984375 -0.265625l1.765625 0q0.6875 0 0.984375 0.265625q0.296875 0.265625 0.296875 0.6875q0 0.421875 -0.34375 0.71875q-0.25 0.234375 -0.984375 0.234375l0.734375 3.015625l1.171875 -3.09375l1.6875 0l1.1875 3.09375l0.75 -3.015625q-0.703125 0 -0.9375 -0.140625q-0.4375 -0.296875 -0.4375 -0.828125q0 -0.40625 0.28125 -0.671875q0.296875 -0.265625 0.984375 -0.265625l1.796875 0q0.6875 0 0.96875 0.265625q0.296875 0.265625 0.296875 0.6875q0 0.375 -0.265625 0.640625q-0.25 0.265625 -0.75 0.3125l-1.546875 6.515625l-1.765625 0l-1.390625 -3.5zm11.195572 0l-1.328125 3.5l-1.78125 0l-1.59375 -6.515625q-0.53125 -0.03125 -0.796875 -0.296875q-0.25 -0.265625 -0.25 -0.671875q0 -0.40625 0.28125 -0.671875q0.296875 -0.265625 0.984375 -0.265625l1.765625 0q0.6875 0 0.984375 0.265625q0.296875 0.265625 0.296875 0.6875q0 0.421875 -0.34375 0.71875q-0.25 0.234375 -0.984375 0.234375l0.734375 3.015625l1.171875 -3.09375l1.6875 0l1.1875 3.09375l0.75 -3.015625q-0.703125 0 -0.9375 -0.140625q-0.4375 -0.296875 -0.4375 -0.828125q0 -0.40625 0.28125 -0.671875q0.296875 -0.265625 0.984375 -0.265625l1.796875 0q0.6875 0 0.96875 0.265625q0.296875 0.265625 0.296875 0.6875q0 0.375 -0.265625 0.640625q-0.25 0.265625 -0.75 0.3125l-1.546875 6.515625l-1.765625 0l-1.390625 -3.5zm12.633072 2.546875q0 0.53125 -0.390625 0.90625q-0.375 0.359375 -1.046875 0.359375q-0.65625 0 -1.046875 -0.359375q-0.375 -0.375 -0.375 -0.90625q0 -0.546875 0.375 -0.90625q0.390625 -0.359375 1.046875 -0.359375q0.671875 0 1.046875 0.359375q0.390625 0.359375 0.390625 0.90625zm11.789322 -5.25q-0.453125 -0.28125 -0.96875 -0.421875q-0.515625 -0.140625 -1.0625 -0.140625q-1.109375 0 -1.75 0.359375q-0.296875 0.15625 -0.296875 0.34375q0 0.203125 0.390625 0.40625q0.296875 0.15625 1.328125 0.296875q1.890625 0.25 2.640625 0.515625q0.96875 0.34375 1.5 1.03125q0.53125 0.671875 0.53125 1.421875q0 1.015625 -0.90625 1.703125q-1.28125 1.0 -3.34375 1.0q-0.828125 0 -1.53125 -0.15625q-0.703125 -0.140625 -1.28125 -0.421875q-0.140625 0.125 -0.296875 0.1875q-0.15625 0.0625 -0.328125 0.0625q-0.4375 0 -0.703125 -0.28125q-0.265625 -0.296875 -0.265625 -0.984375l0 -0.640625q0 -0.6875 0.265625 -0.96875q0.265625 -0.296875 0.6875 -0.296875q0.34375 0 0.5625 0.1875q0.234375 0.1875 0.375 0.65625q0.4375 0.375 1.046875 0.5625q0.609375 0.1875 1.40625 0.1875q1.3125 0 2.03125 -0.40625q0.34375 -0.203125 0.34375 -0.4375q0 -0.359375 -0.484375 -0.609375q-0.5 -0.234375 -2.03125 -0.40625q-2.296875 -0.234375 -3.0625 -0.921875q-0.78125 -0.6875 -0.78125 -1.671875q0 -1.015625 0.875 -1.703125q1.15625 -0.921875 3.0625 -0.921875q0.65625 0 1.265625 0.125q0.609375 0.125 1.15625 0.375q0.171875 -0.125 0.328125 -0.1875q0.15625 -0.0625 0.28125 -0.0625q0.390625 0 0.65625 0.296875q0.265625 0.28125 0.265625 0.96875l0 0.46875q0 0.625 -0.15625 0.84375q-0.296875 0.421875 -0.8125 0.421875q-0.34375 0 -0.609375 -0.203125q-0.25 -0.21875 -0.328125 -0.578125zm13.914322 2.953125l-7.796875 0q0.296875 0.75 1.046875 1.203125q0.765625 0.453125 2.046875 0.453125q1.0625 0 2.8125 -0.453125q0.734375 -0.1875 1.0 -0.1875q0.390625 0 0.640625 0.265625q0.265625 0.265625 0.265625 0.671875q0 0.375 -0.28125 0.640625q-0.375 0.34375 -1.8125 0.65625q-1.4375 0.3125 -2.765625 0.3125q-2.28125 0 -3.65625 -1.28125q-1.359375 -1.296875 -1.359375 -3.1875q0 -2.0 1.484375 -3.25q1.484375 -1.265625 3.40625 -1.265625q1.15625 0 2.125 0.40625q0.96875 0.40625 1.453125 0.875q0.65625 0.6875 1.09375 1.703125q0.296875 0.703125 0.296875 1.640625l0 0.796875zm-2.09375 -1.90625q-0.4375 -0.8125 -1.15625 -1.203125q-0.703125 -0.40625 -1.671875 -0.40625q-0.96875 0 -1.671875 0.40625q-0.703125 0.390625 -1.140625 1.203125l5.640625 0zm8.133072 -3.265625l0 1.1875q1.1875 -0.859375 1.875 -1.140625q0.703125 -0.296875 1.296875 -0.296875q0.9375 0 1.796875 0.6875q0.59375 0.453125 0.59375 0.9375q0 0.40625 -0.28125 0.703125q-0.28125 0.28125 -0.671875 0.28125q-0.359375 0 -0.75 -0.34375q-0.390625 -0.359375 -0.6875 -0.359375q-0.40625 0 -1.203125 0.5q-0.78125 0.5 -1.96875 1.5l0 2.859375l2.703125 0q0.6875 0 0.96875 0.265625q0.296875 0.265625 0.296875 0.6875q0 0.421875 -0.296875 0.6875q-0.28125 0.265625 -0.96875 0.265625l-5.75 0q-0.671875 0 -0.96875 -0.265625q-0.296875 -0.265625 -0.296875 -0.6875q0 -0.421875 0.296875 -0.6875q0.296875 -0.265625 0.96875 -0.265625l1.140625 0l0 -4.609375l-0.6875 0q-0.6875 0 -0.984375 -0.265625q-0.28125 -0.265625 -0.28125 -0.703125q0 -0.40625 0.28125 -0.671875q0.296875 -0.265625 0.984375 -0.265625l2.59375 0zm11.601822 6.109375l2.046875 -4.203125q-0.765625 0 -0.96875 -0.140625q-0.46875 -0.28125 -0.46875 -0.828125q0 -0.40625 0.28125 -0.671875q0.296875 -0.265625 0.984375 -0.265625l2.609375 0q0.6875 0 0.96875 0.265625q0.296875 0.265625 0.296875 0.6875q0 0.421875 -0.296875 0.6875q-0.28125 0.265625 -0.96875 0.265625l-0.3125 0l-3.1875 6.515625l-1.984375 0l-3.171875 -6.515625l-0.28125 0q-0.6875 0 -0.984375 -0.265625q-0.28125 -0.265625 -0.28125 -0.703125q0 -0.40625 0.28125 -0.671875q0.296875 -0.265625 0.984375 -0.265625l2.5625 0q0.671875 0 0.953125 0.265625q0.296875 0.265625 0.296875 0.6875q0 0.53125 -0.4375 0.8125q-0.21875 0.140625 -1.0 0.140625l2.078125 4.203125zm15.945572 -0.9375l-7.796875 0q0.296875 0.75 1.046875 1.203125q0.765625 0.453125 2.046875 0.453125q1.0625 0 2.8125 -0.453125q0.734375 -0.1875 1.0 -0.1875q0.390625 0 0.640625 0.265625q0.265625 0.265625 0.265625 0.671875q0 0.375 -0.28125 0.640625q-0.375 0.34375 -1.8125 0.65625q-1.4375 0.3125 -2.765625 0.3125q-2.28125 0 -3.65625 -1.28125q-1.359375 -1.296875 -1.359375 -3.1875q0 -2.0 1.484375 -3.25q1.484375 -1.265625 3.40625 -1.265625q1.15625 0 2.125 0.40625q0.96875 0.40625 1.453125 0.875q0.65625 0.6875 1.09375 1.703125q0.296875 0.703125 0.296875 1.640625l0 0.796875zm-2.09375 -1.90625q-0.4375 -0.8125 -1.15625 -1.203125q-0.703125 -0.40625 -1.671875 -0.40625q-0.96875 0 -1.671875 0.40625q-0.703125 0.390625 -1.140625 1.203125l5.640625 0zm8.133072 -3.265625l0 1.1875q1.1875 -0.859375 1.875 -1.140625q0.703125 -0.296875 1.296875 -0.296875q0.9375 0 1.796875 0.6875q0.59375 0.453125 0.59375 0.9375q0 0.40625 -0.28125 0.703125q-0.28125 0.28125 -0.671875 0.28125q-0.359375 0 -0.75 -0.34375q-0.390625 -0.359375 -0.6875 -0.359375q-0.40625 0 -1.203125 0.5q-0.78125 0.5 -1.96875 1.5l0 2.859375l2.703125 0q0.6875 0 0.96875 0.265625q0.296875 0.265625 0.296875 0.6875q0 0.421875 -0.296875 0.6875q-0.28125 0.265625 -0.96875 0.265625l-5.75 0q-0.671875 0 -0.96875 -0.265625q-0.296875 -0.265625 -0.296875 -0.6875q0 -0.421875 0.296875 -0.6875q0.296875 -0.265625 0.96875 -0.265625l1.140625 0l0 -4.609375l-0.6875 0q-0.6875 0 -0.984375 -0.265625q-0.28125 -0.265625 -0.28125 -0.703125q0 -0.40625 0.28125 -0.671875q0.296875 -0.265625 0.984375 -0.265625l2.59375 0zm13.039322 7.46875q0 0.53125 -0.390625 0.90625q-0.375 0.359375 -1.046875 0.359375q-0.65625 0 -1.046875 -0.359375q-0.375 -0.375 -0.375 -0.90625q0 -0.546875 0.375 -0.90625q0.390625 -0.359375 1.046875 -0.359375q0.671875 0 1.046875 0.359375q0.390625 0.359375 0.390625 0.90625zm14.101837 -11.078125l0 10.125l0.328125 0q0.671875 0 0.96875 0.265625q0.296875 0.265625 0.296875 0.6875q0 0.421875 -0.296875 0.6875q-0.28125 0.265625 -0.96875 0.265625l-2.21875 0l0 -0.46875q-0.65625 0.390625 -1.375 0.578125q-0.703125 0.203125 -1.46875 0.203125q-2.140625 0 -3.453125 -1.234375q-1.296875 -1.25 -1.296875 -3.09375q0 -1.9375 1.375 -3.296875q1.375 -1.359375 3.34375 -1.359375q0.75 0 1.453125 0.234375q0.71875 0.21875 1.421875 0.671875l0 -2.359375l-0.328125 0q-0.6875 0 -0.984375 -0.265625q-0.296875 -0.265625 -0.296875 -0.6875q0 -0.421875 0.296875 -0.6875q0.296875 -0.265625 0.984375 -0.265625l2.21875 0zm-1.890625 8.0625q0 -1.171875 -0.828125 -1.984375q-0.828125 -0.8125 -2.03125 -0.8125q-1.1875 0 -2.015625 0.8125q-0.8125 0.8125 -0.8125 1.96875q0 1.046875 0.734375 1.71875q0.75 0.671875 2.09375 0.671875q1.34375 0 2.09375 -0.671875q0.765625 -0.671875 0.765625 -1.703125zm13.492432 0.71875l-7.796875 0q0.296875 0.75 1.046875 1.203125q0.765625 0.453125 2.046875 0.453125q1.0625 0 2.8125 -0.453125q0.734375 -0.1875 1.0 -0.1875q0.390625 0 0.640625 0.265625q0.265625 0.265625 0.265625 0.671875q0 0.375 -0.28125 0.640625q-0.375 0.34375 -1.8125 0.65625q-1.4375 0.3125 -2.765625 0.3125q-2.28125 0 -3.65625 -1.28125q-1.359375 -1.296875 -1.359375 -3.1875q0 -2.0 1.484375 -3.25q1.484375 -1.265625 3.40625 -1.265625q1.15625 0 2.125 0.40625q0.96875 0.40625 1.453125 0.875q0.65625 0.6875 1.09375 1.703125q0.296875 0.703125 0.296875 1.640625l0 0.796875zm-2.09375 -1.90625q-0.4375 -0.8125 -1.15625 -1.203125q-0.703125 -0.40625 -1.671875 -0.40625q-0.96875 0 -1.671875 0.40625q-0.703125 0.390625 -1.140625 1.203125l5.640625 0zm12.445587 -6.625l-6.09375 13.140625q-0.234375 0.484375 -0.421875 0.640625q-0.25 0.1875 -0.578125 0.1875q-0.390625 0 -0.6875 -0.28125q-0.28125 -0.265625 -0.28125 -0.625q0 -0.25 0.234375 -0.734375l6.109375 -13.125q0.234375 -0.5 0.40625 -0.640625q0.25 -0.203125 0.578125 -0.203125q0.390625 0 0.671875 0.28125q0.28125 0.265625 0.28125 0.625q0 0.25 -0.21875 0.734375z" fill-rule="nonzero"></path></g></svg>

