<?xml version="1.0" standalone="yes"?>

<svg version="1.1" viewBox="0.0 0.0 960.0 720.0" fill="none" stroke="none" stroke-linecap="square" stroke-miterlimit="10" xmlns="http://www.w3.org/2000/svg" xmlns:xlink="http://www.w3.org/1999/xlink"><clipPath id="p.0"><path d="m0 0l960.0 0l0 720.0l-960.0 0l0 -720.0z" clip-rule="nonzero"></path></clipPath><g clip-path="url(#p.0)"><path fill="#000000" fill-opacity="0.0" d="m0 0l960.0 0l0 720.0l-960.0 0z" fill-rule="nonzero"></path><path fill="#000000" fill-opacity="0.0" d="m890.0 100.01573l-141.77954 567.1181l-536.4409 0l-141.77954 -567.1181z" fill-rule="nonzero"></path><path stroke="#999999" stroke-width="8.0" stroke-linejoin="round" stroke-linecap="butt" d="m890.0 100.01573l-141.77954 567.1181l-536.4409 0l-141.77954 -567.1181z" fill-rule="nonzero"></path><path fill="#b6d7a8" d="m855.7139 122.826775l-98.47247 393.88977l-551.622 0l-98.47244 -393.88977z" fill-rule="nonzero"></path><path stroke="#38761d" stroke-width="12.0" stroke-linejoin="round" stroke-linecap="butt" stroke-dasharray="96.0,36.0" d="m855.7139 122.826775l-98.47247 393.88977l-551.622 0l-98.47244 -393.88977z" fill-rule="nonzero"></path><path fill="#000000" fill-opacity="0.0" d="m107.14698 45.716534l272.8504 0l0 69.98425l-272.8504 0z" fill-rule="nonzero"></path><path fill="#000000" d="m175.76244 65.62404q0.390625 1.3125 0.84375 2.96875q0.46875 1.640625 1.0 3.40625q0.53125 1.75 1.0625 3.515625q0.546875 1.765625 1.0625 3.265625q0.421875 -1.625 0.84375 -3.546875q0.4375 -1.921875 0.8125 -3.96875q0.390625 -2.046875 0.75 -4.078125q0.375 -2.03125 0.703125 -3.9218788l5.1875 0q-1.125 5.562504 -2.59375 11.296879q-1.453125 5.71875 -3.140625 10.875l-4.578125 0q-1.125 -3.078125 -2.1875 -6.453125q-1.046875 -3.375 -2.0625 -6.765625q-1.03125 3.390625 -2.0625 6.765625q-1.015625 3.375 -2.140625 6.453125l-4.5625 0q-1.703125 -5.15625 -3.15625 -10.875q-1.453125 -5.734375 -2.578125 -11.296879l5.40625 0q0.328125 1.8906288 0.703125 3.9218788q0.390625 2.03125 0.796875 4.078125q0.421875 2.046875 0.84375 3.96875q0.4375 1.921875 0.890625 3.546875q0.578125 -1.5625 1.109375 -3.328125q0.546875 -1.765625 1.0625 -3.515625q0.515625 -1.765625 0.9375 -3.390625q0.4375 -1.640625 0.796875 -2.921875l4.25 0zm30.30481 19.8125q-0.34375 -1.15625 -0.78125 -2.359375q-0.4375 -1.21875 -0.84375 -2.4375l-8.640625 0q-0.421875 1.21875 -0.859375 2.4375q-0.421875 1.203125 -0.78125 2.359375l-5.1875 0q1.25 -3.578125 2.375 -6.609375q1.125 -3.046875 2.1875 -5.734375q1.078125 -2.703125 2.109375 -5.109375q1.046875 -2.421875 2.171875 -4.718754l4.765625 0q1.09375 2.2968788 2.140625 4.718754q1.0625 2.40625 2.125 5.109375q1.078125 2.6875 2.1875 5.734375q1.125 3.03125 2.375 6.609375l-5.34375 0zm-5.984375 -17.15625q-0.15625 0.484375 -0.484375 1.3125q-0.3125 0.828125 -0.734375 1.921875q-0.40625 1.09375 -0.90625 2.40625q-0.5 1.3125 -1.015625 2.75l6.3125 0q-0.515625 -1.4375 -1.0 -2.75q-0.46875 -1.3125 -0.90625 -2.40625q-0.4375 -1.09375 -0.765625 -1.921875q-0.3125 -0.828125 -0.5 -1.3125zm20.712677 -5.281254q4.984375 0 7.640625 1.7812538q2.65625 1.78125 2.65625 5.515625q0 2.34375 -1.078125 3.796875q-1.0625 1.453125 -3.078125 2.28125q0.671875 0.84375 1.40625 1.921875q0.734375 1.0625 1.453125 2.234375q0.71875 1.15625 1.390625 2.421875q0.671875 1.265625 1.25 2.484375l-5.59375 0q-0.609375 -1.09375 -1.234375 -2.203125q-0.625 -1.125 -1.28125 -2.171875q-0.65625 -1.0625 -1.296875 -2.0q-0.640625 -0.953125 -1.28125 -1.71875l-2.46875 0l0 8.09375l-4.984375 0l0 -21.859379q1.625 -0.3125 3.375 -0.4375q1.75 -0.140625 3.125 -0.140625zm0.28125 4.265629q-0.546875 0 -0.984375 0.03125q-0.421875 0.03125 -0.8125 0.0625l0 6.015625l1.40625 0q2.828125 0 4.03125 -0.703125q1.21875 -0.703125 1.21875 -2.40625q0 -1.625 -1.234375 -2.3125q-1.21875 -0.6875 -3.625 -0.6875zm20.477188 6.453125l9.28125 0l0 4.328125l-9.28125 0l0 -4.328125zm26.981903 -10.718754q4.953125 0 7.609375 1.7500038q2.65625 1.75 2.65625 5.71875q0 4.0 -2.6875 5.78125q-2.6875 1.765625 -7.671875 1.765625l-1.578125 0l0 7.421875l-4.984375 0l0 -21.859379q1.625 -0.3125 3.453125 -0.4375q1.828125 -0.140625 3.203125 -0.140625zm0.3125 4.265629q-0.546875 0 -1.078125 0.03125q-0.515625 0.03125 -0.90625 0.0625l0 6.390625l1.578125 0q2.59375 0 3.90625 -0.703125q1.3125 -0.703125 1.3125 -2.625q0 -0.921875 -0.34375 -1.53125q-0.34375 -0.609375 -0.96875 -0.96875q-0.609375 -0.375 -1.515625 -0.515625q-0.890625 -0.140625 -1.984375 -0.140625zm23.467438 5.5625q-0.640625 -0.15625 -1.515625 -0.328125q-0.859375 -0.1875 -1.84375 -0.1875q-0.453125 0 -1.078125 0.09375q-0.625 0.078125 -0.9375 0.171875l0 12.859375l-4.78125 0l0 -15.9375q1.28125 -0.453125 3.03125 -0.84375q1.75 -0.40625 3.890625 -0.40625q0.375 0 0.921875 0.046875q0.546875 0.046875 1.09375 0.140625q0.546875 0.078125 1.078125 0.1875q0.546875 0.109375 0.9375 0.265625l-0.796875 3.9375zm19.097778 4.15625q0 1.984375 -0.578125 3.640625q-0.578125 1.640625 -1.671875 2.8125q-1.078125 1.171875 -2.609375 1.8125q-1.515625 0.640625 -3.390625 0.640625q-1.859375 0 -3.390625 -0.640625q-1.515625 -0.640625 -2.609375 -1.8125q-1.078125 -1.171875 -1.6875 -2.8125q-0.609375 -1.65625 -0.609375 -3.640625q0 -1.984375 0.625 -3.609375q0.625 -1.640625 1.71875 -2.78125q1.109375 -1.15625 2.625 -1.796875q1.53125 -0.640625 3.328125 -0.640625q1.8125 0 3.328125 0.640625q1.53125 0.640625 2.609375 1.796875q1.09375 1.140625 1.703125 2.78125q0.609375 1.625 0.609375 3.609375zm-4.859375 0q0 -2.203125 -0.890625 -3.46875q-0.875 -1.265625 -2.5 -1.265625q-1.640625 0 -2.546875 1.265625q-0.890625 1.265625 -0.890625 3.46875q0 2.21875 0.890625 3.515625q0.90625 1.296875 2.546875 1.296875q1.625 0 2.5 -1.296875q0.890625 -1.296875 0.890625 -3.515625zm6.9709167 14.375q-0.453125 0 -1.328125 -0.09375q-0.875 -0.09375 -1.640625 -0.359375l0.640625 -3.875q0.46875 0.171875 0.875 0.234375q0.390625 0.0625 1.0 0.0625q1.125 0 1.5625 -0.671875q0.453125 -0.671875 0.453125 -1.953125l0 -16.09375l4.78125 0l0 16.21875q0 3.328125 -1.640625 4.921875q-1.625 1.609375 -4.703125 1.609375zm6.78125 -27.625004q0 1.3125038 -0.84375 2.0781288q-0.84375 0.75 -2.0 0.75q-1.15625 0 -2.0 -0.75q-0.84375 -0.765625 -0.84375 -2.0781288q0 -1.3125 0.84375 -2.0625q0.84375 -0.75 2.0 -0.75q1.15625 0 2.0 0.75q0.84375 0.75 0.84375 2.0625zm3.2323914 13.421879q0 -2.25 0.6875 -3.921875q0.6875 -1.6875 1.8125 -2.796875q1.125 -1.125 2.578125 -1.703125q1.453125 -0.578125 2.984375 -0.578125q3.59375 0 5.671875 2.203125q2.078125 2.1875 2.078125 6.4375q0 0.421875 -0.03125 0.921875q-0.03125 0.484375 -0.0625 0.875l-10.8125 0q0.15625 1.46875 1.359375 2.34375q1.21875 0.859375 3.265625 0.859375q1.3125 0 2.578125 -0.234375q1.265625 -0.25 2.0625 -0.609375l0.640625 3.875q-0.375 0.1875 -1.015625 0.390625q-0.640625 0.1875 -1.421875 0.328125q-0.78125 0.140625 -1.6875 0.234375q-0.890625 0.109375 -1.78125 0.109375q-2.28125 0 -3.96875 -0.671875q-1.671875 -0.671875 -2.78125 -1.84375q-1.09375 -1.171875 -1.625 -2.765625q-0.53125 -1.609375 -0.53125 -3.453125zm11.203125 -1.828125q-0.03125 -0.609375 -0.21875 -1.1875q-0.171875 -0.578125 -0.546875 -1.015625q-0.359375 -0.453125 -0.921875 -0.734375q-0.546875 -0.296875 -1.390625 -0.296875q-0.796875 0 -1.375 0.28125q-0.578125 0.265625 -0.96875 0.71875q-0.375 0.4375 -0.578125 1.03125q-0.203125 0.59375 -0.296875 1.203125l6.296875 0zm7.484894 1.6875q0 -1.8125 0.59375 -3.421875q0.59375 -1.625 1.703125 -2.828125q1.125 -1.203125 2.71875 -1.90625q1.609375 -0.703125 3.65625 -0.703125q1.34375 0 2.46875 0.25q1.125 0.234375 2.171875 0.671875l-0.984375 3.8125q-0.671875 -0.25 -1.484375 -0.4375q-0.796875 -0.203125 -1.78125 -0.203125q-2.109375 0 -3.15625 1.3125q-1.046875 1.3125 -1.046875 3.453125q0 2.28125 0.96875 3.53125q0.984375 1.25 3.421875 1.25q0.859375 0 1.84375 -0.15625q1.0 -0.171875 1.84375 -0.515625l0.671875 3.890625q-0.84375 0.359375 -2.09375 0.609375q-1.234375 0.265625 -2.75 0.265625q-2.296875 0 -3.96875 -0.6875q-1.65625 -0.6875 -2.734375 -1.875q-1.0625 -1.1875 -1.5625 -2.796875q-0.5 -1.625 -0.5 -3.515625zm16.640656 -12.609375l4.765625 -0.7656288l0 4.968754l5.734375 0l0 3.96875l-5.734375 0l0 5.921875q0 1.5 0.53125 2.40625q0.53125 0.890625 2.125 0.890625q0.765625 0 1.578125 -0.140625q0.828125 -0.15625 1.5 -0.40625l0.671875 3.703125q-0.859375 0.359375 -1.921875 0.609375q-1.0625 0.265625 -2.59375 0.265625q-1.953125 0 -3.234375 -0.53125q-1.28125 -0.53125 -2.046875 -1.46875q-0.765625 -0.953125 -1.078125 -2.296875q-0.296875 -1.34375 -0.296875 -2.96875l0 -14.15625z" fill-rule="nonzero"></path><path fill="#000000" fill-opacity="0.0" d="m147.14699 115.70079l95.71654 0l0 69.98425l-95.71654 0z" fill-rule="nonzero"></path><path fill="#000000" d="m169.20949 144.98329q-0.78125 -0.484375 -1.640625 -0.71875q-0.859375 -0.25 -1.796875 -0.25q-1.859375 0 -2.953125 0.609375q-0.484375 0.265625 -0.484375 0.578125q0 0.359375 0.65625 0.703125q0.5 0.25 2.234375 0.484375q3.1875 0.4375 4.4375 0.875q1.640625 0.578125 2.53125 1.71875q0.890625 1.140625 0.890625 2.40625q0 1.71875 -1.515625 2.875q-2.171875 1.671875 -5.640625 1.671875q-1.390625 0 -2.578125 -0.25q-1.171875 -0.234375 -2.15625 -0.703125q-0.234375 0.203125 -0.5 0.3125q-0.265625 0.109375 -0.546875 0.109375q-0.75 0 -1.203125 -0.484375q-0.4375 -0.5 -0.4375 -1.65625l0 -1.078125q0 -1.15625 0.4375 -1.640625q0.453125 -0.5 1.171875 -0.5q0.578125 0 0.96875 0.328125q0.390625 0.3125 0.609375 1.09375q0.734375 0.625 1.765625 0.953125q1.03125 0.3125 2.375 0.3125q2.203125 0 3.421875 -0.6875q0.578125 -0.34375 0.578125 -0.71875q0 -0.625 -0.828125 -1.03125q-0.828125 -0.40625 -3.421875 -0.6875q-3.859375 -0.40625 -5.15625 -1.5625q-1.296875 -1.140625 -1.296875 -2.8125q0 -1.71875 1.453125 -2.859375q1.96875 -1.5625 5.15625 -1.5625q1.109375 0 2.125 0.21875q1.03125 0.203125 1.96875 0.640625q0.296875 -0.21875 0.546875 -0.328125q0.265625 -0.109375 0.484375 -0.109375q0.65625 0 1.09375 0.5q0.4375 0.484375 0.4375 1.640625l0 0.78125q0 1.046875 -0.25 1.421875q-0.5 0.71875 -1.359375 0.71875q-0.578125 0 -1.015625 -0.359375q-0.4375 -0.359375 -0.5625 -0.953125zm15.078125 -3.75l0 2.0q2.015625 -1.453125 3.171875 -1.9375q1.171875 -0.484375 2.1875 -0.484375q1.5625 0 3.03125 1.15625q1.0 0.78125 1.0 1.59375q0 0.6875 -0.484375 1.171875q-0.46875 0.46875 -1.140625 0.46875q-0.59375 0 -1.25 -0.59375q-0.65625 -0.59375 -1.171875 -0.59375q-0.671875 0 -2.015625 0.84375q-1.328125 0.84375 -3.328125 2.53125l0 4.828125l4.5625 0q1.15625 0 1.640625 0.453125q0.5 0.4375 0.5 1.15625q0 0.703125 -0.5 1.15625q-0.484375 0.4375 -1.640625 0.4375l-9.671875 0q-1.15625 0 -1.65625 -0.4375q-0.484375 -0.453125 -0.484375 -1.171875q0 -0.703125 0.484375 -1.140625q0.5 -0.453125 1.65625 -0.453125l1.90625 0l0 -7.78125l-1.15625 0q-1.15625 0 -1.65625 -0.4375q-0.484375 -0.453125 -0.484375 -1.171875q0 -0.703125 0.484375 -1.140625q0.5 -0.453125 1.65625 -0.453125l4.359375 0zm24.859375 0.578125q0.578125 -0.546875 1.1875 -0.546875q0.6875 0 1.125 0.5q0.453125 0.484375 0.453125 1.625l0 2.0625q0 1.15625 -0.453125 1.640625q-0.4375 0.484375 -1.15625 0.484375q-0.65625 0 -1.109375 -0.375q-0.328125 -0.28125 -0.515625 -1.140625q-0.1875 -0.875 -0.90625 -1.296875q-1.265625 -0.75 -3.234375 -0.75q-2.265625 0 -3.640625 1.328125q-1.359375 1.328125 -1.359375 3.359375q0 1.875 1.3125 2.96875q1.3125 1.078125 4.359375 1.078125q2.0 0 3.265625 -0.40625q0.75 -0.25 1.421875 -0.84375q0.671875 -0.609375 1.21875 -0.609375q0.65625 0 1.125 0.484375q0.484375 0.484375 0.484375 1.140625q0 1.0625 -1.453125 2.015625q-2.15625 1.421875 -6.3125 1.421875q-3.734375 0 -5.8125 -1.546875q-2.8125 -2.078125 -2.8125 -5.6875q0 -3.421875 2.28125 -5.65625q2.28125 -2.25 5.953125 -2.25q1.328125 0 2.46875 0.25q1.140625 0.25 2.109375 0.75z" fill-rule="nonzero"></path><path fill="#000000" fill-opacity="0.0" d="m547.147 34.28609l314.96063 0l0 81.41733l-314.96063 0z" fill-rule="nonzero"></path><path fill="#000000" d="m668.4826 78.82413l0 4.6875l3.28125 0q1.15625 0 1.640625 0.453125q0.5 0.4375 0.5 1.15625q0 0.703125 -0.5 1.15625q-0.484375 0.4375 -1.640625 0.4375l-6.984375 0q-1.15625 0 -1.65625 -0.4375q-0.484375 -0.453125 -0.484375 -1.171875q0 -0.703125 0.5 -1.140625q0.5 -0.453125 1.640625 -0.453125l0.5 0l0 -12.53125l-0.5 0q-1.15625 0 -1.65625 -0.4375q-0.484375 -0.453125 -0.484375 -1.171875q0 -0.71875 0.484375 -1.15625q0.5 -0.453125 1.65625 -0.453125l15.078125 0.015625l0 4.890625q0 1.140625 -0.453125 1.640625q-0.4375 0.484375 -1.15625 0.484375q-0.703125 0 -1.15625 -0.484375q-0.4375 -0.484375 -0.4375 -1.640625l0 -1.6875l-8.171875 0l0 4.640625l2.8125 0q0 -1.25 0.234375 -1.609375q0.484375 -0.765625 1.375 -0.765625q0.703125 0 1.140625 0.5q0.453125 0.484375 0.453125 1.640625l0 3.6875q0 1.15625 -0.453125 1.65625q-0.4375 0.484375 -1.15625 0.484375q-0.875 0 -1.359375 -0.765625q-0.234375 -0.359375 -0.234375 -1.625l-2.8125 0zm22.546875 -12.375l0 3.390625l-3.8125 0l0 -3.390625l3.8125 0zm0.4375 6.078125l0 10.984375l3.84375 0q1.15625 0 1.640625 0.453125q0.5 0.4375 0.5 1.15625q0 0.703125 -0.5 1.15625q-0.484375 0.4375 -1.640625 0.4375l-10.890625 0q-1.15625 0 -1.65625 -0.4375q-0.484375 -0.453125 -0.484375 -1.171875q0 -0.703125 0.484375 -1.140625q0.5 -0.453125 1.65625 -0.453125l3.84375 0l0 -7.78125l-2.578125 0q-1.140625 0 -1.640625 -0.4375q-0.5 -0.453125 -0.5 -1.171875q0 -0.703125 0.484375 -1.140625q0.5 -0.453125 1.65625 -0.453125l5.78125 0zm19.21875 -6.078125l0 17.0625l3.84375 0q1.15625 0 1.640625 0.453125q0.5 0.4375 0.5 1.15625q0 0.703125 -0.5 1.15625q-0.484375 0.4375 -1.640625 0.4375l-10.890625 0q-1.15625 0 -1.65625 -0.4375q-0.484375 -0.453125 -0.484375 -1.171875q0 -0.703125 0.484375 -1.140625q0.5 -0.453125 1.65625 -0.453125l3.84375 0l0 -13.859375l-2.578125 0q-1.140625 0 -1.640625 -0.4375q-0.5 -0.453125 -0.5 -1.171875q0 -0.703125 0.484375 -1.140625q0.5 -0.453125 1.65625 -0.453125l5.78125 0zm25.640625 14.796875l-13.140625 0q0.5 1.25 1.765625 2.015625q1.28125 0.765625 3.453125 0.765625q1.78125 0 4.734375 -0.765625q1.21875 -0.3125 1.6875 -0.3125q0.640625 0 1.078125 0.453125q0.4375 0.453125 0.4375 1.140625q0 0.625 -0.46875 1.0625q-0.625 0.578125 -3.046875 1.109375q-2.421875 0.515625 -4.65625 0.515625q-3.84375 0 -6.15625 -2.171875q-2.296875 -2.171875 -2.296875 -5.34375q0 -3.375 2.484375 -5.484375q2.5 -2.125 5.75 -2.125q1.953125 0 3.578125 0.6875q1.640625 0.6875 2.4375 1.484375q1.125 1.15625 1.859375 2.859375q0.5 1.1875 0.5 2.75l0 1.359375zm-3.546875 -3.203125q-0.734375 -1.375 -1.921875 -2.046875q-1.1875 -0.6875 -2.828125 -0.6875q-1.625 0 -2.8125 0.6875q-1.1875 0.671875 -1.9375 2.046875l9.5 0zm18.171875 -1.765625q-0.78125 -0.484375 -1.640625 -0.71875q-0.859375 -0.25 -1.796875 -0.25q-1.859375 0 -2.953125 0.609375q-0.484375 0.265625 -0.484375 0.578125q0 0.359375 0.65625 0.703125q0.5 0.25 2.234375 0.484375q3.1875 0.4375 4.4375 0.875q1.640625 0.578125 2.53125 1.71875q0.890625 1.140625 0.890625 2.40625q0 1.71875 -1.515625 2.875q-2.171875 1.671875 -5.640625 1.671875q-1.390625 0 -2.578125 -0.25q-1.171875 -0.234375 -2.15625 -0.703125q-0.234375 0.203125 -0.5 0.3125q-0.265625 0.109375 -0.546875 0.109375q-0.75 0 -1.203125 -0.484375q-0.4375 -0.5 -0.4375 -1.65625l0 -1.078125q0 -1.15625 0.4375 -1.640625q0.453125 -0.5 1.171875 -0.5q0.578125 0 0.96875 0.328125q0.390625 0.3125 0.609375 1.09375q0.734375 0.625 1.765625 0.953125q1.03125 0.3125 2.375 0.3125q2.203125 0 3.421875 -0.6875q0.578125 -0.34375 0.578125 -0.71875q0 -0.625 -0.828125 -1.03125q-0.828125 -0.40625 -3.421875 -0.6875q-3.859375 -0.40625 -5.15625 -1.5625q-1.296875 -1.140625 -1.296875 -2.8125q0 -1.71875 1.453125 -2.859375q1.96875 -1.5625 5.15625 -1.5625q1.109375 0 2.125 0.21875q1.03125 0.203125 1.96875 0.640625q0.296875 -0.21875 0.546875 -0.328125q0.265625 -0.109375 0.484375 -0.109375q0.65625 0 1.09375 0.5q0.4375 0.484375 0.4375 1.640625l0 0.78125q0 1.046875 -0.25 1.421875q-0.5 0.71875 -1.359375 0.71875q-0.578125 0 -1.015625 -0.359375q-0.4375 -0.359375 -0.5625 -0.953125zm13.953125 10.328125l-5.546875 -10.875q-0.78125 -0.09375 -1.1875 -0.53125q-0.40625 -0.4375 -0.40625 -1.0625q0 -0.71875 0.484375 -1.15625q0.5 -0.453125 1.65625 -0.453125l2.921875 0q1.15625 0 1.640625 0.453125q0.5 0.4375 0.5 1.15625q0 0.703125 -0.5 1.15625q-0.484375 0.4375 -1.546875 0.4375l3.78125 7.359375l3.75 -7.359375q-1.03125 0 -1.53125 -0.4375q-0.484375 -0.453125 -0.484375 -1.171875q0 -0.703125 0.484375 -1.140625q0.5 -0.453125 1.65625 -0.453125l3.015625 0q1.140625 0 1.625 0.453125q0.5 0.4375 0.5 1.15625q0 0.640625 -0.421875 1.09375q-0.421875 0.4375 -1.25 0.5l-7.34375 14.46875q1.203125 0 1.578125 0.234375q0.75 0.484375 0.75 1.375q0 0.703125 -0.5 1.140625q-0.484375 0.453125 -1.640625 0.453125l-6.984375 0q-1.15625 0 -1.65625 -0.453125q-0.484375 -0.4375 -0.484375 -1.140625q0 -0.71875 0.484375 -1.171875q0.5 -0.4375 1.65625 -0.4375l3.1875 0l1.8125 -3.59375zm24.453125 -10.328125q-0.78125 -0.484375 -1.640625 -0.71875q-0.859375 -0.25 -1.796875 -0.25q-1.859375 0 -2.953125 0.609375q-0.484375 0.265625 -0.484375 0.578125q0 0.359375 0.65625 0.703125q0.5 0.25 2.234375 0.484375q3.1875 0.4375 4.4375 0.875q1.640625 0.578125 2.53125 1.71875q0.890625 1.140625 0.890625 2.40625q0 1.71875 -1.515625 2.875q-2.171875 1.671875 -5.640625 1.671875q-1.390625 0 -2.578125 -0.25q-1.171875 -0.234375 -2.15625 -0.703125q-0.234375 0.203125 -0.5 0.3125q-0.265625 0.109375 -0.546875 0.109375q-0.75 0 -1.203125 -0.484375q-0.4375 -0.5 -0.4375 -1.65625l0 -1.078125q0 -1.15625 0.4375 -1.640625q0.453125 -0.5 1.171875 -0.5q0.578125 0 0.96875 0.328125q0.390625 0.3125 0.609375 1.09375q0.734375 0.625 1.765625 0.953125q1.03125 0.3125 2.375 0.3125q2.203125 0 3.421875 -0.6875q0.578125 -0.34375 0.578125 -0.71875q0 -0.625 -0.828125 -1.03125q-0.828125 -0.40625 -3.421875 -0.6875q-3.859375 -0.40625 -5.15625 -1.5625q-1.296875 -1.140625 -1.296875 -2.8125q0 -1.71875 1.453125 -2.859375q1.96875 -1.5625 5.15625 -1.5625q1.109375 0 2.125 0.21875q1.03125 0.203125 1.96875 0.640625q0.296875 -0.21875 0.546875 -0.328125q0.265625 -0.109375 0.484375 -0.109375q0.65625 0 1.09375 0.5q0.4375 0.484375 0.4375 1.640625l0 0.78125q0 1.046875 -0.25 1.421875q-0.5 0.71875 -1.359375 0.71875q-0.578125 0 -1.015625 -0.359375q-0.4375 -0.359375 -0.5625 -0.953125zm14.953125 -0.546875l0 6.421875q0 1.03125 0.421875 1.359375q0.65625 0.515625 2.34375 0.515625q2.453125 0 4.53125 -1.046875q0.796875 -0.40625 1.25 -0.40625q0.625 0 1.078125 0.46875q0.46875 0.46875 0.46875 1.140625q0 0.625 -0.5 1.078125q-0.765625 0.734375 -3.03125 1.359375q-2.25 0.609375 -3.796875 0.609375q-2.984375 0 -4.484375 -1.28125q-1.484375 -1.296875 -1.484375 -3.171875l0 -7.046875l-1.15625 0q-1.15625 0 -1.65625 -0.4375q-0.484375 -0.453125 -0.484375 -1.171875q0 -0.703125 0.484375 -1.140625q0.5 -0.453125 1.65625 -0.453125l1.15625 0l0 -2.890625q0 -1.15625 0.4375 -1.640625q0.453125 -0.5 1.171875 -0.5q0.703125 0 1.140625 0.5q0.453125 0.484375 0.453125 1.640625l0 2.890625l5.921875 0q1.15625 0 1.640625 0.453125q0.5 0.4375 0.5 1.15625q0 0.703125 -0.5 1.15625q-0.484375 0.4375 -1.640625 0.4375l-5.921875 0zm28.03125 5.515625l-13.140625 0q0.5 1.25 1.765625 2.015625q1.28125 0.765625 3.453125 0.765625q1.78125 0 4.734375 -0.765625q1.21875 -0.3125 1.6875 -0.3125q0.640625 0 1.078125 0.453125q0.4375 0.453125 0.4375 1.140625q0 0.625 -0.46875 1.0625q-0.625 0.578125 -3.046875 1.109375q-2.421875 0.515625 -4.65625 0.515625q-3.84375 0 -6.15625 -2.171875q-2.296875 -2.171875 -2.296875 -5.34375q0 -3.375 2.484375 -5.484375q2.5 -2.125 5.75 -2.125q1.953125 0 3.578125 0.6875q1.640625 0.6875 2.4375 1.484375q1.125 1.15625 1.859375 2.859375q0.5 1.1875 0.5 2.75l0 1.359375zm-3.546875 -3.203125q-0.734375 -1.375 -1.921875 -2.046875q-1.1875 -0.6875 -2.828125 -0.6875q-1.625 0 -2.8125 0.6875q-1.1875 0.671875 -1.9375 2.046875l9.5 0zm9.765625 -5.515625l0 0.90625q0.78125 -0.765625 1.40625 -1.046875q0.640625 -0.296875 1.46875 -0.296875q0.703125 0 1.390625 0.34375q0.6875 0.34375 1.34375 1.03125q0.828125 -0.6875 1.671875 -1.015625q0.859375 -0.34375 1.75 -0.34375q1.78125 0 2.890625 0.953125q1.46875 1.25 1.46875 3.28125l0 7.171875q1.0 0 1.484375 0.453125q0.484375 0.453125 0.484375 1.15625q0 0.703125 -0.484375 1.15625q-0.484375 0.4375 -1.640625 0.4375l-3.046875 0l0 -10.109375q0 -0.734375 -0.265625 -1.015625q-0.265625 -0.28125 -0.8125 -0.28125q-0.53125 0 -0.984375 0.28125q-0.578125 0.390625 -1.40625 1.46875l0 6.453125q1.0 0 1.484375 0.453125q0.484375 0.453125 0.484375 1.15625q0 0.703125 -0.484375 1.15625q-0.484375 0.4375 -1.640625 0.4375l-3.046875 0l0 -10.109375q0 -0.71875 -0.28125 -1.0q-0.265625 -0.296875 -0.8125 -0.296875q-0.5625 0 -1.109375 0.359375q-0.546875 0.34375 -1.3125 1.390625l0 6.453125q1.0 0 1.484375 0.453125q0.5 0.453125 0.5 1.15625q0 0.703125 -0.5 1.15625q-0.484375 0.4375 -1.640625 0.4375l-2.890625 0q-1.15625 0 -1.640625 -0.4375q-0.5 -0.453125 -0.5 -1.171875q0 -0.703125 0.484375 -1.140625q0.484375 -0.453125 1.5 -0.453125l0 -7.78125q-1.015625 0 -1.5 -0.453125q-0.484375 -0.453125 -0.484375 -1.15625q0 -0.703125 0.5 -1.140625q0.484375 -0.453125 1.640625 -0.453125l3.046875 0z" fill-rule="nonzero"></path><path fill="#f3f3f3" d="m257.14383 637.14435l-44.28557 -95.71655l221.42784 0l0 95.71655z" fill-rule="nonzero"></path><path stroke="#999999" stroke-width="8.0" stroke-linejoin="round" stroke-linecap="butt" d="m257.14383 637.14435l-44.28557 -95.71655l221.42784 0l0 95.71655z" fill-rule="nonzero"></path><path fill="#000000" fill-opacity="0.0" d="m698.00104 637.14435l44.85724 -97.14435l-224.28607 0l0 97.14435z" fill-rule="nonzero"></path><path stroke="#999999" stroke-width="8.0" stroke-linejoin="round" stroke-linecap="butt" stroke-dasharray="64.0,24.0" d="m698.00104 637.14435l44.85724 -97.14435l-224.28607 0l0 97.14435z" fill-rule="nonzero"></path><path fill="#000000" fill-opacity="0.0" d="m257.1496 541.4278l162.26773 0l0 62.614197l-162.26773 0z" fill-rule="nonzero"></path><path fill="#000000" d="m271.7746 579.3822l0 5.25l1.921875 0q1.15625 0 1.640625 0.4375q0.5 0.453125 0.5 1.171875q0 0.703125 -0.5 1.140625q-0.484375 0.453125 -1.640625 0.453125l-5.671875 0q-1.15625 0 -1.65625 -0.453125q-0.484375 -0.4375 -0.484375 -1.140625q0 -0.71875 0.5 -1.171875q0.5 -0.4375 1.640625 -0.4375l0.546875 0l0 -14.46875l-0.546875 0q-1.15625 0 -1.65625 -0.4375q-0.484375 -0.453125 -0.484375 -1.171875q0 -0.703125 0.484375 -1.140625q0.5 -0.453125 1.65625 -0.453125l3.75 0l0 1.09375q1.125 -0.765625 2.328125 -1.140625q1.203125 -0.375 2.46875 -0.375q3.28125 0 5.59375 2.234375q2.3125 2.21875 2.3125 5.09375q0 3.171875 -2.734375 5.234375q-2.28125 1.71875 -5.140625 1.71875q-1.234375 0 -2.4375 -0.359375q-1.203125 -0.359375 -2.390625 -1.078125zm9.5 -5.5q0 -0.671875 -0.53125 -1.703125q-0.53125 -1.046875 -1.640625 -1.734375q-1.09375 -0.703125 -2.578125 -0.703125q-2.390625 0 -3.796875 1.796875q-0.953125 1.234375 -0.953125 2.375q0 1.28125 1.359375 2.5q1.375 1.203125 3.390625 1.203125q2.03125 0 3.390625 -1.203125q1.359375 -1.203125 1.359375 -2.53125zm22.0 0.4375q0 1.84375 -1.03125 3.578125q-1.015625 1.71875 -3.046875 2.75q-2.015625 1.015625 -4.21875 1.015625q-2.1875 0 -4.1875 -1.0q-2.0 -1.015625 -3.046875 -2.75q-1.046875 -1.734375 -1.046875 -3.625q0 -1.921875 1.0625 -3.765625q1.0625 -1.859375 3.046875 -2.921875q2.0 -1.0625 4.171875 -1.0625q2.1875 0 4.203125 1.09375q2.03125 1.078125 3.0625 2.921875q1.03125 1.828125 1.03125 3.765625zm-3.203125 0.015625q0 -1.546875 -1.109375 -2.84375q-1.515625 -1.75 -3.984375 -1.75q-2.171875 0 -3.625 1.390625q-1.453125 1.390625 -1.453125 3.21875q0 1.5 1.46875 2.8125q1.46875 1.296875 3.609375 1.296875q2.15625 0 3.625 -1.296875q1.46875 -1.3125 1.46875 -2.828125zm9.140625 -7.375l0 0.90625q0.78125 -0.765625 1.40625 -1.046875q0.640625 -0.296875 1.46875 -0.296875q0.703125 0 1.390625 0.34375q0.6875 0.34375 1.34375 1.03125q0.828125 -0.6875 1.671875 -1.015625q0.859375 -0.34375 1.75 -0.34375q1.78125 0 2.890625 0.953125q1.46875 1.25 1.46875 3.28125l0 7.171875q1.0 0 1.484375 0.453125q0.484375 0.453125 0.484375 1.15625q0 0.703125 -0.484375 1.15625q-0.484375 0.4375 -1.640625 0.4375l-3.046875 0l0 -10.109375q0 -0.734375 -0.265625 -1.015625q-0.265625 -0.28125 -0.8125 -0.28125q-0.53125 0 -0.984375 0.28125q-0.578125 0.390625 -1.40625 1.46875l0 6.453125q1.0 0 1.484375 0.453125q0.484375 0.453125 0.484375 1.15625q0 0.703125 -0.484375 1.15625q-0.484375 0.4375 -1.640625 0.4375l-3.046875 0l0 -10.109375q0 -0.71875 -0.28125 -1.0q-0.265625 -0.296875 -0.8125 -0.296875q-0.5625 0 -1.109375 0.359375q-0.546875 0.34375 -1.3125 1.390625l0 6.453125q1.0 0 1.484375 0.453125q0.5 0.453125 0.5 1.15625q0 0.703125 -0.5 1.15625q-0.484375 0.4375 -1.640625 0.4375l-2.890625 0q-1.15625 0 -1.640625 -0.4375q-0.5 -0.453125 -0.5 -1.171875q0 -0.703125 0.484375 -1.140625q0.484375 -0.453125 1.5 -0.453125l0 -7.78125q-1.015625 0 -1.5 -0.453125q-0.484375 -0.453125 -0.484375 -1.15625q0 -0.703125 0.5 -1.140625q0.484375 -0.453125 1.640625 -0.453125l3.046875 0zm26.59375 12.578125q0 0.90625 -0.640625 1.515625q-0.640625 0.609375 -1.765625 0.609375q-1.125 0 -1.765625 -0.609375q-0.640625 -0.609375 -0.640625 -1.515625q0 -0.90625 0.640625 -1.515625q0.640625 -0.609375 1.765625 -0.609375q1.125 0 1.765625 0.609375q0.640625 0.609375 0.640625 1.515625zm19.15625 -5.765625l4.859375 4.171875q0.875 0.046875 1.3125 0.5q0.4375 0.4375 0.4375 1.109375q0 0.703125 -0.5 1.15625q-0.484375 0.4375 -1.640625 0.4375l-3.640625 0q-1.15625 0 -1.65625 -0.4375q-0.484375 -0.453125 -0.484375 -1.1875q0 -0.5625 0.34375 -0.984375q0.359375 -0.4375 0.96875 -0.59375l-2.390625 -2.0625l-2.4375 2.0625q0.734375 0.1875 1.046875 0.578125q0.328125 0.390625 0.328125 1.0q0 0.734375 -0.484375 1.1875q-0.484375 0.4375 -1.640625 0.4375l-3.609375 0q-1.15625 0 -1.65625 -0.4375q-0.484375 -0.453125 -0.484375 -1.171875q0 -0.65625 0.4375 -1.09375q0.4375 -0.453125 1.3125 -0.5l4.75 -4.1875l-4.203125 -3.59375q-0.828125 -0.0625 -1.265625 -0.5q-0.421875 -0.453125 -0.421875 -1.109375q0 -0.703125 0.484375 -1.140625q0.5 -0.453125 1.65625 -0.453125l3.0 0q1.15625 0 1.640625 0.453125q0.5 0.4375 0.5 1.125q0 0.921875 -0.875 1.5l1.9375 1.609375l1.90625 -1.640625q-0.859375 -0.609375 -0.859375 -1.40625q0 -0.75 0.484375 -1.1875q0.5 -0.453125 1.65625 -0.453125l2.96875 0q1.15625 0 1.640625 0.453125q0.5 0.4375 0.5 1.15625q0 0.640625 -0.4375 1.09375q-0.421875 0.4375 -1.265625 0.5l-4.21875 3.609375zm11.859375 -6.8125l0 0.90625q0.78125 -0.765625 1.40625 -1.046875q0.640625 -0.296875 1.46875 -0.296875q0.703125 0 1.390625 0.34375q0.6875 0.34375 1.34375 1.03125q0.828125 -0.6875 1.671875 -1.015625q0.859375 -0.34375 1.75 -0.34375q1.78125 0 2.890625 0.953125q1.46875 1.25 1.46875 3.28125l0 7.171875q1.0 0 1.484375 0.453125q0.484375 0.453125 0.484375 1.15625q0 0.703125 -0.484375 1.15625q-0.484375 0.4375 -1.640625 0.4375l-3.046875 0l0 -10.109375q0 -0.734375 -0.265625 -1.015625q-0.265625 -0.28125 -0.8125 -0.28125q-0.53125 0 -0.984375 0.28125q-0.578125 0.390625 -1.40625 1.46875l0 6.453125q1.0 0 1.484375 0.453125q0.484375 0.453125 0.484375 1.15625q0 0.703125 -0.484375 1.15625q-0.484375 0.4375 -1.640625 0.4375l-3.046875 0l0 -10.109375q0 -0.71875 -0.28125 -1.0q-0.265625 -0.296875 -0.8125 -0.296875q-0.5625 0 -1.109375 0.359375q-0.546875 0.34375 -1.3125 1.390625l0 6.453125q1.0 0 1.484375 0.453125q0.5 0.453125 0.5 1.15625q0 0.703125 -0.5 1.15625q-0.484375 0.4375 -1.640625 0.4375l-2.890625 0q-1.15625 0 -1.640625 -0.4375q-0.5 -0.453125 -0.5 -1.171875q0 -0.703125 0.484375 -1.140625q0.484375 -0.453125 1.5 -0.453125l0 -7.78125q-1.015625 0 -1.5 -0.453125q-0.484375 -0.453125 -0.484375 -1.15625q0 -0.703125 0.5 -1.140625q0.484375 -0.453125 1.640625 -0.453125l3.046875 0zm25.75 -6.078125l0 17.0625l3.84375 0q1.15625 0 1.640625 0.453125q0.5 0.4375 0.5 1.15625q0 0.703125 -0.5 1.15625q-0.484375 0.4375 -1.640625 0.4375l-10.890625 0q-1.15625 0 -1.65625 -0.4375q-0.484375 -0.453125 -0.484375 -1.171875q0 -0.703125 0.484375 -1.140625q0.5 -0.453125 1.65625 -0.453125l3.84375 0l0 -13.859375l-2.578125 0q-1.140625 0 -1.640625 -0.4375q-0.5 -0.453125 -0.5 -1.171875q0 -0.703125 0.484375 -1.140625q0.5 -0.453125 1.65625 -0.453125l5.78125 0z" fill-rule="nonzero"></path><path fill="#000000" fill-opacity="0.0" d="m449.563 588.5722l53.7323 0" fill-rule="nonzero"></path><path stroke="#000000" stroke-width="4.0" stroke-linejoin="round" stroke-linecap="butt" d="m449.563 588.5722l40.023956 0" fill-rule="evenodd"></path><path fill="#000000" stroke="#000000" stroke-width="4.0" stroke-linecap="butt" d="m489.58694 588.5722l-4.498352 4.498291l12.35907 -4.498291l-12.35907 -4.498352z" fill-rule="evenodd"></path><path fill="#000000" fill-opacity="0.0" d="m528.8793 541.4278l162.2677 0l0 56.031494l-162.2677 0z" fill-rule="nonzero"></path><path fill="#000000" d="m546.6918 570.16345l0 6.421875q0 1.03125 0.421875 1.359375q0.65625 0.515625 2.34375 0.515625q2.453125 0 4.53125 -1.046875q0.796875 -0.40625 1.25 -0.40625q0.625 0 1.078125 0.46875q0.46875 0.46875 0.46875 1.140625q0 0.625 -0.5 1.078125q-0.765625 0.734375 -3.03125 1.359375q-2.25 0.609375 -3.796875 0.609375q-2.984375 0 -4.484375 -1.28125q-1.484375 -1.296875 -1.484375 -3.171875l0 -7.046875l-1.15625 0q-1.15625 0 -1.65625 -0.4375q-0.484375 -0.453125 -0.484375 -1.171875q0 -0.703125 0.484375 -1.140625q0.5 -0.453125 1.65625 -0.453125l1.15625 0l0 -2.890625q0 -1.15625 0.4375 -1.640625q0.453125 -0.5 1.171875 -0.5q0.703125 0 1.140625 0.5q0.453125 0.484375 0.453125 1.640625l0 2.890625l5.921875 0q1.15625 0 1.640625 0.453125q0.5 0.4375 0.5 1.15625q0 0.703125 -0.5 1.15625q-0.484375 0.4375 -1.640625 0.4375l-5.921875 0zm22.875 10.984375l0 -0.75q-1.203125 0.640625 -2.65625 0.953125q-1.453125 0.328125 -2.640625 0.328125q-2.578125 0 -4.1875 -1.359375q-1.609375 -1.375 -1.609375 -3.03125q0 -2.015625 2.046875 -3.734375q2.0625 -1.734375 5.6875 -1.734375q1.453125 0 3.359375 0.3125l0 -0.765625q0 -0.71875 -0.625 -1.171875q-0.609375 -0.453125 -2.34375 -0.453125q-1.421875 0 -3.6875 0.5625q-0.84375 0.203125 -1.3125 0.203125q-0.640625 0 -1.09375 -0.453125q-0.4375 -0.46875 -0.4375 -1.1875q0 -0.40625 0.15625 -0.703125q0.15625 -0.296875 0.4375 -0.46875q0.28125 -0.1875 1.171875 -0.4375q1.1875 -0.328125 2.421875 -0.515625q1.234375 -0.203125 2.234375 -0.203125q2.984375 0 4.625 1.296875q1.65625 1.28125 1.65625 3.515625l0 6.59375l0.546875 0q1.15625 0 1.640625 0.453125q0.5 0.4375 0.5 1.15625q0 0.703125 -0.5 1.15625q-0.484375 0.4375 -1.640625 0.4375l-3.75 0zm0 -5.734375q-1.921875 -0.375 -3.546875 -0.375q-1.953125 0 -3.359375 0.953125q-0.875 0.609375 -0.875 1.234375q0 0.453125 0.421875 0.734375q0.78125 0.515625 2.140625 0.515625q1.15625 0 2.609375 -0.453125q1.46875 -0.453125 2.609375 -1.234375l0 -1.375zm15.65625 -8.453125l0 2.0q2.015625 -1.453125 3.171875 -1.9375q1.171875 -0.484375 2.1875 -0.484375q1.5625 0 3.03125 1.15625q1.0 0.78125 1.0 1.59375q0 0.6875 -0.484375 1.171875q-0.46875 0.46875 -1.140625 0.46875q-0.59375 0 -1.25 -0.59375q-0.65625 -0.59375 -1.171875 -0.59375q-0.671875 0 -2.015625 0.84375q-1.328125 0.84375 -3.328125 2.53125l0 4.828125l4.5625 0q1.15625 0 1.640625 0.453125q0.5 0.4375 0.5 1.15625q0 0.703125 -0.5 1.15625q-0.484375 0.4375 -1.640625 0.4375l-9.671875 0q-1.15625 0 -1.65625 -0.4375q-0.484375 -0.453125 -0.484375 -1.171875q0 -0.703125 0.484375 -1.140625q0.5 -0.453125 1.65625 -0.453125l1.90625 0l0 -7.78125l-1.15625 0q-1.15625 0 -1.65625 -0.4375q-0.484375 -0.453125 -0.484375 -1.171875q0 -0.703125 0.484375 -1.140625q0.5 -0.453125 1.65625 -0.453125l4.359375 0zm23.390625 0.953125l0 -0.953125l3.75 0q1.15625 0 1.640625 0.453125q0.5 0.4375 0.5 1.15625q0 0.703125 -0.5 1.15625q-0.484375 0.4375 -1.640625 0.4375l-0.546875 0l0 11.65625q0 1.6875 -0.71875 2.9375q-0.703125 1.265625 -2.171875 2.171875q-1.46875 0.90625 -3.3125 0.90625l-3.625 0q-1.15625 0 -1.65625 -0.453125q-0.484375 -0.4375 -0.484375 -1.140625q0 -0.71875 0.484375 -1.171875q0.5 -0.4375 1.65625 -0.4375l3.53125 0q1.46875 0 2.28125 -0.796875q0.8125 -0.796875 0.8125 -2.015625l0 -1.5625q-1.0625 0.6875 -2.171875 1.03125q-1.09375 0.34375 -2.25 0.34375q-3.265625 0 -5.46875 -2.171875q-2.203125 -2.1875 -2.203125 -5.390625q0 -3.21875 2.203125 -5.390625q2.203125 -2.1875 5.46875 -2.1875q1.21875 0 2.3125 0.359375q1.109375 0.34375 2.109375 1.0625zm-0.015625 6.140625q0 -1.765625 -1.3125 -3.0625q-1.296875 -1.296875 -3.125 -1.296875q-1.828125 0 -3.140625 1.296875q-1.296875 1.296875 -1.296875 3.0625q0 1.78125 1.296875 3.078125q1.3125 1.28125 3.140625 1.28125q1.828125 0 3.125 -1.28125q1.3125 -1.296875 1.3125 -3.078125zm23.734375 1.625l-13.140625 0q0.5 1.25 1.765625 2.015625q1.28125 0.765625 3.453125 0.765625q1.78125 0 4.734375 -0.765625q1.21875 -0.3125 1.6875 -0.3125q0.640625 0 1.078125 0.453125q0.4375 0.453125 0.4375 1.140625q0 0.625 -0.46875 1.0625q-0.625 0.578125 -3.046875 1.109375q-2.421875 0.515625 -4.65625 0.515625q-3.84375 0 -6.15625 -2.171875q-2.296875 -2.171875 -2.296875 -5.34375q0 -3.375 2.484375 -5.484375q2.5 -2.125 5.75 -2.125q1.953125 0 3.578125 0.6875q1.640625 0.6875 2.4375 1.484375q1.125 1.15625 1.859375 2.859375q0.5 1.1875 0.5 2.75l0 1.359375zm-3.546875 -3.203125q-0.734375 -1.375 -1.921875 -2.046875q-1.1875 -0.6875 -2.828125 -0.6875q-1.625 0 -2.8125 0.6875q-1.1875 0.671875 -1.9375 2.046875l9.5 0zm13.921875 -2.3125l0 6.421875q0 1.03125 0.421875 1.359375q0.65625 0.515625 2.34375 0.515625q2.453125 0 4.53125 -1.046875q0.796875 -0.40625 1.25 -0.40625q0.625 0 1.078125 0.46875q0.46875 0.46875 0.46875 1.140625q0 0.625 -0.5 1.078125q-0.765625 0.734375 -3.03125 1.359375q-2.25 0.609375 -3.796875 0.609375q-2.984375 0 -4.484375 -1.28125q-1.484375 -1.296875 -1.484375 -3.171875l0 -7.046875l-1.15625 0q-1.15625 0 -1.65625 -0.4375q-0.484375 -0.453125 -0.484375 -1.171875q0 -0.703125 0.484375 -1.140625q0.5 -0.453125 1.65625 -0.453125l1.15625 0l0 -2.890625q0 -1.15625 0.4375 -1.640625q0.453125 -0.5 1.171875 -0.5q0.703125 0 1.140625 0.5q0.453125 0.484375 0.453125 1.640625l0 2.890625l5.921875 0q1.15625 0 1.640625 0.453125q0.5 0.4375 0.5 1.15625q0 0.703125 -0.5 1.15625q-0.484375 0.4375 -1.640625 0.4375l-5.921875 0z" fill-rule="nonzero"></path><path fill="#d0e0e3" d="m751.43304 431.29135l-15.653503 62.614166l-511.55908 0l-15.653534 -62.614166z" fill-rule="nonzero"></path><path stroke="#a4c2f4" stroke-width="8.0" stroke-linejoin="round" stroke-linecap="butt" stroke-dasharray="64.0,24.0" d="m751.43304 431.29135l-15.653503 62.614166l-511.55908 0l-15.653534 -62.614166z" fill-rule="nonzero"></path><path fill="#000000" fill-opacity="0.0" d="m230.00525 427.6063l149.98425 0l0 69.98425l-149.98425 0z" fill-rule="nonzero"></path><path fill="#000000" d="m247.81775 456.34192l0 6.421875q0 1.03125 0.421875 1.359375q0.65625 0.515625 2.34375 0.515625q2.453125 0 4.53125 -1.046875q0.796875 -0.40625 1.25 -0.40625q0.625 0 1.078125 0.46875q0.46875 0.46875 0.46875 1.140625q0 0.625 -0.5 1.078125q-0.765625 0.734375 -3.03125 1.359375q-2.25 0.609375 -3.796875 0.609375q-2.984375 0 -4.484375 -1.28125q-1.484375 -1.296875 -1.484375 -3.171875l0 -7.046875l-1.15625 0q-1.15625 0 -1.65625 -0.4375q-0.484375 -0.453125 -0.484375 -1.171875q0 -0.703125 0.484375 -1.140625q0.5 -0.453125 1.65625 -0.453125l1.15625 0l0 -2.890625q0 -1.15625 0.4375 -1.640625q0.453125 -0.5 1.171875 -0.5q0.703125 0 1.140625 0.5q0.453125 0.484375 0.453125 1.640625l0 2.890625l5.921875 0q1.15625 0 1.640625 0.453125q0.5 0.4375 0.5 1.15625q0 0.703125 -0.5 1.15625q-0.484375 0.4375 -1.640625 0.4375l-5.921875 0zm28.03125 5.515625l-13.140625 0q0.5 1.25 1.765625 2.015625q1.28125 0.765625 3.453125 0.765625q1.78125 0 4.734375 -0.765625q1.21875 -0.3125 1.6875 -0.3125q0.640625 0 1.078125 0.453125q0.4375 0.453125 0.4375 1.140625q0 0.625 -0.46875 1.0625q-0.625 0.578125 -3.046875 1.109375q-2.421875 0.515625 -4.65625 0.515625q-3.84375 0 -6.15625 -2.171875q-2.296875 -2.171875 -2.296875 -5.34375q0 -3.375 2.484375 -5.484375q2.5 -2.125 5.75 -2.125q1.953125 0 3.578125 0.6875q1.640625 0.6875 2.4375 1.484375q1.125 1.15625 1.859375 2.859375q0.5 1.1875 0.5 2.75l0 1.359375zm-3.546875 -3.203125q-0.734375 -1.375 -1.921875 -2.046875q-1.1875 -0.6875 -2.828125 -0.6875q-1.625 0 -2.8125 0.6875q-1.1875 0.671875 -1.9375 2.046875l9.5 0zm18.171875 -1.765625q-0.78125 -0.484375 -1.640625 -0.71875q-0.859375 -0.25 -1.796875 -0.25q-1.859375 0 -2.953125 0.609375q-0.484375 0.265625 -0.484375 0.578125q0 0.359375 0.65625 0.703125q0.5 0.25 2.234375 0.484375q3.1875 0.4375 4.4375 0.875q1.640625 0.578125 2.53125 1.71875q0.890625 1.140625 0.890625 2.40625q0 1.71875 -1.515625 2.875q-2.171875 1.671875 -5.640625 1.671875q-1.390625 0 -2.578125 -0.25q-1.171875 -0.234375 -2.15625 -0.703125q-0.234375 0.203125 -0.5 0.3125q-0.265625 0.109375 -0.546875 0.109375q-0.75 0 -1.203125 -0.484375q-0.4375 -0.5 -0.4375 -1.65625l0 -1.078125q0 -1.15625 0.4375 -1.640625q0.453125 -0.5 1.171875 -0.5q0.578125 0 0.96875 0.328125q0.390625 0.3125 0.609375 1.09375q0.734375 0.625 1.765625 0.953125q1.03125 0.3125 2.375 0.3125q2.203125 0 3.421875 -0.6875q0.578125 -0.34375 0.578125 -0.71875q0 -0.625 -0.828125 -1.03125q-0.828125 -0.40625 -3.421875 -0.6875q-3.859375 -0.40625 -5.15625 -1.5625q-1.296875 -1.140625 -1.296875 -2.8125q0 -1.71875 1.453125 -2.859375q1.96875 -1.5625 5.15625 -1.5625q1.109375 0 2.125 0.21875q1.03125 0.203125 1.96875 0.640625q0.296875 -0.21875 0.546875 -0.328125q0.265625 -0.109375 0.484375 -0.109375q0.65625 0 1.09375 0.5q0.4375 0.484375 0.4375 1.640625l0 0.78125q0 1.046875 -0.25 1.421875q-0.5 0.71875 -1.359375 0.71875q-0.578125 0 -1.015625 -0.359375q-0.4375 -0.359375 -0.5625 -0.953125zm14.953125 -0.546875l0 6.421875q0 1.03125 0.421875 1.359375q0.65625 0.515625 2.34375 0.515625q2.453125 0 4.53125 -1.046875q0.796875 -0.40625 1.25 -0.40625q0.625 0 1.078125 0.46875q0.46875 0.46875 0.46875 1.140625q0 0.625 -0.5 1.078125q-0.765625 0.734375 -3.03125 1.359375q-2.25 0.609375 -3.796875 0.609375q-2.984375 0 -4.484375 -1.28125q-1.484375 -1.296875 -1.484375 -3.171875l0 -7.046875l-1.15625 0q-1.15625 0 -1.65625 -0.4375q-0.484375 -0.453125 -0.484375 -1.171875q0 -0.703125 0.484375 -1.140625q0.5 -0.453125 1.65625 -0.453125l1.15625 0l0 -2.890625q0 -1.15625 0.4375 -1.640625q0.453125 -0.5 1.171875 -0.5q0.703125 0 1.140625 0.5q0.453125 0.484375 0.453125 1.640625l0 2.890625l5.921875 0q1.15625 0 1.640625 0.453125q0.5 0.4375 0.5 1.15625q0 0.703125 -0.5 1.15625q-0.484375 0.4375 -1.640625 0.4375l-5.921875 0z" fill-rule="nonzero"></path><path fill="#f4cccc" d="m814.2861 168.55644l-58.480286 233.92125l-550.189 0l-58.480316 -233.92125z" fill-rule="nonzero"></path><path stroke="#980000" stroke-width="8.0" stroke-linejoin="round" stroke-linecap="butt" stroke-dasharray="32.0,24.0" d="m814.2861 168.55644l-58.480286 233.92125l-550.189 0l-58.480316 -233.92125z" fill-rule="nonzero"></path><path fill="#000000" fill-opacity="0.0" d="m168.58005 168.55643l149.98425 0l0 69.98425l-149.98425 0z" fill-rule="nonzero"></path><path fill="#000000" d="m182.2363 194.08893l0 0.90625q0.78125 -0.765625 1.40625 -1.046875q0.640625 -0.296875 1.46875 -0.296875q0.703125 0 1.390625 0.34375q0.6875 0.34375 1.34375 1.03125q0.828125 -0.6875 1.671875 -1.015625q0.859375 -0.34375 1.75 -0.34375q1.78125 0 2.890625 0.953125q1.46875 1.25 1.46875 3.28125l0 7.171875q1.0 0 1.484375 0.453125q0.484375 0.453125 0.484375 1.15625q0 0.703125 -0.484375 1.15625q-0.484375 0.4375 -1.640625 0.4375l-3.046875 0l0 -10.109375q0 -0.734375 -0.265625 -1.015625q-0.265625 -0.28125 -0.8125 -0.28125q-0.53125 0 -0.984375 0.28125q-0.578125 0.390625 -1.40625 1.46875l0 6.453125q1.0 0 1.484375 0.453125q0.484375 0.453125 0.484375 1.15625q0 0.703125 -0.484375 1.15625q-0.484375 0.4375 -1.640625 0.4375l-3.046875 0l0 -10.109375q0 -0.71875 -0.28125 -1.0q-0.265625 -0.296875 -0.8125 -0.296875q-0.5625 0 -1.109375 0.359375q-0.546875 0.34375 -1.3125 1.390625l0 6.453125q1.0 0 1.484375 0.453125q0.5 0.453125 0.5 1.15625q0 0.703125 -0.5 1.15625q-0.484375 0.4375 -1.640625 0.4375l-2.890625 0q-1.15625 0 -1.640625 -0.4375q-0.5 -0.453125 -0.5 -1.171875q0 -0.703125 0.484375 -1.140625q0.484375 -0.453125 1.5 -0.453125l0 -7.78125q-1.015625 0 -1.5 -0.453125q-0.484375 -0.453125 -0.484375 -1.15625q0 -0.703125 0.5 -1.140625q0.484375 -0.453125 1.640625 -0.453125l3.046875 0zm27.03125 14.1875l0 -0.75q-1.203125 0.640625 -2.65625 0.953125q-1.453125 0.328125 -2.640625 0.328125q-2.578125 0 -4.1875 -1.359375q-1.609375 -1.375 -1.609375 -3.03125q0 -2.015625 2.046875 -3.734375q2.0625 -1.734375 5.6875 -1.734375q1.453125 0 3.359375 0.3125l0 -0.765625q0 -0.71875 -0.625 -1.171875q-0.609375 -0.453125 -2.34375 -0.453125q-1.421875 0 -3.6875 0.5625q-0.84375 0.203125 -1.3125 0.203125q-0.640625 0 -1.09375 -0.453125q-0.4375 -0.46875 -0.4375 -1.1875q0 -0.40625 0.15625 -0.703125q0.15625 -0.296875 0.4375 -0.46875q0.28125 -0.1875 1.171875 -0.4375q1.1875 -0.328125 2.421875 -0.515625q1.234375 -0.203125 2.234375 -0.203125q2.984375 0 4.625 1.296875q1.65625 1.28125 1.65625 3.515625l0 6.59375l0.546875 0q1.15625 0 1.640625 0.453125q0.5 0.4375 0.5 1.15625q0 0.703125 -0.5 1.15625q-0.484375 0.4375 -1.640625 0.4375l-3.75 0zm0 -5.734375q-1.921875 -0.375 -3.546875 -0.375q-1.953125 0 -3.359375 0.953125q-0.875 0.609375 -0.875 1.234375q0 0.453125 0.421875 0.734375q0.78125 0.515625 2.140625 0.515625q1.15625 0 2.609375 -0.453125q1.46875 -0.453125 2.609375 -1.234375l0 -1.375zm17.46875 -14.53125l0 3.390625l-3.8125 0l0 -3.390625l3.8125 0zm0.4375 6.078125l0 10.984375l3.84375 0q1.15625 0 1.640625 0.453125q0.5 0.4375 0.5 1.15625q0 0.703125 -0.5 1.15625q-0.484375 0.4375 -1.640625 0.4375l-10.890625 0q-1.15625 0 -1.65625 -0.4375q-0.484375 -0.453125 -0.484375 -1.171875q0 -0.703125 0.484375 -1.140625q0.5 -0.453125 1.65625 -0.453125l3.84375 0l0 -7.78125l-2.578125 0q-1.140625 0 -1.640625 -0.4375q-0.5 -0.453125 -0.5 -1.171875q0 -0.703125 0.484375 -1.140625q0.5 -0.453125 1.65625 -0.453125l5.78125 0zm14.375 0l0 1.078125q0.875 -0.75 1.921875 -1.125q1.0625 -0.375 2.296875 -0.375q2.84375 0 4.5 1.765625q1.3125 1.40625 1.3125 3.6875l0 5.953125q1.015625 0 1.5 0.453125q0.484375 0.4375 0.484375 1.15625q0 0.703125 -0.5 1.15625q-0.484375 0.4375 -1.640625 0.4375l-2.890625 0q-1.15625 0 -1.65625 -0.4375q-0.484375 -0.453125 -0.484375 -1.171875q0 -0.703125 0.484375 -1.140625q0.484375 -0.453125 1.5 -0.453125l0 -6.046875q0 -1.046875 -0.5625 -1.53125q-0.734375 -0.625 -2.203125 -0.625q-1.109375 0 -1.953125 0.4375q-0.828125 0.421875 -2.109375 1.8125l0 5.953125q1.234375 0 1.59375 0.234375q0.765625 0.46875 0.765625 1.375q0 0.703125 -0.5 1.15625q-0.484375 0.4375 -1.640625 0.4375l-3.640625 0q-1.15625 0 -1.65625 -0.4375q-0.484375 -0.453125 -0.484375 -1.171875q0 -0.875 0.75 -1.359375q0.375 -0.234375 1.609375 -0.234375l0 -7.78125q-1.015625 0 -1.5 -0.453125q-0.484375 -0.453125 -0.484375 -1.15625q0 -0.703125 0.484375 -1.140625q0.5 -0.453125 1.65625 -0.453125l3.046875 0z" fill-rule="nonzero"></path></g></svg>

