<?xml version="1.0" standalone="yes"?>

<svg version="1.1" viewBox="0.0 0.0 960.0 720.0" fill="none" stroke="none" stroke-linecap="square" stroke-miterlimit="10" xmlns="http://www.w3.org/2000/svg" xmlns:xlink="http://www.w3.org/1999/xlink"><clipPath id="p.0"><path d="m0 0l960.0 0l0 720.0l-960.0 0l0 -720.0z" clip-rule="nonzero"></path></clipPath><g clip-path="url(#p.0)"><path fill="#000000" fill-opacity="0.0" d="m0 0l960.0 0l0 720.0l-960.0 0z" fill-rule="nonzero"></path><path fill="#f4cccc" d="m955.2441 193.37401l-83.31494 333.25983l-783.8583 0l-83.314964 -333.25983z" fill-rule="nonzero"></path><path stroke="#980000" stroke-width="8.0" stroke-linejoin="round" stroke-linecap="butt" stroke-dasharray="32.0,24.0" d="m955.2441 193.37401l-83.31494 333.25983l-783.8583 0l-83.314964 -333.25983z" fill-rule="nonzero"></path><path fill="#000000" fill-opacity="0.0" d="m35.306564 193.36533l213.6693 0l0 99.71652l-213.6693 0z" fill-rule="nonzero"></path><path fill="#000000" d="m50.13469 223.03094l0 1.125q0.96875 -0.953125 1.75 -1.3125q0.796875 -0.359375 1.84375 -0.359375q0.875 0 1.734375 0.4375q0.859375 0.421875 1.671875 1.28125q1.046875 -0.859375 2.109375 -1.28125q1.0625 -0.421875 2.171875 -0.421875q2.234375 0 3.609375 1.1875q1.84375 1.5625 1.84375 4.109375l0 8.96875q1.25 0 1.84375 0.5625q0.609375 0.5625 0.609375 1.4375q0 0.890625 -0.609375 1.453125q-0.59375 0.546875 -2.046875 0.546875l-3.796875 0l0 -12.640625q0 -0.921875 -0.34375 -1.265625q-0.328125 -0.359375 -1.015625 -0.359375q-0.65625 0 -1.21875 0.359375q-0.734375 0.484375 -1.765625 1.828125l0 8.078125q1.25 0 1.859375 0.5625q0.609375 0.5625 0.609375 1.4375q0 0.890625 -0.609375 1.453125q-0.609375 0.546875 -2.046875 0.546875l-3.8125 0l0 -12.640625q0 -0.890625 -0.34375 -1.25q-0.34375 -0.375 -1.03125 -0.375q-0.703125 0 -1.390625 0.453125q-0.671875 0.4375 -1.625 1.734375l0 8.078125q1.25 0 1.859375 0.5625q0.609375 0.5625 0.609375 1.4375q0 0.890625 -0.609375 1.453125q-0.609375 0.546875 -2.0625 0.546875l-3.609375 0q-1.453125 0 -2.0625 -0.546875q-0.625 -0.5625 -0.625 -1.46875q0 -0.875 0.609375 -1.421875q0.609375 -0.5625 1.875 -0.5625l0 -9.734375q-1.265625 0 -1.875 -0.5625q-0.609375 -0.5625 -0.609375 -1.453125q0 -0.875 0.625 -1.421875q0.609375 -0.5625 2.0625 -0.5625l3.8125 0zm33.785156 17.734375l0 -0.9375q-1.5 0.796875 -3.328125 1.203125q-1.8125 0.40625 -3.296875 0.40625q-3.21875 0 -5.234375 -1.703125q-2.015625 -1.71875 -2.015625 -3.796875q0 -2.515625 2.5625 -4.671875q2.578125 -2.15625 7.109375 -2.15625q1.8125 0 4.203125 0.390625l0 -0.96875q0 -0.890625 -0.78125 -1.453125q-0.765625 -0.578125 -2.9375 -0.578125q-1.765625 0 -4.609375 0.703125q-1.046875 0.265625 -1.640625 0.265625q-0.796875 0 -1.359375 -0.578125q-0.546875 -0.578125 -0.546875 -1.484375q0 -0.5 0.1875 -0.875q0.203125 -0.375 0.546875 -0.59375q0.359375 -0.21875 1.46875 -0.53125q1.484375 -0.421875 3.03125 -0.65625q1.546875 -0.25 2.796875 -0.25q3.71875 0 5.78125 1.609375q2.0625 1.609375 2.0625 4.40625l0 8.25l0.6875 0q1.4375 0 2.046875 0.5625q0.625 0.546875 0.625 1.4375q0 0.890625 -0.625 1.453125q-0.609375 0.546875 -2.046875 0.546875l-4.6875 0zm0 -7.171875q-2.40625 -0.46875 -4.4375 -0.46875q-2.4375 0 -4.203125 1.1875q-1.09375 0.765625 -1.09375 1.546875q0 0.5625 0.53125 0.921875q0.984375 0.640625 2.671875 0.640625q1.453125 0 3.28125 -0.5625q1.828125 -0.5625 3.25 -1.546875l0 -1.71875zm21.832031 -18.15625l0 4.234375l-4.765625 0l0 -4.234375l4.765625 0zm0.546875 7.59375l0 13.734375l4.8125 0q1.4375 0 2.046875 0.5625q0.625 0.546875 0.625 1.4375q0 0.890625 -0.625 1.453125q-0.609375 0.546875 -2.046875 0.546875l-13.625 0q-1.4375 0 -2.0625 -0.546875q-0.609375 -0.5625 -0.609375 -1.46875q0 -0.875 0.609375 -1.421875q0.625 -0.5625 2.0625 -0.5625l4.8125 0l0 -9.734375l-3.21875 0q-1.4375 0 -2.0625 -0.546875q-0.625 -0.5625 -0.625 -1.46875q0 -0.875 0.609375 -1.421875q0.625 -0.5625 2.078125 -0.5625l7.21875 0zm17.972656 0l0 1.34375q1.09375 -0.9375 2.40625 -1.40625q1.328125 -0.46875 2.859375 -0.46875q3.5625 0 5.625 2.203125q1.640625 1.765625 1.640625 4.609375l0 7.453125q1.28125 0 1.875 0.5625q0.609375 0.546875 0.609375 1.4375q0 0.890625 -0.625 1.453125q-0.609375 0.546875 -2.046875 0.546875l-3.609375 0q-1.453125 0 -2.078125 -0.546875q-0.609375 -0.5625 -0.609375 -1.46875q0 -0.875 0.609375 -1.421875q0.609375 -0.5625 1.875 -0.5625l0 -7.5625q0 -1.3125 -0.703125 -1.921875q-0.921875 -0.78125 -2.75 -0.78125q-1.390625 0 -2.4375 0.546875q-1.046875 0.53125 -2.640625 2.265625l0 7.453125q1.546875 0 1.984375 0.28125q0.96875 0.59375 0.96875 1.71875q0 0.890625 -0.625 1.453125q-0.609375 0.546875 -2.0625 0.546875l-4.546875 0q-1.4375 0 -2.0625 -0.546875q-0.609375 -0.5625 -0.609375 -1.46875q0 -1.09375 0.9375 -1.703125q0.46875 -0.28125 2.015625 -0.28125l0 -9.734375q-1.28125 0 -1.890625 -0.5625q-0.59375 -0.5625 -0.59375 -1.453125q0 -0.875 0.609375 -1.421875q0.625 -0.5625 2.0625 -0.5625l3.8125 0z" fill-rule="nonzero"></path><path fill="#c9daf8" d="m133.39998 503.41043l-81.81593 -226.61768l409.07968 0l0 226.61768z" fill-rule="nonzero"></path><path stroke="#0000ff" stroke-width="8.0" stroke-linejoin="round" stroke-linecap="butt" stroke-dasharray="32.0,24.0" d="m133.39998 503.41043l-81.81593 -226.61768l409.07968 0l0 226.61768z" fill-rule="nonzero"></path><path fill="#000000" fill-opacity="0.0" d="m98.38975 272.06433l141.82678 0l0 70.2677l-141.82678 0z" fill-rule="nonzero"></path><path fill="#000000" d="m123.421 294.1362l0 4.234375l-4.78125 0l0 -4.234375l4.78125 0zm-1.640625 11.59375l-8.15625 0q-1.453125 0 -2.0625 -0.546875q-0.609375 -0.5625 -0.609375 -1.46875q0 -0.875 0.609375 -1.421875q0.609375 -0.5625 2.0625 -0.5625l12.171875 0l0 18.578125q0 2.109375 -0.890625 3.671875q-0.890625 1.578125 -2.734375 2.703125q-1.828125 1.140625 -4.140625 1.140625l-4.53125 0q-1.4375 0 -2.0625 -0.5625q-0.609375 -0.546875 -0.609375 -1.421875q0 -0.90625 0.609375 -1.46875q0.625 -0.546875 2.0625 -0.546875l4.421875 0q1.828125 0 2.84375 -1.0q1.015625 -1.0 1.015625 -2.515625l0 -14.578125zm25.222649 13.734375l0 -0.9375q-1.5 0.796875 -3.328125 1.203125q-1.8125 0.40625 -3.296875 0.40625q-3.21875 0 -5.234375 -1.703125q-2.015625 -1.71875 -2.015625 -3.796875q0 -2.515625 2.5625 -4.671875q2.578125 -2.15625 7.109375 -2.15625q1.8125 0 4.203125 0.390625l0 -0.96875q0 -0.890625 -0.78125 -1.453125q-0.765625 -0.578125 -2.9375 -0.578125q-1.765625 0 -4.609375 0.703125q-1.046875 0.265625 -1.640625 0.265625q-0.796875 0 -1.359375 -0.578125q-0.546875 -0.578125 -0.546875 -1.484375q0 -0.5 0.1875 -0.875q0.203125 -0.375 0.546875 -0.59375q0.359375 -0.21875 1.46875 -0.53125q1.484375 -0.421875 3.03125 -0.65625q1.546875 -0.25 2.796875 -0.25q3.71875 0 5.78125 1.609375q2.0625 1.609375 2.0625 4.40625l0 8.25l0.6875 0q1.4375 0 2.046875 0.5625q0.625 0.546875 0.625 1.4375q0 0.890625 -0.625 1.453125q-0.609375 0.546875 -2.046875 0.546875l-4.6875 0zm0 -7.171875q-2.40625 -0.46875 -4.4375 -0.46875q-2.4375 0 -4.203125 1.1875q-1.09375 0.765625 -1.09375 1.546875q0 0.5625 0.53125 0.921875q0.984375 0.640625 2.671875 0.640625q1.453125 0 3.28125 -0.5625q1.828125 -0.5625 3.25 -1.546875l0 -1.71875zm20.425781 2.3125l4.3125 -8.875q-1.59375 0 -2.046875 -0.265625q-0.96875 -0.609375 -0.96875 -1.75q0 -0.875 0.609375 -1.421875q0.609375 -0.5625 2.0625 -0.5625l5.484375 0q1.453125 0 2.0625 0.5625q0.609375 0.546875 0.609375 1.453125q0 0.875 -0.609375 1.4375q-0.609375 0.546875 -2.0625 0.546875l-0.65625 0l-6.703125 13.734375l-4.1875 0l-6.6875 -13.734375l-0.578125 0q-1.4375 0 -2.0625 -0.546875q-0.609375 -0.5625 -0.609375 -1.46875q0 -0.875 0.609375 -1.421875q0.625 -0.5625 2.0625 -0.5625l5.375 0q1.421875 0 2.03125 0.5625q0.625 0.546875 0.625 1.453125q0 1.109375 -0.9375 1.6875q-0.46875 0.296875 -2.09375 0.296875l4.359375 8.875zm27.582031 4.859375l0 -0.9375q-1.5 0.796875 -3.328125 1.203125q-1.8125 0.40625 -3.296875 0.40625q-3.21875 0 -5.234375 -1.703125q-2.015625 -1.71875 -2.015625 -3.796875q0 -2.515625 2.5625 -4.671875q2.578125 -2.15625 7.109375 -2.15625q1.8125 0 4.203125 0.390625l0 -0.96875q0 -0.890625 -0.78125 -1.453125q-0.765625 -0.578125 -2.9375 -0.578125q-1.765625 0 -4.609375 0.703125q-1.046875 0.265625 -1.640625 0.265625q-0.796875 0 -1.359375 -0.578125q-0.546875 -0.578125 -0.546875 -1.484375q0 -0.5 0.1875 -0.875q0.203125 -0.375 0.546875 -0.59375q0.359375 -0.21875 1.46875 -0.53125q1.484375 -0.421875 3.03125 -0.65625q1.546875 -0.25 2.796875 -0.25q3.71875 0 5.78125 1.609375q2.0625 1.609375 2.0625 4.40625l0 8.25l0.6875 0q1.4375 0 2.046875 0.5625q0.625 0.546875 0.625 1.4375q0 0.890625 -0.625 1.453125q-0.609375 0.546875 -2.046875 0.546875l-4.6875 0zm0 -7.171875q-2.40625 -0.46875 -4.4375 -0.46875q-2.4375 0 -4.203125 1.1875q-1.09375 0.765625 -1.09375 1.546875q0 0.5625 0.53125 0.921875q0.984375 0.640625 2.671875 0.640625q1.453125 0 3.28125 -0.5625q1.828125 -0.5625 3.25 -1.546875l0 -1.71875z" fill-rule="nonzero"></path><path fill="#fce5cd" d="m831.7122 503.4123l81.81598 -285.64377l-409.0797 0l0 285.64377z" fill-rule="nonzero"></path><path stroke="#ff9900" stroke-width="8.0" stroke-linejoin="round" stroke-linecap="butt" stroke-dasharray="64.0,24.0" d="m831.7122 503.4123l81.81598 -285.64377l-409.0797 0l0 285.64377z" fill-rule="nonzero"></path><path fill="#000000" fill-opacity="0.0" d="m522.67 206.29933l295.9685 0l0 79.842514l-295.9685 0z" fill-rule="nonzero"></path><path fill="#000000" d="m542.84186 235.96495l0 2.5q2.515625 -1.8125 3.96875 -2.421875q1.46875 -0.609375 2.734375 -0.609375q1.953125 0 3.78125 1.453125q1.25 0.96875 1.25 1.984375q0 0.859375 -0.59375 1.453125q-0.59375 0.59375 -1.4375 0.59375q-0.734375 0 -1.5625 -0.734375q-0.8125 -0.75 -1.453125 -0.75q-0.84375 0 -2.515625 1.0625q-1.671875 1.046875 -4.171875 3.15625l0 6.046875l5.703125 0q1.453125 0 2.0625 0.5625q0.609375 0.546875 0.609375 1.4375q0 0.890625 -0.609375 1.453125q-0.609375 0.546875 -2.0625 0.546875l-12.09375 0q-1.4375 0 -2.0625 -0.546875q-0.609375 -0.5625 -0.609375 -1.46875q0 -0.875 0.609375 -1.421875q0.625 -0.5625 2.0625 -0.5625l2.390625 0l0 -9.734375l-1.453125 0q-1.4375 0 -2.0625 -0.546875q-0.609375 -0.5625 -0.609375 -1.46875q0 -0.875 0.609375 -1.421875q0.625 -0.5625 2.0625 -0.5625l5.453125 0zm34.878906 10.890625l-16.421875 0q0.625 1.5625 2.21875 2.53125q1.59375 0.953125 4.3125 0.953125q2.21875 0 5.90625 -0.953125q1.53125 -0.390625 2.109375 -0.390625q0.8125 0 1.359375 0.5625q0.546875 0.5625 0.546875 1.421875q0 0.78125 -0.59375 1.328125q-0.78125 0.71875 -3.8125 1.375q-3.015625 0.65625 -5.8125 0.65625q-4.8125 0 -7.6875 -2.703125q-2.875 -2.71875 -2.875 -6.6875q0 -4.21875 3.109375 -6.859375q3.109375 -2.65625 7.171875 -2.65625q2.453125 0 4.484375 0.859375q2.046875 0.859375 3.046875 1.859375q1.40625 1.4375 2.3125 3.578125q0.625 1.484375 0.625 3.4375l0 1.6875zm-4.421875 -4.0q-0.921875 -1.71875 -2.40625 -2.5625q-1.484375 -0.859375 -3.53125 -0.859375q-2.03125 0 -3.515625 0.859375q-1.484375 0.84375 -2.421875 2.5625l11.875 0zm22.707031 -2.203125q-0.96875 -0.609375 -2.046875 -0.90625q-1.078125 -0.3125 -2.25 -0.3125q-2.328125 0 -3.6875 0.765625q-0.609375 0.328125 -0.609375 0.71875q0 0.453125 0.828125 0.890625q0.625 0.3125 2.78125 0.59375q3.984375 0.546875 5.546875 1.09375q2.0625 0.734375 3.171875 2.15625q1.109375 1.421875 1.109375 3.0q0 2.15625 -1.890625 3.59375q-2.71875 2.09375 -7.046875 2.09375q-1.75 0 -3.21875 -0.296875q-1.46875 -0.296875 -2.703125 -0.890625q-0.296875 0.25 -0.625 0.390625q-0.328125 0.140625 -0.6875 0.140625q-0.9375 0 -1.5 -0.609375q-0.546875 -0.625 -0.546875 -2.078125l0 -1.34375q0 -1.4375 0.546875 -2.046875q0.5625 -0.625 1.46875 -0.625q0.71875 0 1.203125 0.40625q0.484375 0.390625 0.765625 1.375q0.921875 0.78125 2.203125 1.1875q1.296875 0.390625 2.96875 0.390625q2.75 0 4.28125 -0.859375q0.71875 -0.4375 0.71875 -0.90625q0 -0.78125 -1.03125 -1.28125q-1.03125 -0.515625 -4.28125 -0.859375q-4.828125 -0.515625 -6.4375 -1.953125q-1.625 -1.421875 -1.625 -3.515625q0 -2.15625 1.8125 -3.578125q2.46875 -1.953125 6.453125 -1.953125q1.375 0 2.65625 0.265625q1.28125 0.265625 2.453125 0.8125q0.375 -0.28125 0.6875 -0.40625q0.328125 -0.140625 0.609375 -0.140625q0.8125 0 1.359375 0.625q0.546875 0.609375 0.546875 2.046875l0 0.984375q0 1.296875 -0.3125 1.765625q-0.625 0.90625 -1.703125 0.90625q-0.71875 0 -1.265625 -0.453125q-0.546875 -0.453125 -0.703125 -1.1875zm30.082031 4.515625q0 2.296875 -1.28125 4.453125q-1.28125 2.15625 -3.8125 3.4375q-2.53125 1.28125 -5.28125 1.28125q-2.734375 0 -5.234375 -1.25q-2.5 -1.265625 -3.8125 -3.4375q-1.296875 -2.171875 -1.296875 -4.53125q0 -2.40625 1.328125 -4.71875q1.328125 -2.3125 3.8125 -3.640625q2.484375 -1.328125 5.203125 -1.328125q2.734375 0 5.265625 1.359375q2.53125 1.359375 3.8125 3.65625q1.296875 2.296875 1.296875 4.71875zm-4.0 0.015625q0 -1.9375 -1.390625 -3.5625q-1.890625 -2.1875 -4.984375 -2.1875q-2.71875 0 -4.53125 1.75q-1.8125 1.734375 -1.8125 4.015625q0 1.875 1.828125 3.515625q1.84375 1.625 4.515625 1.625q2.703125 0 4.53125 -1.625q1.84375 -1.640625 1.84375 -3.53125zm26.113281 -9.21875l0 13.734375q1.265625 0 1.859375 0.5625q0.609375 0.5625 0.609375 1.4375q0 0.890625 -0.609375 1.453125q-0.609375 0.546875 -2.0625 0.546875l-3.8125 0l0 -0.921875q-1.71875 0.78125 -3.28125 1.171875q-1.5625 0.390625 -2.96875 0.390625q-1.96875 0 -3.421875 -0.828125q-1.4375 -0.828125 -2.28125 -2.296875q-0.59375 -1.046875 -0.59375 -2.640625l0 -8.609375l-0.6875 0q-1.453125 0 -2.0625 -0.546875q-0.609375 -0.5625 -0.609375 -1.46875q0 -0.875 0.609375 -1.421875q0.609375 -0.5625 2.0625 -0.5625l4.6875 0l0 11.90625q0 1.28125 0.609375 1.875q0.625 0.59375 1.890625 0.59375q1.203125 0 2.59375 -0.46875q1.40625 -0.484375 3.453125 -1.734375l0 -8.171875l-1.4375 0q-1.453125 0 -2.0625 -0.546875q-0.609375 -0.5625 -0.609375 -1.46875q0 -0.875 0.609375 -1.421875q0.609375 -0.5625 2.0625 -0.5625l5.453125 0zm14.660156 0l0 2.5q2.515625 -1.8125 3.96875 -2.421875q1.46875 -0.609375 2.734375 -0.609375q1.953125 0 3.78125 1.453125q1.25 0.96875 1.25 1.984375q0 0.859375 -0.59375 1.453125q-0.59375 0.59375 -1.4375 0.59375q-0.734375 0 -1.5625 -0.734375q-0.8125 -0.75 -1.453125 -0.75q-0.84375 0 -2.515625 1.0625q-1.671875 1.046875 -4.171875 3.15625l0 6.046875l5.703125 0q1.453125 0 2.0625 0.5625q0.609375 0.546875 0.609375 1.4375q0 0.890625 -0.609375 1.453125q-0.609375 0.546875 -2.0625 0.546875l-12.09375 0q-1.4375 0 -2.0625 -0.546875q-0.609375 -0.5625 -0.609375 -1.46875q0 -0.875 0.609375 -1.421875q0.625 -0.5625 2.0625 -0.5625l2.390625 0l0 -9.734375l-1.453125 0q-1.4375 0 -2.0625 -0.546875q-0.609375 -0.5625 -0.609375 -1.46875q0 -0.875 0.609375 -1.421875q0.625 -0.5625 2.0625 -0.5625l5.453125 0zm31.082031 0.71875q0.71875 -0.6875 1.484375 -0.6875q0.859375 0 1.40625 0.625q0.5625 0.609375 0.5625 2.03125l0 2.578125q0 1.453125 -0.5625 2.0625q-0.546875 0.59375 -1.453125 0.59375q-0.8125 0 -1.390625 -0.46875q-0.40625 -0.34375 -0.640625 -1.421875q-0.234375 -1.09375 -1.125 -1.625q-1.59375 -0.9375 -4.046875 -0.9375q-2.828125 0 -4.546875 1.671875q-1.703125 1.65625 -1.703125 4.1875q0 2.34375 1.640625 3.703125q1.640625 1.359375 5.453125 1.359375q2.5 0 4.078125 -0.5q0.9375 -0.3125 1.765625 -1.0625q0.84375 -0.765625 1.53125 -0.765625q0.828125 0 1.421875 0.609375q0.59375 0.609375 0.59375 1.421875q0 1.328125 -1.8125 2.53125q-2.703125 1.78125 -7.890625 1.78125q-4.671875 0 -7.265625 -1.9375q-3.515625 -2.609375 -3.515625 -7.109375q0 -4.28125 2.84375 -7.078125q2.859375 -2.8125 7.4375 -2.8125q1.671875 0 3.09375 0.3125q1.421875 0.3125 2.640625 0.9375zm27.800781 10.171875l-16.421875 0q0.625 1.5625 2.21875 2.53125q1.59375 0.953125 4.3125 0.953125q2.21875 0 5.90625 -0.953125q1.53125 -0.390625 2.109375 -0.390625q0.8125 0 1.359375 0.5625q0.546875 0.5625 0.546875 1.421875q0 0.78125 -0.59375 1.328125q-0.78125 0.71875 -3.8125 1.375q-3.015625 0.65625 -5.8125 0.65625q-4.8125 0 -7.6875 -2.703125q-2.875 -2.71875 -2.875 -6.6875q0 -4.21875 3.109375 -6.859375q3.109375 -2.65625 7.171875 -2.65625q2.453125 0 4.484375 0.859375q2.046875 0.859375 3.046875 1.859375q1.40625 1.4375 2.3125 3.578125q0.625 1.484375 0.625 3.4375l0 1.6875zm-4.421875 -4.0q-0.921875 -1.71875 -2.40625 -2.5625q-1.484375 -0.859375 -3.53125 -0.859375q-2.03125 0 -3.515625 0.859375q-1.484375 0.84375 -2.421875 2.5625l11.875 0zm22.707031 -2.203125q-0.96875 -0.609375 -2.046875 -0.90625q-1.078125 -0.3125 -2.25 -0.3125q-2.328125 0 -3.6875 0.765625q-0.609375 0.328125 -0.609375 0.71875q0 0.453125 0.828125 0.890625q0.625 0.3125 2.78125 0.59375q3.984375 0.546875 5.546875 1.09375q2.0625 0.734375 3.171875 2.15625q1.109375 1.421875 1.109375 3.0q0 2.15625 -1.890625 3.59375q-2.71875 2.09375 -7.046875 2.09375q-1.75 0 -3.21875 -0.296875q-1.46875 -0.296875 -2.703125 -0.890625q-0.296875 0.25 -0.625 0.390625q-0.328125 0.140625 -0.6875 0.140625q-0.9375 0 -1.5 -0.609375q-0.546875 -0.625 -0.546875 -2.078125l0 -1.34375q0 -1.4375 0.546875 -2.046875q0.5625 -0.625 1.46875 -0.625q0.71875 0 1.203125 0.40625q0.484375 0.390625 0.765625 1.375q0.921875 0.78125 2.203125 1.1875q1.296875 0.390625 2.96875 0.390625q2.75 0 4.28125 -0.859375q0.71875 -0.4375 0.71875 -0.90625q0 -0.78125 -1.03125 -1.28125q-1.03125 -0.515625 -4.28125 -0.859375q-4.828125 -0.515625 -6.4375 -1.953125q-1.625 -1.421875 -1.625 -3.515625q0 -2.15625 1.8125 -3.578125q2.46875 -1.953125 6.453125 -1.953125q1.375 0 2.65625 0.265625q1.28125 0.265625 2.453125 0.8125q0.375 -0.28125 0.6875 -0.40625q0.328125 -0.140625 0.609375 -0.140625q0.8125 0 1.359375 0.625q0.546875 0.609375 0.546875 2.046875l0 0.984375q0 1.296875 -0.3125 1.765625q-0.625 0.90625 -1.703125 0.90625q-0.71875 0 -1.265625 -0.453125q-0.546875 -0.453125 -0.703125 -1.1875z" fill-rule="nonzero"></path><path fill="#cfe2f3" d="m141.14043 347.96976l180.56694 0l0 117.63733l-23.528046 23.528046l-157.0389 0z" fill-rule="nonzero"></path><path fill="#a5b4c2" d="m298.17932 489.13513l4.7056274 -18.822449l18.822418 -4.705597z" fill-rule="nonzero"></path><path fill="#000000" fill-opacity="0.0" d="m298.17932 489.13513l4.7056274 -18.822449l18.822418 -4.705597l-23.528046 23.528046l-157.0389 0l0 -141.16537l180.56694 0l0 117.63733" fill-rule="nonzero"></path><path stroke="#000000" stroke-width="1.0" stroke-linejoin="round" stroke-linecap="butt" d="m298.17932 489.13513l4.7056274 -18.822449l18.822418 -4.705597l-23.528046 23.528046l-157.0389 0l0 -141.16537l180.56694 0l0 117.63733" fill-rule="nonzero"></path><path fill="#cfe2f3" d="m336.9555 342.34222l59.874023 0l0 81.54837l-9.979218 9.979187l-49.894806 0z" fill-rule="nonzero"></path><path fill="#a5b4c2" d="m386.8503 433.86978l1.9958496 -7.9833374l7.983368 -1.9958496z" fill-rule="nonzero"></path><path fill="#000000" fill-opacity="0.0" d="m386.8503 433.86978l1.9958496 -7.9833374l7.983368 -1.9958496l-9.979218 9.979187l-49.894806 0l0 -91.52756l59.874023 0l0 81.54837" fill-rule="nonzero"></path><path stroke="#000000" stroke-width="1.0" stroke-linejoin="round" stroke-linecap="butt" d="m386.8503 433.86978l1.9958496 -7.9833374l7.983368 -1.9958496l-9.979218 9.979187l-49.894806 0l0 -91.52756l59.874023 0l0 81.54837" fill-rule="nonzero"></path><path fill="#cfe2f3" d="m360.03983 364.57095l59.874023 0l0 81.54834l-9.979218 9.979218l-49.894806 0z" fill-rule="nonzero"></path><path fill="#a5b4c2" d="m409.93463 456.0985l1.9958496 -7.983368l7.983368 -1.9958496z" fill-rule="nonzero"></path><path fill="#000000" fill-opacity="0.0" d="m409.93463 456.0985l1.9958496 -7.983368l7.983368 -1.9958496l-9.979218 9.979218l-49.894806 0l0 -91.52756l59.874023 0l0 81.54834" fill-rule="nonzero"></path><path stroke="#000000" stroke-width="1.0" stroke-linejoin="round" stroke-linecap="butt" d="m409.93463 456.0985l1.9958496 -7.983368l7.983368 -1.9958496l-9.979218 9.979218l-49.894806 0l0 -91.52756l59.874023 0l0 81.54834" fill-rule="nonzero"></path><path fill="#cfe2f3" d="m383.07663 391.00168l59.874023 0l0 81.54834l-9.979218 9.979218l-49.894806 0z" fill-rule="nonzero"></path><path fill="#a5b4c2" d="m432.97144 482.52924l1.9958496 -7.983368l7.983368 -1.9958496z" fill-rule="nonzero"></path><path fill="#000000" fill-opacity="0.0" d="m432.97144 482.52924l1.9958496 -7.983368l7.983368 -1.9958496l-9.979218 9.979218l-49.894806 0l0 -91.52756l59.874023 0l0 81.54834" fill-rule="nonzero"></path><path stroke="#000000" stroke-width="1.0" stroke-linejoin="round" stroke-linecap="butt" d="m432.97144 482.52924l1.9958496 -7.983368l7.983368 -1.9958496l-9.979218 9.979218l-49.894806 0l0 -91.52756l59.874023 0l0 81.54834" fill-rule="nonzero"></path><path fill="#000000" fill-opacity="0.0" d="m141.14197 336.3106l180.56693 0l0 136.37796l-180.56693 0z" fill-rule="nonzero"></path><path fill="#000000" d="m160.2826 364.47562l-5.84375 0l-0.578125 1.46875l0.578125 0q0.875 0 1.234375 0.34375q0.375 0.328125 0.375 0.859375q0 0.53125 -0.375 0.875q-0.359375 0.328125 -1.234375 0.328125l-3.234375 0q-0.859375 0 -1.234375 -0.328125q-0.375 -0.34375 -0.375 -0.875q0 -0.546875 0.390625 -0.875q0.390625 -0.34375 1.28125 -0.328125l3.78125 -9.390625l-1.578125 0q-0.859375 0 -1.234375 -0.328125q-0.375 -0.34375 -0.375 -0.890625q0 -0.53125 0.375 -0.859375q0.375 -0.34375 1.234375 -0.34375l5.1875 0.015625l4.78125 11.796875q0.84375 0 1.125 0.1875q0.53125 0.390625 0.53125 1.015625q0 0.53125 -0.359375 0.875q-0.359375 0.328125 -1.234375 0.328125l-3.234375 0q-0.859375 0 -1.234375 -0.328125q-0.375 -0.34375 -0.375 -0.875q0 -0.53125 0.375 -0.859375q0.375 -0.34375 1.234375 -0.34375l0.59375 0l-0.578125 -1.46875zm-1.0 -2.390625l-1.9375 -4.765625l-1.9375 4.765625l3.875 0zm9.480469 4.9375l0 3.9375l1.4375 0q0.875 0 1.234375 0.328125q0.375 0.34375 0.375 0.890625q0 0.515625 -0.375 0.84375q-0.359375 0.34375 -1.234375 0.34375l-4.25 0q-0.859375 0 -1.234375 -0.34375q-0.375 -0.328125 -0.375 -0.84375q0 -0.546875 0.375 -0.890625q0.375 -0.328125 1.234375 -0.328125l0.40625 0l0 -10.84375l-0.40625 0q-0.859375 0 -1.234375 -0.328125q-0.375 -0.34375 -0.375 -0.890625q0 -0.515625 0.375 -0.84375q0.375 -0.34375 1.234375 -0.34375l2.8125 0l0 0.8125q0.84375 -0.5625 1.75 -0.84375q0.90625 -0.28125 1.84375 -0.28125q2.46875 0 4.203125 1.671875q1.734375 1.65625 1.734375 3.8125q0 2.390625 -2.046875 3.9375q-1.71875 1.28125 -3.859375 1.28125q-0.921875 0 -1.828125 -0.265625q-0.90625 -0.265625 -1.796875 -0.8125zm7.125 -4.125q0 -0.5 -0.40625 -1.28125q-0.390625 -0.78125 -1.21875 -1.296875q-0.828125 -0.53125 -1.9375 -0.53125q-1.796875 0 -2.84375 1.359375q-0.71875 0.921875 -0.71875 1.78125q0 0.953125 1.015625 1.859375q1.03125 0.90625 2.546875 0.90625q1.53125 0 2.546875 -0.890625q1.015625 -0.90625 1.015625 -1.90625zm7.2773438 4.125l0 3.9375l1.4375 0q0.875 0 1.234375 0.328125q0.375 0.34375 0.375 0.890625q0 0.515625 -0.375 0.84375q-0.359375 0.34375 -1.234375 0.34375l-4.25 0q-0.859375 0 -1.234375 -0.34375q-0.375 -0.328125 -0.375 -0.84375q0 -0.546875 0.375 -0.890625q0.375 -0.328125 1.234375 -0.328125l0.40625 0l0 -10.84375l-0.40625 0q-0.859375 0 -1.234375 -0.328125q-0.375 -0.34375 -0.375 -0.890625q0 -0.515625 0.375 -0.84375q0.375 -0.34375 1.234375 -0.34375l2.8125 0l0 0.8125q0.84375 -0.5625 1.75 -0.84375q0.90625 -0.28125 1.84375 -0.28125q2.46875 0 4.203125 1.671875q1.734375 1.65625 1.734375 3.8125q0 2.390625 -2.046875 3.9375q-1.71875 1.28125 -3.859375 1.28125q-0.921875 0 -1.828125 -0.265625q-0.90625 -0.265625 -1.796875 -0.8125zm7.125 -4.125q0 -0.5 -0.40625 -1.28125q-0.390625 -0.78125 -1.21875 -1.296875q-0.828125 -0.53125 -1.9375 -0.53125q-1.796875 0 -2.84375 1.359375q-0.71875 0.921875 -0.71875 1.78125q0 0.953125 1.015625 1.859375q1.03125 0.90625 2.546875 0.90625q1.53125 0 2.546875 -0.890625q1.015625 -0.90625 1.015625 -1.90625zm11.464844 -9.75l0 12.796875l2.875 0q0.875 0 1.234375 0.34375q0.375 0.328125 0.375 0.859375q0 0.53125 -0.375 0.875q-0.359375 0.328125 -1.234375 0.328125l-8.15625 0q-0.875 0 -1.25 -0.328125q-0.359375 -0.34375 -0.359375 -0.875q0 -0.53125 0.359375 -0.859375q0.375 -0.34375 1.25 -0.34375l2.875 0l0 -10.390625l-1.9375 0q-0.84375 0 -1.21875 -0.328125q-0.375 -0.34375 -0.375 -0.875q0 -0.53125 0.359375 -0.859375q0.375 -0.34375 1.234375 -0.34375l4.34375 0zm14.058594 0l0 2.546875l-2.859375 0l0 -2.546875l2.859375 0zm0.328125 4.5625l0 8.234375l2.890625 0q0.859375 0 1.21875 0.34375q0.375 0.328125 0.375 0.859375q0 0.53125 -0.375 0.875q-0.359375 0.328125 -1.21875 0.328125l-8.171875 0q-0.875 0 -1.25 -0.328125q-0.359375 -0.34375 -0.359375 -0.875q0 -0.53125 0.359375 -0.859375q0.375 -0.34375 1.25 -0.34375l2.875 0l0 -5.828125l-1.921875 0q-0.859375 0 -1.234375 -0.328125q-0.375 -0.34375 -0.375 -0.890625q0 -0.515625 0.359375 -0.84375q0.375 -0.34375 1.25 -0.34375l4.328125 0zm16.964844 0.4375q0.421875 -0.421875 0.890625 -0.421875q0.515625 0 0.84375 0.375q0.328125 0.375 0.328125 1.21875l0 1.546875q0 0.875 -0.328125 1.234375q-0.328125 0.359375 -0.875 0.359375q-0.484375 0 -0.828125 -0.28125q-0.25 -0.203125 -0.390625 -0.84375q-0.140625 -0.65625 -0.671875 -0.984375q-0.953125 -0.5625 -2.4375 -0.5625q-1.6875 0 -2.71875 1.0q-1.03125 1.0 -1.03125 2.515625q0 1.40625 0.984375 2.234375q0.984375 0.8125 3.28125 0.8125q1.5 0 2.4375 -0.3125q0.5625 -0.1875 1.0625 -0.640625q0.515625 -0.453125 0.921875 -0.453125q0.5 0 0.84375 0.375q0.359375 0.359375 0.359375 0.84375q0 0.796875 -1.078125 1.515625q-1.625 1.078125 -4.734375 1.078125q-2.8125 0 -4.359375 -1.171875q-2.109375 -1.5625 -2.109375 -4.265625q0 -2.5625 1.703125 -4.234375q1.71875 -1.6875 4.46875 -1.6875q1.0 0 1.84375 0.1875q0.859375 0.1875 1.59375 0.5625zm12.808594 10.203125l0 -0.5625q-0.890625 0.484375 -1.984375 0.71875q-1.09375 0.25 -1.984375 0.25q-1.9375 0 -3.140625 -1.03125q-1.203125 -1.03125 -1.203125 -2.265625q0 -1.515625 1.53125 -2.8125q1.546875 -1.296875 4.265625 -1.296875q1.09375 0 2.515625 0.234375l0 -0.578125q0 -0.53125 -0.46875 -0.875q-0.453125 -0.34375 -1.75 -0.34375q-1.0625 0 -2.765625 0.421875q-0.640625 0.15625 -0.984375 0.15625q-0.484375 0 -0.828125 -0.34375q-0.328125 -0.34375 -0.328125 -0.890625q0 -0.296875 0.109375 -0.515625q0.125 -0.234375 0.328125 -0.359375q0.21875 -0.140625 0.890625 -0.328125q0.890625 -0.25 1.8125 -0.390625q0.9375 -0.140625 1.6875 -0.140625q2.234375 0 3.46875 0.96875q1.234375 0.953125 1.234375 2.640625l0 4.9375l0.40625 0q0.875 0 1.234375 0.34375q0.375 0.328125 0.375 0.859375q0 0.53125 -0.375 0.875q-0.359375 0.328125 -1.234375 0.328125l-2.8125 0zm0 -4.296875q-1.4375 -0.28125 -2.65625 -0.28125q-1.46875 0 -2.515625 0.703125q-0.65625 0.46875 -0.65625 0.9375q0 0.328125 0.3125 0.546875q0.59375 0.390625 1.609375 0.390625q0.859375 0 1.953125 -0.34375q1.109375 -0.34375 1.953125 -0.921875l0 -1.03125zm11.652344 -3.9375l0 4.8125q0 0.765625 0.3125 1.015625q0.5 0.390625 1.765625 0.390625q1.84375 0 3.390625 -0.78125q0.609375 -0.3125 0.9375 -0.3125q0.46875 0 0.8125 0.359375q0.359375 0.34375 0.359375 0.84375q0 0.46875 -0.375 0.8125q-0.578125 0.546875 -2.28125 1.015625q-1.6875 0.46875 -2.84375 0.46875q-2.234375 0 -3.359375 -0.96875q-1.125 -0.96875 -1.125 -2.375l0 -5.28125l-0.859375 0q-0.875 0 -1.25 -0.328125q-0.359375 -0.34375 -0.359375 -0.890625q0 -0.515625 0.359375 -0.84375q0.375 -0.34375 1.25 -0.34375l0.859375 0l0 -2.171875q0 -0.859375 0.328125 -1.234375q0.34375 -0.375 0.890625 -0.375q0.515625 0 0.84375 0.375q0.34375 0.375 0.34375 1.234375l0 2.171875l4.4375 0q0.875 0 1.234375 0.34375q0.375 0.328125 0.375 0.859375q0 0.53125 -0.375 0.875q-0.359375 0.328125 -1.234375 0.328125l-4.4375 0zm15.855469 -6.96875l0 2.546875l-2.859375 0l0 -2.546875l2.859375 0zm0.328125 4.5625l0 8.234375l2.890625 0q0.859375 0 1.21875 0.34375q0.375 0.328125 0.375 0.859375q0 0.53125 -0.375 0.875q-0.359375 0.328125 -1.21875 0.328125l-8.171875 0q-0.875 0 -1.25 -0.328125q-0.359375 -0.34375 -0.359375 -0.875q0 -0.53125 0.359375 -0.859375q0.375 -0.34375 1.25 -0.34375l2.875 0l0 -5.828125l-1.921875 0q-0.859375 0 -1.234375 -0.328125q-0.375 -0.34375 -0.375 -0.890625q0 -0.515625 0.359375 -0.84375q0.375 -0.34375 1.25 -0.34375l4.328125 0zm19.449219 5.515625q0 1.390625 -0.765625 2.6875q-0.765625 1.28125 -2.28125 2.0625q-1.515625 0.765625 -3.171875 0.765625q-1.640625 0 -3.140625 -0.75q-1.5 -0.765625 -2.28125 -2.0625q-0.78125 -1.3125 -0.78125 -2.71875q0 -1.453125 0.796875 -2.828125q0.796875 -1.390625 2.28125 -2.1875q1.5 -0.796875 3.125 -0.796875q1.640625 0 3.15625 0.8125q1.515625 0.8125 2.28125 2.1875q0.78125 1.375 0.78125 2.828125zm-2.390625 0.015625q0 -1.15625 -0.84375 -2.140625q-1.125 -1.3125 -2.984375 -1.3125q-1.625 0 -2.71875 1.046875q-1.09375 1.046875 -1.09375 2.421875q0 1.125 1.09375 2.109375q1.109375 0.96875 2.71875 0.96875q1.625 0 2.71875 -0.96875q1.109375 -0.984375 1.109375 -2.125zm8.121094 -5.53125l0 0.8125q0.65625 -0.5625 1.453125 -0.84375q0.796875 -0.28125 1.71875 -0.28125q2.125 0 3.375 1.3125q0.984375 1.0625 0.984375 2.765625l0 4.46875q0.765625 0 1.125 0.34375q0.359375 0.328125 0.359375 0.859375q0 0.53125 -0.375 0.875q-0.359375 0.328125 -1.234375 0.328125l-2.15625 0q-0.875 0 -1.25 -0.328125q-0.359375 -0.34375 -0.359375 -0.875q0 -0.53125 0.359375 -0.859375q0.359375 -0.34375 1.125 -0.34375l0 -4.53125q0 -0.78125 -0.421875 -1.15625q-0.546875 -0.46875 -1.65625 -0.46875q-0.828125 0 -1.453125 0.328125q-0.625 0.328125 -1.59375 1.359375l0 4.46875q0.9375 0 1.203125 0.171875q0.578125 0.359375 0.578125 1.03125q0 0.53125 -0.375 0.875q-0.375 0.328125 -1.234375 0.328125l-2.734375 0q-0.859375 0 -1.234375 -0.328125q-0.375 -0.34375 -0.375 -0.875q0 -0.65625 0.5625 -1.03125q0.28125 -0.171875 1.21875 -0.171875l0 -5.828125q-0.765625 0 -1.140625 -0.34375q-0.359375 -0.34375 -0.359375 -0.875q0 -0.515625 0.375 -0.84375q0.375 -0.34375 1.234375 -0.34375l2.28125 0z" fill-rule="nonzero"></path><path fill="#000000" d="m245.58728 396.1475q0 0.671875 -0.484375 1.140625q-0.46875 0.453125 -1.3125 0.453125q-0.84375 0 -1.328125 -0.453125q-0.484375 -0.46875 -0.484375 -1.140625q0 -0.6875 0.484375 -1.140625q0.484375 -0.453125 1.328125 -0.453125q0.84375 0 1.3125 0.453125q0.484375 0.453125 0.484375 1.140625zm14.996094 -14.0l0 2.546875l-2.875 0l0 -2.546875l2.875 0zm-0.984375 6.96875l-4.90625 0q-0.859375 0 -1.234375 -0.328125q-0.359375 -0.34375 -0.359375 -0.890625q0 -0.515625 0.359375 -0.84375q0.375 -0.34375 1.234375 -0.34375l7.3125 0l0 11.140625q0 1.265625 -0.546875 2.203125q-0.53125 0.953125 -1.640625 1.625q-1.09375 0.6875 -2.46875 0.6875l-2.71875 0q-0.875 0 -1.25 -0.34375q-0.359375 -0.328125 -0.359375 -0.84375q0 -0.546875 0.359375 -0.890625q0.375 -0.328125 1.25 -0.328125l2.640625 0q1.109375 0 1.71875 -0.59375q0.609375 -0.59375 0.609375 -1.515625l0 -8.734375zm15.121094 8.234375l0 -0.5625q-0.890625 0.484375 -1.984375 0.71875q-1.09375 0.25 -1.984375 0.25q-1.9375 0 -3.140625 -1.03125q-1.203125 -1.03125 -1.203125 -2.265625q0 -1.515625 1.53125 -2.8125q1.546875 -1.296875 4.265625 -1.296875q1.09375 0 2.515625 0.234375l0 -0.578125q0 -0.53125 -0.46875 -0.875q-0.453125 -0.34375 -1.75 -0.34375q-1.0625 0 -2.765625 0.421875q-0.640625 0.15625 -0.984375 0.15625q-0.484375 0 -0.828125 -0.34375q-0.328125 -0.34375 -0.328125 -0.890625q0 -0.296875 0.109375 -0.515625q0.125 -0.234375 0.328125 -0.359375q0.21875 -0.140625 0.890625 -0.328125q0.890625 -0.25 1.8125 -0.390625q0.9375 -0.140625 1.6875 -0.140625q2.234375 0 3.46875 0.96875q1.234375 0.953125 1.234375 2.640625l0 4.9375l0.40625 0q0.875 0 1.234375 0.34375q0.375 0.328125 0.375 0.859375q0 0.53125 -0.375 0.875q-0.359375 0.328125 -1.234375 0.328125l-2.8125 0zm0 -4.296875q-1.4375 -0.28125 -2.65625 -0.28125q-1.46875 0 -2.515625 0.703125q-0.65625 0.46875 -0.65625 0.9375q0 0.328125 0.3125 0.546875q0.59375 0.390625 1.609375 0.390625q0.859375 0 1.953125 -0.34375q1.109375 -0.34375 1.953125 -0.921875l0 -1.03125zm12.261719 1.375l2.59375 -5.3125q-0.96875 0 -1.234375 -0.171875q-0.578125 -0.359375 -0.578125 -1.046875q0 -0.515625 0.359375 -0.84375q0.375 -0.34375 1.234375 -0.34375l3.296875 0q0.875 0 1.234375 0.34375q0.375 0.328125 0.375 0.859375q0 0.53125 -0.375 0.875q-0.359375 0.328125 -1.234375 0.328125l-0.390625 0l-4.03125 8.234375l-2.5 0l-4.015625 -8.234375l-0.34375 0q-0.875 0 -1.25 -0.328125q-0.359375 -0.34375 -0.359375 -0.890625q0 -0.515625 0.359375 -0.84375q0.375 -0.34375 1.25 -0.34375l3.21875 0q0.859375 0 1.21875 0.34375q0.375 0.328125 0.375 0.859375q0 0.671875 -0.5625 1.015625q-0.28125 0.1875 -1.25 0.1875l2.609375 5.3125zm16.542969 2.921875l0 -0.5625q-0.890625 0.484375 -1.984375 0.71875q-1.09375 0.25 -1.984375 0.25q-1.9375 0 -3.140625 -1.03125q-1.203125 -1.03125 -1.203125 -2.265625q0 -1.515625 1.53125 -2.8125q1.546875 -1.296875 4.265625 -1.296875q1.09375 0 2.515625 0.234375l0 -0.578125q0 -0.53125 -0.46875 -0.875q-0.453125 -0.34375 -1.75 -0.34375q-1.0625 0 -2.765625 0.421875q-0.640625 0.15625 -0.984375 0.15625q-0.484375 0 -0.828125 -0.34375q-0.328125 -0.34375 -0.328125 -0.890625q0 -0.296875 0.109375 -0.515625q0.125 -0.234375 0.328125 -0.359375q0.21875 -0.140625 0.890625 -0.328125q0.890625 -0.25 1.8125 -0.390625q0.9375 -0.140625 1.6875 -0.140625q2.234375 0 3.46875 0.96875q1.234375 0.953125 1.234375 2.640625l0 4.9375l0.40625 0q0.875 0 1.234375 0.34375q0.375 0.328125 0.375 0.859375q0 0.53125 -0.375 0.875q-0.359375 0.328125 -1.234375 0.328125l-2.8125 0zm0 -4.296875q-1.4375 -0.28125 -2.65625 -0.28125q-1.46875 0 -2.515625 0.703125q-0.65625 0.46875 -0.65625 0.9375q0 0.328125 0.3125 0.546875q0.59375 0.390625 1.609375 0.390625q0.859375 0 1.953125 -0.34375q1.109375 -0.34375 1.953125 -0.921875l0 -1.03125z" fill-rule="nonzero"></path><path fill="#000000" d="m153.64197 444.71l0 0.671875q0.578125 -0.5625 1.046875 -0.78125q0.484375 -0.21875 1.109375 -0.21875q0.515625 0 1.03125 0.265625q0.515625 0.25 1.015625 0.765625q0.625 -0.515625 1.25 -0.765625q0.640625 -0.25 1.3125 -0.25q1.34375 0 2.171875 0.703125q1.09375 0.9375 1.09375 2.46875l0 5.375q0.75 0 1.109375 0.34375q0.375 0.34375 0.375 0.859375q0 0.53125 -0.375 0.875q-0.359375 0.328125 -1.21875 0.328125l-2.28125 0l0 -7.578125q0 -0.5625 -0.203125 -0.765625q-0.203125 -0.21875 -0.609375 -0.21875q-0.40625 0 -0.734375 0.21875q-0.4375 0.296875 -1.0625 1.09375l0 4.84375q0.75 0 1.109375 0.34375q0.375 0.34375 0.375 0.859375q0 0.53125 -0.375 0.875q-0.359375 0.328125 -1.21875 0.328125l-2.296875 0l0 -7.578125q0 -0.546875 -0.203125 -0.765625q-0.203125 -0.21875 -0.609375 -0.21875q-0.421875 0 -0.84375 0.265625q-0.40625 0.265625 -0.96875 1.046875l0 4.84375q0.75 0 1.109375 0.34375q0.375 0.34375 0.375 0.859375q0 0.53125 -0.375 0.875q-0.359375 0.328125 -1.234375 0.328125l-2.171875 0q-0.859375 0 -1.234375 -0.328125q-0.375 -0.34375 -0.375 -0.875q0 -0.53125 0.375 -0.859375q0.359375 -0.34375 1.125 -0.34375l0 -5.828125q-0.765625 0 -1.125 -0.34375q-0.375 -0.34375 -0.375 -0.875q0 -0.515625 0.375 -0.84375q0.375 -0.34375 1.234375 -0.34375l2.296875 0zm20.261719 10.640625l0 -0.5625q-0.890625 0.484375 -1.984375 0.71875q-1.09375 0.25 -1.984375 0.25q-1.9375 0 -3.140625 -1.03125q-1.203125 -1.03125 -1.203125 -2.265625q0 -1.515625 1.53125 -2.8125q1.546875 -1.296875 4.265625 -1.296875q1.09375 0 2.515625 0.234375l0 -0.578125q0 -0.53125 -0.46875 -0.875q-0.453125 -0.34375 -1.75 -0.34375q-1.0625 0 -2.765625 0.421875q-0.640625 0.15625 -0.984375 0.15625q-0.484375 0 -0.828125 -0.34375q-0.328125 -0.34375 -0.328125 -0.890625q0 -0.296875 0.109375 -0.515625q0.125 -0.234375 0.328125 -0.359375q0.21875 -0.140625 0.890625 -0.328125q0.890625 -0.25 1.8125 -0.390625q0.9375 -0.140625 1.6875 -0.140625q2.234375 0 3.46875 0.96875q1.234375 0.953125 1.234375 2.640625l0 4.9375l0.40625 0q0.875 0 1.234375 0.34375q0.375 0.328125 0.375 0.859375q0 0.53125 -0.375 0.875q-0.359375 0.328125 -1.234375 0.328125l-2.8125 0zm0 -4.296875q-1.4375 -0.28125 -2.65625 -0.28125q-1.46875 0 -2.515625 0.703125q-0.65625 0.46875 -0.65625 0.9375q0 0.328125 0.3125 0.546875q0.59375 0.390625 1.609375 0.390625q0.859375 0 1.953125 -0.34375q1.109375 -0.34375 1.953125 -0.921875l0 -1.03125zm13.105469 -10.90625l0 2.546875l-2.859375 0l0 -2.546875l2.859375 0zm0.328125 4.5625l0 8.234375l2.890625 0q0.859375 0 1.21875 0.34375q0.375 0.328125 0.375 0.859375q0 0.53125 -0.375 0.875q-0.359375 0.328125 -1.21875 0.328125l-8.171875 0q-0.875 0 -1.25 -0.328125q-0.359375 -0.34375 -0.359375 -0.875q0 -0.53125 0.359375 -0.859375q0.375 -0.34375 1.25 -0.34375l2.875 0l0 -5.828125l-1.921875 0q-0.859375 0 -1.234375 -0.328125q-0.375 -0.34375 -0.375 -0.890625q0 -0.515625 0.359375 -0.84375q0.375 -0.34375 1.25 -0.34375l4.328125 0zm10.777344 0l0 0.8125q0.65625 -0.5625 1.453125 -0.84375q0.796875 -0.28125 1.71875 -0.28125q2.125 0 3.375 1.3125q0.984375 1.0625 0.984375 2.765625l0 4.46875q0.765625 0 1.125 0.34375q0.359375 0.328125 0.359375 0.859375q0 0.53125 -0.375 0.875q-0.359375 0.328125 -1.234375 0.328125l-2.15625 0q-0.875 0 -1.25 -0.328125q-0.359375 -0.34375 -0.359375 -0.875q0 -0.53125 0.359375 -0.859375q0.359375 -0.34375 1.125 -0.34375l0 -4.53125q0 -0.78125 -0.421875 -1.15625q-0.546875 -0.46875 -1.65625 -0.46875q-0.828125 0 -1.453125 0.328125q-0.625 0.328125 -1.59375 1.359375l0 4.46875q0.9375 0 1.203125 0.171875q0.578125 0.359375 0.578125 1.03125q0 0.53125 -0.375 0.875q-0.375 0.328125 -1.234375 0.328125l-2.734375 0q-0.859375 0 -1.234375 -0.328125q-0.375 -0.34375 -0.375 -0.875q0 -0.65625 0.5625 -1.03125q0.28125 -0.171875 1.21875 -0.171875l0 -5.828125q-0.765625 0 -1.140625 -0.34375q-0.359375 -0.34375 -0.359375 -0.875q0 -0.515625 0.375 -0.84375q0.375 -0.34375 1.234375 -0.34375l2.28125 0zm15.980469 4.796875q0 -2.046875 0.671875 -4.140625q0.515625 -1.546875 1.5625 -3.453125q0.765625 -1.359375 1.125 -1.65625q0.359375 -0.3125 0.8125 -0.3125q0.515625 0 0.859375 0.359375q0.359375 0.34375 0.359375 0.828125q0 0.34375 -0.28125 0.8125q-1.265625 2.078125 -1.84375 3.890625q-0.578125 1.8125 -0.578125 3.671875q0 1.875 0.578125 3.703125q0.578125 1.8125 1.84375 3.890625q0.28125 0.453125 0.28125 0.8125q0 0.484375 -0.359375 0.828125q-0.34375 0.359375 -0.859375 0.359375q-0.4375 0 -0.765625 -0.28125q-0.46875 -0.40625 -1.234375 -1.84375q-1.125 -2.078125 -1.53125 -3.421875q-0.640625 -2.0625 -0.640625 -4.046875zm16.292969 0q0 2.0625 -0.6875 4.171875q-0.5 1.546875 -1.5625 3.4375q-0.75 1.359375 -1.125 1.671875q-0.359375 0.3125 -0.796875 0.3125q-0.515625 0 -0.875 -0.359375q-0.34375 -0.34375 -0.34375 -0.828125q0 -0.359375 0.28125 -0.8125q1.265625 -2.078125 1.84375 -3.890625q0.578125 -1.828125 0.578125 -3.703125q0 -1.859375 -0.578125 -3.671875q-0.578125 -1.8125 -1.84375 -3.890625q-0.28125 -0.46875 -0.28125 -0.8125q0 -0.484375 0.34375 -0.828125q0.359375 -0.359375 0.875 -0.359375q0.421875 0 0.75 0.28125q0.46875 0.390625 1.25 1.828125q1.109375 2.078125 1.515625 3.421875q0.65625 2.0625 0.65625 4.03125z" fill-rule="nonzero"></path><path fill="#fff2cc" d="m801.971 373.01263l68.58008 -96.21799l-342.90027 0l0 96.21799z" fill-rule="nonzero"></path><path stroke="#f1c232" stroke-width="4.0" stroke-linejoin="round" stroke-linecap="butt" stroke-dasharray="32.0,12.0" d="m801.971 373.01263l68.58008 -96.21799l-342.90027 0l0 96.21799z" fill-rule="nonzero"></path><path fill="#fff2cc" d="m771.4129 484.46674l60.3609 -96.21799l-301.80457 0l0 96.21799z" fill-rule="nonzero"></path><path stroke="#f1c232" stroke-width="4.0" stroke-linejoin="round" stroke-linecap="butt" stroke-dasharray="32.0,12.0" d="m771.4129 484.46674l60.3609 -96.21799l-301.80457 0l0 96.21799z" fill-rule="nonzero"></path><path fill="#000000" fill-opacity="0.0" d="m527.6508 272.0643l295.9685 0l0 75.93701l-295.9685 0z" fill-rule="nonzero"></path><path fill="#000000" d="m545.4633 300.79993l0 6.421875q0 1.03125 0.421875 1.359375q0.65625 0.515625 2.34375 0.515625q2.453125 0 4.53125 -1.046875q0.796875 -0.40625 1.25 -0.40625q0.625 0 1.078125 0.46875q0.46875 0.46875 0.46875 1.140625q0 0.625 -0.5 1.078125q-0.765625 0.734375 -3.03125 1.359375q-2.25 0.609375 -3.796875 0.609375q-2.984375 0 -4.484375 -1.28125q-1.484375 -1.296875 -1.484375 -3.171875l0 -7.046875l-1.15625 0q-1.15625 0 -1.65625 -0.4375q-0.484375 -0.453125 -0.484375 -1.171875q0 -0.703125 0.484375 -1.140625q0.5 -0.453125 1.65625 -0.453125l1.15625 0l0 -2.890625q0 -1.15625 0.4375 -1.640625q0.453125 -0.5 1.171875 -0.5q0.703125 0 1.140625 0.5q0.453125 0.484375 0.453125 1.640625l0 2.890625l5.921875 0q1.15625 0 1.640625 0.453125q0.5 0.4375 0.5 1.15625q0 0.703125 -0.5 1.15625q-0.484375 0.4375 -1.640625 0.4375l-5.921875 0zm28.03125 5.515625l-13.140625 0q0.5 1.25 1.765625 2.015625q1.28125 0.765625 3.453125 0.765625q1.78125 0 4.734375 -0.765625q1.21875 -0.3125 1.6875 -0.3125q0.640625 0 1.078125 0.453125q0.4375 0.453125 0.4375 1.140625q0 0.625 -0.46875 1.0625q-0.625 0.578125 -3.046875 1.109375q-2.421875 0.515625 -4.65625 0.515625q-3.84375 0 -6.15625 -2.171875q-2.296875 -2.171875 -2.296875 -5.34375q0 -3.375 2.484375 -5.484375q2.5 -2.125 5.75 -2.125q1.953125 0 3.578125 0.6875q1.640625 0.6875 2.4375 1.484375q1.125 1.15625 1.859375 2.859375q0.5 1.1875 0.5 2.75l0 1.359375zm-3.546875 -3.203125q-0.734375 -1.375 -1.921875 -2.046875q-1.1875 -0.6875 -2.828125 -0.6875q-1.625 0 -2.8125 0.6875q-1.1875 0.671875 -1.9375 2.046875l9.5 0zm9.765625 -5.515625l0 0.90625q0.78125 -0.765625 1.40625 -1.046875q0.640625 -0.296875 1.46875 -0.296875q0.703125 0 1.390625 0.34375q0.6875 0.34375 1.34375 1.03125q0.828125 -0.6875 1.671875 -1.015625q0.859375 -0.34375 1.75 -0.34375q1.78125 0 2.890625 0.953125q1.46875 1.25 1.46875 3.28125l0 7.171875q1.0 0 1.484375 0.453125q0.484375 0.453125 0.484375 1.15625q0 0.703125 -0.484375 1.15625q-0.484375 0.4375 -1.640625 0.4375l-3.046875 0l0 -10.109375q0 -0.734375 -0.265625 -1.015625q-0.265625 -0.28125 -0.8125 -0.28125q-0.53125 0 -0.984375 0.28125q-0.578125 0.390625 -1.40625 1.46875l0 6.453125q1.0 0 1.484375 0.453125q0.484375 0.453125 0.484375 1.15625q0 0.703125 -0.484375 1.15625q-0.484375 0.4375 -1.640625 0.4375l-3.046875 0l0 -10.109375q0 -0.71875 -0.28125 -1.0q-0.265625 -0.296875 -0.8125 -0.296875q-0.5625 0 -1.109375 0.359375q-0.546875 0.34375 -1.3125 1.390625l0 6.453125q1.0 0 1.484375 0.453125q0.5 0.453125 0.5 1.15625q0 0.703125 -0.5 1.15625q-0.484375 0.4375 -1.640625 0.4375l-2.890625 0q-1.15625 0 -1.640625 -0.4375q-0.5 -0.453125 -0.5 -1.171875q0 -0.703125 0.484375 -1.140625q0.484375 -0.453125 1.5 -0.453125l0 -7.78125q-1.015625 0 -1.5 -0.453125q-0.484375 -0.453125 -0.484375 -1.15625q0 -0.703125 0.5 -1.140625q0.484375 -0.453125 1.640625 -0.453125l3.046875 0zm20.171875 12.421875l0 5.25l1.921875 0q1.15625 0 1.640625 0.4375q0.5 0.453125 0.5 1.171875q0 0.703125 -0.5 1.140625q-0.484375 0.453125 -1.640625 0.453125l-5.671875 0q-1.15625 0 -1.65625 -0.453125q-0.484375 -0.4375 -0.484375 -1.140625q0 -0.71875 0.5 -1.171875q0.5 -0.4375 1.640625 -0.4375l0.546875 0l0 -14.46875l-0.546875 0q-1.15625 0 -1.65625 -0.4375q-0.484375 -0.453125 -0.484375 -1.171875q0 -0.703125 0.484375 -1.140625q0.5 -0.453125 1.65625 -0.453125l3.75 0l0 1.09375q1.125 -0.765625 2.328125 -1.140625q1.203125 -0.375 2.46875 -0.375q3.28125 0 5.59375 2.234375q2.3125 2.21875 2.3125 5.09375q0 3.171875 -2.734375 5.234375q-2.28125 1.71875 -5.140625 1.71875q-1.234375 0 -2.4375 -0.359375q-1.203125 -0.359375 -2.390625 -1.078125zm9.5 -5.5q0 -0.671875 -0.53125 -1.703125q-0.53125 -1.046875 -1.640625 -1.734375q-1.09375 -0.703125 -2.578125 -0.703125q-2.390625 0 -3.796875 1.796875q-0.953125 1.234375 -0.953125 2.375q0 1.28125 1.359375 2.5q1.375 1.203125 3.390625 1.203125q2.03125 0 3.390625 -1.203125q1.359375 -1.203125 1.359375 -2.53125zm15.28125 -13.0l0 17.0625l3.84375 0q1.15625 0 1.640625 0.453125q0.5 0.4375 0.5 1.15625q0 0.703125 -0.5 1.15625q-0.484375 0.4375 -1.640625 0.4375l-10.890625 0q-1.15625 0 -1.65625 -0.4375q-0.484375 -0.453125 -0.484375 -1.171875q0 -0.703125 0.484375 -1.140625q0.5 -0.453125 1.65625 -0.453125l3.84375 0l0 -13.859375l-2.578125 0q-1.140625 0 -1.640625 -0.4375q-0.5 -0.453125 -0.5 -1.171875q0 -0.703125 0.484375 -1.140625q0.5 -0.453125 1.65625 -0.453125l5.78125 0zm20.484375 20.265625l0 -0.75q-1.203125 0.640625 -2.65625 0.953125q-1.453125 0.328125 -2.640625 0.328125q-2.578125 0 -4.1875 -1.359375q-1.609375 -1.375 -1.609375 -3.03125q0 -2.015625 2.046875 -3.734375q2.0625 -1.734375 5.6875 -1.734375q1.453125 0 3.359375 0.3125l0 -0.765625q0 -0.71875 -0.625 -1.171875q-0.609375 -0.453125 -2.34375 -0.453125q-1.421875 0 -3.6875 0.5625q-0.84375 0.203125 -1.3125 0.203125q-0.640625 0 -1.09375 -0.453125q-0.4375 -0.46875 -0.4375 -1.1875q0 -0.40625 0.15625 -0.703125q0.15625 -0.296875 0.4375 -0.46875q0.28125 -0.1875 1.171875 -0.4375q1.1875 -0.328125 2.421875 -0.515625q1.234375 -0.203125 2.234375 -0.203125q2.984375 0 4.625 1.296875q1.65625 1.28125 1.65625 3.515625l0 6.59375l0.546875 0q1.15625 0 1.640625 0.453125q0.5 0.4375 0.5 1.15625q0 0.703125 -0.5 1.15625q-0.484375 0.4375 -1.640625 0.4375l-3.75 0zm0 -5.734375q-1.921875 -0.375 -3.546875 -0.375q-1.953125 0 -3.359375 0.953125q-0.875 0.609375 -0.875 1.234375q0 0.453125 0.421875 0.734375q0.78125 0.515625 2.140625 0.515625q1.15625 0 2.609375 -0.453125q1.46875 -0.453125 2.609375 -1.234375l0 -1.375zm15.53125 -5.25l0 6.421875q0 1.03125 0.421875 1.359375q0.65625 0.515625 2.34375 0.515625q2.453125 0 4.53125 -1.046875q0.796875 -0.40625 1.25 -0.40625q0.625 0 1.078125 0.46875q0.46875 0.46875 0.46875 1.140625q0 0.625 -0.5 1.078125q-0.765625 0.734375 -3.03125 1.359375q-2.25 0.609375 -3.796875 0.609375q-2.984375 0 -4.484375 -1.28125q-1.484375 -1.296875 -1.484375 -3.171875l0 -7.046875l-1.15625 0q-1.15625 0 -1.65625 -0.4375q-0.484375 -0.453125 -0.484375 -1.171875q0 -0.703125 0.484375 -1.140625q0.5 -0.453125 1.65625 -0.453125l1.15625 0l0 -2.890625q0 -1.15625 0.4375 -1.640625q0.453125 -0.5 1.171875 -0.5q0.703125 0 1.140625 0.5q0.453125 0.484375 0.453125 1.640625l0 2.890625l5.921875 0q1.15625 0 1.640625 0.453125q0.5 0.4375 0.5 1.15625q0 0.703125 -0.5 1.15625q-0.484375 0.4375 -1.640625 0.4375l-5.921875 0zm28.03125 5.515625l-13.140625 0q0.5 1.25 1.765625 2.015625q1.28125 0.765625 3.453125 0.765625q1.78125 0 4.734375 -0.765625q1.21875 -0.3125 1.6875 -0.3125q0.640625 0 1.078125 0.453125q0.4375 0.453125 0.4375 1.140625q0 0.625 -0.46875 1.0625q-0.625 0.578125 -3.046875 1.109375q-2.421875 0.515625 -4.65625 0.515625q-3.84375 0 -6.15625 -2.171875q-2.296875 -2.171875 -2.296875 -5.34375q0 -3.375 2.484375 -5.484375q2.5 -2.125 5.75 -2.125q1.953125 0 3.578125 0.6875q1.640625 0.6875 2.4375 1.484375q1.125 1.15625 1.859375 2.859375q0.5 1.1875 0.5 2.75l0 1.359375zm-3.546875 -3.203125q-0.734375 -1.375 -1.921875 -2.046875q-1.1875 -0.6875 -2.828125 -0.6875q-1.625 0 -2.8125 0.6875q-1.1875 0.671875 -1.9375 2.046875l9.5 0zm18.171875 -1.765625q-0.78125 -0.484375 -1.640625 -0.71875q-0.859375 -0.25 -1.796875 -0.25q-1.859375 0 -2.953125 0.609375q-0.484375 0.265625 -0.484375 0.578125q0 0.359375 0.65625 0.703125q0.5 0.25 2.234375 0.484375q3.1875 0.4375 4.4375 0.875q1.640625 0.578125 2.53125 1.71875q0.890625 1.140625 0.890625 2.40625q0 1.71875 -1.515625 2.875q-2.171875 1.671875 -5.640625 1.671875q-1.390625 0 -2.578125 -0.25q-1.171875 -0.234375 -2.15625 -0.703125q-0.234375 0.203125 -0.5 0.3125q-0.265625 0.109375 -0.546875 0.109375q-0.75 0 -1.203125 -0.484375q-0.4375 -0.5 -0.4375 -1.65625l0 -1.078125q0 -1.15625 0.4375 -1.640625q0.453125 -0.5 1.171875 -0.5q0.578125 0 0.96875 0.328125q0.390625 0.3125 0.609375 1.09375q0.734375 0.625 1.765625 0.953125q1.03125 0.3125 2.375 0.3125q2.203125 0 3.421875 -0.6875q0.578125 -0.34375 0.578125 -0.71875q0 -0.625 -0.828125 -1.03125q-0.828125 -0.40625 -3.421875 -0.6875q-3.859375 -0.40625 -5.15625 -1.5625q-1.296875 -1.140625 -1.296875 -2.8125q0 -1.71875 1.453125 -2.859375q1.96875 -1.5625 5.15625 -1.5625q1.109375 0 2.125 0.21875q1.03125 0.203125 1.96875 0.640625q0.296875 -0.21875 0.546875 -0.328125q0.265625 -0.109375 0.484375 -0.109375q0.65625 0 1.09375 0.5q0.4375 0.484375 0.4375 1.640625l0 0.78125q0 1.046875 -0.25 1.421875q-0.5 0.71875 -1.359375 0.71875q-0.578125 0 -1.015625 -0.359375q-0.4375 -0.359375 -0.5625 -0.953125z" fill-rule="nonzero"></path><path fill="#000000" fill-opacity="0.0" d="m533.9404 380.3755l187.74805 0l0 56.850372l-187.74805 0z" fill-rule="nonzero"></path><path fill="#000000" d="m556.0029 409.658q-0.78125 -0.484375 -1.640625 -0.71875q-0.859375 -0.25 -1.796875 -0.25q-1.859375 0 -2.953125 0.609375q-0.484375 0.265625 -0.484375 0.578125q0 0.359375 0.65625 0.703125q0.5 0.25 2.234375 0.484375q3.1875 0.4375 4.4375 0.875q1.640625 0.578125 2.53125 1.71875q0.890625 1.140625 0.890625 2.40625q0 1.71875 -1.515625 2.875q-2.171875 1.671875 -5.640625 1.671875q-1.390625 0 -2.578125 -0.25q-1.171875 -0.234375 -2.15625 -0.703125q-0.234375 0.203125 -0.5 0.3125q-0.265625 0.109375 -0.546875 0.109375q-0.75 0 -1.203125 -0.484375q-0.4375 -0.5 -0.4375 -1.65625l0 -1.078125q0 -1.15625 0.4375 -1.640625q0.453125 -0.5 1.171875 -0.5q0.578125 0 0.96875 0.328125q0.390625 0.3125 0.609375 1.09375q0.734375 0.625 1.765625 0.953125q1.03125 0.3125 2.375 0.3125q2.203125 0 3.421875 -0.6875q0.578125 -0.34375 0.578125 -0.71875q0 -0.625 -0.828125 -1.03125q-0.828125 -0.40625 -3.421875 -0.6875q-3.859375 -0.40625 -5.15625 -1.5625q-1.296875 -1.140625 -1.296875 -2.8125q0 -1.71875 1.453125 -2.859375q1.96875 -1.5625 5.15625 -1.5625q1.109375 0 2.125 0.21875q1.03125 0.203125 1.96875 0.640625q0.296875 -0.21875 0.546875 -0.328125q0.265625 -0.109375 0.484375 -0.109375q0.65625 0 1.09375 0.5q0.4375 0.484375 0.4375 1.640625l0 0.78125q0 1.046875 -0.25 1.421875q-0.5 0.71875 -1.359375 0.71875q-0.578125 0 -1.015625 -0.359375q-0.4375 -0.359375 -0.5625 -0.953125zm14.953125 -0.546875l0 6.421875q0 1.03125 0.421875 1.359375q0.65625 0.515625 2.34375 0.515625q2.453125 0 4.53125 -1.046875q0.796875 -0.40625 1.25 -0.40625q0.625 0 1.078125 0.46875q0.46875 0.46875 0.46875 1.140625q0 0.625 -0.5 1.078125q-0.765625 0.734375 -3.03125 1.359375q-2.25 0.609375 -3.796875 0.609375q-2.984375 0 -4.484375 -1.28125q-1.484375 -1.296875 -1.484375 -3.171875l0 -7.046875l-1.15625 0q-1.15625 0 -1.65625 -0.4375q-0.484375 -0.453125 -0.484375 -1.171875q0 -0.703125 0.484375 -1.140625q0.5 -0.453125 1.65625 -0.453125l1.15625 0l0 -2.890625q0 -1.15625 0.4375 -1.640625q0.453125 -0.5 1.171875 -0.5q0.703125 0 1.140625 0.5q0.453125 0.484375 0.453125 1.640625l0 2.890625l5.921875 0q1.15625 0 1.640625 0.453125q0.5 0.4375 0.5 1.15625q0 0.703125 -0.5 1.15625q-0.484375 0.4375 -1.640625 0.4375l-5.921875 0zm22.875 10.984375l0 -0.75q-1.203125 0.640625 -2.65625 0.953125q-1.453125 0.328125 -2.640625 0.328125q-2.578125 0 -4.1875 -1.359375q-1.609375 -1.375 -1.609375 -3.03125q0 -2.015625 2.046875 -3.734375q2.0625 -1.734375 5.6875 -1.734375q1.453125 0 3.359375 0.3125l0 -0.765625q0 -0.71875 -0.625 -1.171875q-0.609375 -0.453125 -2.34375 -0.453125q-1.421875 0 -3.6875 0.5625q-0.84375 0.203125 -1.3125 0.203125q-0.640625 0 -1.09375 -0.453125q-0.4375 -0.46875 -0.4375 -1.1875q0 -0.40625 0.15625 -0.703125q0.15625 -0.296875 0.4375 -0.46875q0.28125 -0.1875 1.171875 -0.4375q1.1875 -0.328125 2.421875 -0.515625q1.234375 -0.203125 2.234375 -0.203125q2.984375 0 4.625 1.296875q1.65625 1.28125 1.65625 3.515625l0 6.59375l0.546875 0q1.15625 0 1.640625 0.453125q0.5 0.4375 0.5 1.15625q0 0.703125 -0.5 1.15625q-0.484375 0.4375 -1.640625 0.4375l-3.75 0zm0 -5.734375q-1.921875 -0.375 -3.546875 -0.375q-1.953125 0 -3.359375 0.953125q-0.875 0.609375 -0.875 1.234375q0 0.453125 0.421875 0.734375q0.78125 0.515625 2.140625 0.515625q1.15625 0 2.609375 -0.453125q1.46875 -0.453125 2.609375 -1.234375l0 -1.375zm15.53125 -5.25l0 6.421875q0 1.03125 0.421875 1.359375q0.65625 0.515625 2.34375 0.515625q2.453125 0 4.53125 -1.046875q0.796875 -0.40625 1.25 -0.40625q0.625 0 1.078125 0.46875q0.46875 0.46875 0.46875 1.140625q0 0.625 -0.5 1.078125q-0.765625 0.734375 -3.03125 1.359375q-2.25 0.609375 -3.796875 0.609375q-2.984375 0 -4.484375 -1.28125q-1.484375 -1.296875 -1.484375 -3.171875l0 -7.046875l-1.15625 0q-1.15625 0 -1.65625 -0.4375q-0.484375 -0.453125 -0.484375 -1.171875q0 -0.703125 0.484375 -1.140625q0.5 -0.453125 1.65625 -0.453125l1.15625 0l0 -2.890625q0 -1.15625 0.4375 -1.640625q0.453125 -0.5 1.171875 -0.5q0.703125 0 1.140625 0.5q0.453125 0.484375 0.453125 1.640625l0 2.890625l5.921875 0q1.15625 0 1.640625 0.453125q0.5 0.4375 0.5 1.15625q0 0.703125 -0.5 1.15625q-0.484375 0.4375 -1.640625 0.4375l-5.921875 0zm21.140625 -9.28125l0 3.390625l-3.8125 0l0 -3.390625l3.8125 0zm0.4375 6.078125l0 10.984375l3.84375 0q1.15625 0 1.640625 0.453125q0.5 0.4375 0.5 1.15625q0 0.703125 -0.5 1.15625q-0.484375 0.4375 -1.640625 0.4375l-10.890625 0q-1.15625 0 -1.65625 -0.4375q-0.484375 -0.453125 -0.484375 -1.171875q0 -0.703125 0.484375 -1.140625q0.5 -0.453125 1.65625 -0.453125l3.84375 0l0 -7.78125l-2.578125 0q-1.140625 0 -1.640625 -0.4375q-0.5 -0.453125 -0.5 -1.171875q0 -0.703125 0.484375 -1.140625q0.5 -0.453125 1.65625 -0.453125l5.78125 0zm22.609375 0.578125q0.578125 -0.546875 1.1875 -0.546875q0.6875 0 1.125 0.5q0.453125 0.484375 0.453125 1.625l0 2.0625q0 1.15625 -0.453125 1.640625q-0.4375 0.484375 -1.15625 0.484375q-0.65625 0 -1.109375 -0.375q-0.328125 -0.28125 -0.515625 -1.140625q-0.1875 -0.875 -0.90625 -1.296875q-1.265625 -0.75 -3.234375 -0.75q-2.265625 0 -3.640625 1.328125q-1.359375 1.328125 -1.359375 3.359375q0 1.875 1.3125 2.96875q1.3125 1.078125 4.359375 1.078125q2.0 0 3.265625 -0.40625q0.75 -0.25 1.421875 -0.84375q0.671875 -0.609375 1.21875 -0.609375q0.65625 0 1.125 0.484375q0.484375 0.484375 0.484375 1.140625q0 1.0625 -1.453125 2.015625q-2.15625 1.421875 -6.3125 1.421875q-3.734375 0 -5.8125 -1.546875q-2.8125 -2.078125 -2.8125 -5.6875q0 -3.421875 2.28125 -5.65625q2.28125 -2.25 5.953125 -2.25q1.328125 0 2.46875 0.25q1.140625 0.25 2.109375 0.75z" fill-rule="nonzero"></path></g></svg>

