<?xml version="1.0" standalone="yes"?>

<svg version="1.1" viewBox="0.0 0.0 960.0 720.0" fill="none" stroke="none" stroke-linecap="square" stroke-miterlimit="10" xmlns="http://www.w3.org/2000/svg" xmlns:xlink="http://www.w3.org/1999/xlink"><clipPath id="p.0"><path d="m0 0l960.0 0l0 720.0l-960.0 0l0 -720.0z" clip-rule="nonzero"></path></clipPath><g clip-path="url(#p.0)"><path fill="#000000" fill-opacity="0.0" d="m0 0l960.0 0l0 720.0l-960.0 0z" fill-rule="nonzero"></path><path fill="#000000" fill-opacity="0.0" d="m516.9055 204.10635l-51.094482 204.37796l-193.3071 0l-51.094482 -204.37796z" fill-rule="nonzero"></path><path stroke="#999999" stroke-width="8.0" stroke-linejoin="round" stroke-linecap="butt" d="m516.9055 204.10635l-51.094482 204.37796l-193.3071 0l-51.094482 -204.37796z" fill-rule="nonzero"></path><path fill="#000000" fill-opacity="0.0" d="m258.937 244.02155l220.44095 0l0 91.87402l-220.44095 0z" fill-rule="nonzero"></path><path fill="#666666" d="m303.89185 314.46155l-10.9375 -45.8125l9.46875 0l6.90625 31.46875l8.375 -31.46875l11.0 0l8.03125 32.0l7.03125 -32.0l9.3125 0l-11.125 45.8125l-9.8125 0l-9.125 -34.25l-9.09375 34.25l-10.03125 0zm95.21875 0l-10.0625 0l-4.0 -10.40625l-18.3125 0l-3.78125 10.40625l-9.8125 0l17.84375 -45.8125l9.78125 0l18.34375 45.8125zm-17.03125 -18.125l-6.3125 -17.0l-6.1875 17.0l12.5 0zm21.96875 18.125l0 -45.8125l19.46875 0q7.34375 0 10.671875 1.234375q3.328125 1.234375 5.328125 4.390625q2.0 3.15625 2.0 7.21875q0 5.15625 -3.03125 8.515625q-3.03125 3.359375 -9.0625 4.234375q3.0 1.75 4.953125 3.84375q1.953125 2.09375 5.265625 7.4375l5.59375 8.9375l-11.0625 0l-6.6875 -9.96875q-3.5625 -5.34375 -4.875 -6.734375q-1.3125 -1.390625 -2.78125 -1.90625q-1.46875 -0.515625 -4.65625 -0.515625l-1.875 0l0 19.125l-9.25 0zm9.25 -26.4375l6.84375 0q6.65625 0 8.3125 -0.5625q1.65625 -0.5625 2.59375 -1.9375q0.9375 -1.375 0.9375 -3.4375q0 -2.3125 -1.234375 -3.734375q-1.234375 -1.421875 -3.484375 -1.796875q-1.125 -0.15625 -6.75 -0.15625l-7.21875 0l0 11.625z" fill-rule="nonzero"></path></g></svg>

