<?xml version="1.0" standalone="yes"?>

<svg version="1.1" viewBox="0.0 0.0 958.509186351706 158.01312335958005" fill="none" stroke="none" stroke-linecap="square" stroke-miterlimit="10" xmlns="http://www.w3.org/2000/svg" xmlns:xlink="http://www.w3.org/1999/xlink"><clipPath id="p.0"><path d="m0 0l958.5092 0l0 158.01312l-958.5092 0l0 -158.01312z" clip-rule="nonzero"></path></clipPath><g clip-path="url(#p.0)"><path fill="#000000" fill-opacity="0.0" d="m0 0l958.5092 0l0 158.01312l-958.5092 0z" fill-rule="nonzero"></path><path fill="#f3f3f3" d="m13.643044 19.047245l0 0c0 -4.8676443 3.9460058 -8.813649 8.813649 -8.813649l911.8845 0c2.3375244 0 4.5793457 0.9285784 6.232239 2.581458c1.652832 1.6528797 2.581421 3.8946648 2.581421 6.232191l0 35.254593c0 4.8676414 -3.945984 8.813648 -8.81366 8.813648l-911.8845 0c-4.8676434 0 -8.813649 -3.9460068 -8.813649 -8.813648z" fill-rule="nonzero"></path><path stroke="#666666" stroke-width="4.0" stroke-linejoin="round" stroke-linecap="butt" d="m13.643044 19.047245l0 0c0 -4.8676443 3.9460058 -8.813649 8.813649 -8.813649l911.8845 0c2.3375244 0 4.5793457 0.9285784 6.232239 2.581458c1.652832 1.6528797 2.581421 3.8946648 2.581421 6.232191l0 35.254593c0 4.8676414 -3.945984 8.813648 -8.81366 8.813648l-911.8845 0c-4.8676434 0 -8.813649 -3.9460068 -8.813649 -8.813648z" fill-rule="nonzero"></path><path fill="#999999" d="m29.943224 30.011414l0 5.125q0.75 -0.453125 1.515625 -0.65625q0.7812519 -0.21875 1.5625019 -0.21875q1.234375 0 2.203125 0.421875q0.984375 0.421875 1.625 1.328125q0.640625 0.90625 0.640625 2.28125l0 4.515625q0.90625 0 1.1875 0.171875q0.5625 0.375 0.5625 1.03125q0 0.53125 -0.359375 0.875q-0.359375 0.328125 -1.234375 0.328125l-2.734375 0q-0.859375 0 -1.234375 -0.328125q-0.359375 -0.34375 -0.359375 -0.875q0 -0.65625 0.5625 -1.03125q0.28125 -0.1875 1.1875 -0.171875l0 -4.34375q0 -0.921875 -0.421875 -1.296875q-0.546875 -0.515625 -1.625 -0.515625q-0.796875 0 -1.4218769 0.3125q-0.609375 0.3125 -1.65625 1.34375l0 4.5q0.9375 0 1.203125 0.171875q0.578125 0.375 0.578125 1.03125q0 0.53125 -0.375 0.875q-0.375 0.328125 -1.234375 0.328125l-2.734375 0q-0.859375 0 -1.234375 -0.328125q-0.375 -0.34375 -0.375 -0.875q0 -0.65625 0.578125 -1.03125q0.28125 -0.1875 1.203125 -0.171875l0 -10.390625l-0.421875 0q-0.859375 0 -1.234375 -0.328125q-0.359375 -0.34375 -0.359375 -0.875q0 -0.53125 0.359375 -0.859375q0.375 -0.34375 1.234375 -0.34375l2.8125 0zm16.29297 6.96875l0 4.8125q0 0.765625 0.3125 1.015625q0.5 0.390625 1.765625 0.390625q1.84375 0 3.390625 -0.78125q0.609375 -0.3125 0.9375 -0.3125q0.46875 0 0.8125 0.359375q0.359375 0.34375 0.359375 0.84375q0 0.46875 -0.375 0.8125q-0.578125 0.546875 -2.28125 1.015625q-1.6875 0.46875 -2.84375 0.46875q-2.234375 0 -3.359375 -0.96875q-1.125 -0.96875 -1.125 -2.375l0 -5.28125l-0.859375 0q-0.875 0 -1.25 -0.328125q-0.359375 -0.34375 -0.359375 -0.890625q0 -0.515625 0.359375 -0.84375q0.375 -0.34375 1.25 -0.34375l0.859375 0l0 -2.171875q0 -0.859375 0.328125 -1.234375q0.34375 -0.375 0.890625 -0.375q0.515625 0 0.84375 0.375q0.34375 0.375 0.34375 1.234375l0 2.171875l4.4375 0q0.875 0 1.234375 0.34375q0.375 0.328125 0.375 0.859375q0 0.53125 -0.375 0.875q-0.359375 0.328125 -1.234375 0.328125l-4.4375 0zm14.402344 0l0 4.8125q0 0.765625 0.3125 1.015625q0.5 0.390625 1.765625 0.390625q1.8437462 0 3.3906212 -0.78125q0.609375 -0.3125 0.9375 -0.3125q0.46875 0 0.8125 0.359375q0.359375 0.34375 0.359375 0.84375q0 0.46875 -0.375 0.8125q-0.578125 0.546875 -2.28125 1.015625q-1.6874962 0.46875 -2.8437462 0.46875q-2.234375 0 -3.359375 -0.96875q-1.125 -0.96875 -1.125 -2.375l0 -5.28125l-0.859375 0q-0.875 0 -1.25 -0.328125q-0.359375 -0.34375 -0.359375 -0.890625q0 -0.515625 0.359375 -0.84375q0.375 -0.34375 1.25 -0.34375l0.859375 0l0 -2.171875q0 -0.859375 0.328125 -1.234375q0.34375 -0.375 0.890625 -0.375q0.515625 0 0.84375 0.375q0.34375 0.375 0.34375 1.234375l0 2.171875l4.437496 0q0.875 0 1.234375 0.34375q0.375 0.328125 0.375 0.859375q0 0.53125 -0.375 0.875q-0.359375 0.328125 -1.234375 0.328125l-4.437496 0zm12.011715 6.90625l0 3.9375l1.4375 0q0.875 0 1.234375 0.328125q0.375 0.34375 0.375 0.890625q0 0.515625 -0.375 0.84375q-0.359375 0.34375 -1.234375 0.34375l-4.25 0q-0.859375 0 -1.234375 -0.34375q-0.375 -0.328125 -0.375 -0.84375q0 -0.546875 0.375 -0.890625q0.375 -0.328125 1.234375 -0.328125l0.40625 0l0 -10.84375l-0.40625 0q-0.859375 0 -1.234375 -0.328125q-0.375 -0.34375 -0.375 -0.890625q0 -0.515625 0.375 -0.84375q0.375 -0.34375 1.234375 -0.34375l2.8125 0l0 0.8125q0.84375 -0.5625 1.75 -0.84375q0.90625 -0.28125 1.84375 -0.28125q2.46875 0 4.203125 1.671875q1.734375 1.65625 1.734375 3.8125q0 2.390625 -2.046875 3.9375q-1.71875 1.28125 -3.859375 1.28125q-0.921875 0 -1.828125 -0.265625q-0.90625 -0.265625 -1.796875 -0.8125zm7.125 -4.125q0 -0.5 -0.40625 -1.28125q-0.390625 -0.78125 -1.21875 -1.296875q-0.828125 -0.53125 -1.9375 -0.53125q-1.796875 0 -2.84375 1.359375q-0.71875 0.921875 -0.71875 1.78125q0 0.953125 1.015625 1.859375q1.03125 0.90625 2.546875 0.90625q1.53125 0 2.546875 -0.890625q1.015625 -0.90625 1.015625 -1.90625zm12.074219 -3.578125q0 0.671875 -0.484375 1.140625q-0.484375 0.453125 -1.328125 0.453125q-0.84375 0 -1.328125 -0.453125q-0.46875 -0.46875 -0.46875 -1.140625q0 -0.6875 0.46875 -1.140625q0.484375 -0.453125 1.328125 -0.453125q0.84375 0 1.328125 0.453125q0.484375 0.453125 0.484375 1.140625zm0.015625 7.859375q0 0.671875 -0.484375 1.140625q-0.46875 0.453125 -1.3125 0.453125q-0.84375 0 -1.328125 -0.453125q-0.484375 -0.46875 -0.484375 -1.140625q0 -0.6875 0.484375 -1.140625q0.484375 -0.453125 1.328125 -0.453125q0.84375 0 1.3125 0.453125q0.484375 0.453125 0.484375 1.140625zm17.527344 -13.71875l-7.703125 16.609375q-0.296875 0.609375 -0.53125 0.796875q-0.296875 0.25 -0.734375 0.25q-0.484375 0 -0.84375 -0.359375q-0.359375 -0.34375 -0.359375 -0.78125q0 -0.328125 0.28125 -0.9375l7.71875 -16.578125q0.296875 -0.625 0.515625 -0.8125q0.3125 -0.25 0.734375 -0.25q0.5 0 0.84375 0.359375q0.359375 0.34375 0.359375 0.78125q0 0.3125 -0.28125 0.921875zm14.402344 0l-7.703125 16.609375q-0.296875 0.609375 -0.53125 0.796875q-0.296875 0.25 -0.734375 0.25q-0.484375 0 -0.84375 -0.359375q-0.359375 -0.34375 -0.359375 -0.78125q0 -0.328125 0.28125 -0.9375l7.71875 -16.578125q0.296875 -0.625 0.515625 -0.8125q0.3125 -0.25 0.734375 -0.25q0.5 0 0.84375 0.359375q0.359375 0.34375 0.359375 0.78125q0 0.3125 -0.28125 0.921875zm9.464844 10.453125l-1.65625 4.4375l-2.265625 0l-2.015625 -8.234375q-0.65625 -0.046875 -1.0 -0.375q-0.328125 -0.328125 -0.328125 -0.84375q0 -0.515625 0.359375 -0.84375q0.375 -0.34375 1.25 -0.34375l2.234375 0q0.875 0 1.234375 0.34375q0.375 0.328125 0.375 0.859375q0 0.546875 -0.421875 0.921875q-0.3125 0.28125 -1.25 0.28125l0.921875 3.796875l1.484375 -3.890625l2.140625 0l1.5 3.890625l0.9375 -3.796875q-0.890625 0 -1.171875 -0.1875q-0.5625 -0.359375 -0.5625 -1.03125q0 -0.515625 0.359375 -0.84375q0.375 -0.34375 1.234375 -0.34375l2.265625 0q0.875 0 1.234375 0.34375q0.375 0.328125 0.375 0.859375q0 0.484375 -0.328125 0.828125q-0.3125 0.328125 -0.953125 0.375l-1.96875 8.234375l-2.21875 0l-1.765625 -4.4375zm14.402344 0l-1.65625 4.4375l-2.265625 0l-2.015625 -8.234375q-0.65625 -0.046875 -1.0 -0.375q-0.328125 -0.328125 -0.328125 -0.84375q0 -0.515625 0.359375 -0.84375q0.375 -0.34375 1.25 -0.34375l2.234375 0q0.875 0 1.234375 0.34375q0.375 0.328125 0.375 0.859375q0 0.546875 -0.421875 0.921875q-0.3125 0.28125 -1.25 0.28125l0.921875 3.796875l1.484375 -3.890625l2.140625 0l1.5 3.890625l0.9375 -3.796875q-0.890625 0 -1.171875 -0.1875q-0.5625 -0.359375 -0.5625 -1.03125q0 -0.515625 0.359375 -0.84375q0.375 -0.34375 1.234375 -0.34375l2.265625 0q0.875 0 1.234375 0.34375q0.375 0.328125 0.375 0.859375q0 0.484375 -0.328125 0.828125q-0.3125 0.328125 -0.953125 0.375l-1.96875 8.234375l-2.21875 0l-1.765625 -4.4375zm14.402344 0l-1.65625 4.4375l-2.265625 0l-2.015625 -8.234375q-0.65625 -0.046875 -1.0 -0.375q-0.328125 -0.328125 -0.328125 -0.84375q0 -0.515625 0.359375 -0.84375q0.375 -0.34375 1.25 -0.34375l2.234375 0q0.875 0 1.234375 0.34375q0.375 0.328125 0.375 0.859375q0 0.546875 -0.421875 0.921875q-0.3125 0.28125 -1.25 0.28125l0.921875 3.796875l1.484375 -3.890625l2.140625 0l1.5 3.890625l0.9375 -3.796875q-0.890625 0 -1.171875 -0.1875q-0.5625 -0.359375 -0.5625 -1.03125q0 -0.515625 0.359375 -0.84375q0.375 -0.34375 1.234375 -0.34375l2.265625 0q0.875 0 1.234375 0.34375q0.375 0.328125 0.375 0.859375q0 0.484375 -0.328125 0.828125q-0.3125 0.328125 -0.953125 0.375l-1.96875 8.234375l-2.21875 0l-1.765625 -4.4375zm16.214844 3.234375q0 0.671875 -0.484375 1.140625q-0.46875 0.453125 -1.3125 0.453125q-0.84375 0 -1.328125 -0.453125q-0.484375 -0.46875 -0.484375 -1.140625q0 -0.6875 0.484375 -1.140625q0.484375 -0.453125 1.328125 -0.453125q0.84375 0 1.3125 0.453125q0.484375 0.453125 0.484375 1.140625zm8.871094 -9.4375l0 0.671875q0.578125 -0.5625 1.046875 -0.78125q0.484375 -0.21875 1.109375 -0.21875q0.515625 0 1.03125 0.265625q0.515625 0.25 1.015625 0.765625q0.625 -0.515625 1.25 -0.765625q0.640625 -0.25 1.3125 -0.25q1.34375 0 2.171875 0.703125q1.09375 0.9375 1.09375 2.46875l0 5.375q0.75 0 1.109375 0.34375q0.375 0.34375 0.375 0.859375q0 0.53125 -0.375 0.875q-0.359375 0.328125 -1.21875 0.328125l-2.28125 0l0 -7.578125q0 -0.5625 -0.203125 -0.765625q-0.203125 -0.21875 -0.609375 -0.21875q-0.40625 0 -0.734375 0.21875q-0.4375 0.296875 -1.0625 1.09375l0 4.84375q0.75 0 1.109375 0.34375q0.375 0.34375 0.375 0.859375q0 0.53125 -0.375 0.875q-0.359375 0.328125 -1.21875 0.328125l-2.296875 0l0 -7.578125q0 -0.546875 -0.203125 -0.765625q-0.203125 -0.21875 -0.609375 -0.21875q-0.421875 0 -0.84375 0.265625q-0.40625 0.265625 -0.96875 1.046875l0 4.84375q0.75 0 1.109375 0.34375q0.375 0.34375 0.375 0.859375q0 0.53125 -0.375 0.875q-0.359375 0.328125 -1.234375 0.328125l-2.171875 0q-0.859375 0 -1.234375 -0.328125q-0.375 -0.34375 -0.375 -0.875q0 -0.53125 0.375 -0.859375q0.359375 -0.34375 1.125 -0.34375l0 -5.828125q-0.765625 0 -1.125 -0.34375q-0.375 -0.34375 -0.375 -0.875q0 -0.515625 0.375 -0.84375q0.375 -0.34375 1.234375 -0.34375l2.296875 0zm16.761719 10.5625l-4.15625 -8.15625q-0.59375 -0.078125 -0.90625 -0.40625q-0.296875 -0.328125 -0.296875 -0.796875q0 -0.53125 0.375 -0.859375q0.375 -0.34375 1.234375 -0.34375l2.1875 0q0.875 0 1.234375 0.34375q0.375 0.328125 0.375 0.859375q0 0.53125 -0.375 0.875q-0.359375 0.328125 -1.15625 0.328125l2.828125 5.515625l2.8125 -5.515625q-0.765625 0 -1.140625 -0.328125q-0.359375 -0.34375 -0.359375 -0.890625q0 -0.515625 0.359375 -0.84375q0.375 -0.34375 1.234375 -0.34375l2.265625 0q0.859375 0 1.21875 0.34375q0.375 0.328125 0.375 0.859375q0 0.484375 -0.3125 0.828125q-0.3125 0.328125 -0.9375 0.375l-5.515625 10.84375q0.90625 0 1.1875 0.1875q0.5625 0.359375 0.5625 1.03125q0 0.515625 -0.375 0.84375q-0.359375 0.34375 -1.234375 0.34375l-5.234375 0q-0.859375 0 -1.234375 -0.34375q-0.375 -0.328125 -0.375 -0.84375q0 -0.546875 0.375 -0.890625q0.375 -0.328125 1.234375 -0.328125l2.390625 0l1.359375 -2.6875zm13.261719 -15.125l0 5.125q0.75 -0.453125 1.515625 -0.65625q0.78125 -0.21875 1.5625 -0.21875q1.234375 0 2.203125 0.421875q0.984375 0.421875 1.625 1.328125q0.640625 0.90625 0.640625 2.28125l0 4.515625q0.90625 0 1.1875 0.171875q0.5625 0.375 0.5625 1.03125q0 0.53125 -0.359375 0.875q-0.359375 0.328125 -1.234375 0.328125l-2.734375 0q-0.859375 0 -1.234375 -0.328125q-0.359375 -0.34375 -0.359375 -0.875q0 -0.65625 0.5625 -1.03125q0.28125 -0.1875 1.1875 -0.171875l0 -4.34375q0 -0.921875 -0.421875 -1.296875q-0.546875 -0.515625 -1.625 -0.515625q-0.796875 0 -1.421875 0.3125q-0.609375 0.3125 -1.65625 1.34375l0 4.5q0.9375 0 1.203125 0.171875q0.578125 0.375 0.578125 1.03125q0 0.53125 -0.375 0.875q-0.375 0.328125 -1.234375 0.328125l-2.734375 0q-0.859375 0 -1.234375 -0.328125q-0.375 -0.34375 -0.375 -0.875q0 -0.65625 0.578125 -1.03125q0.28125 -0.1875 1.203125 -0.171875l0 -10.390625l-0.421875 0q-0.859375 0 -1.234375 -0.328125q-0.359375 -0.34375 -0.359375 -0.875q0 -0.53125 0.359375 -0.859375q0.375 -0.34375 1.234375 -0.34375l2.8125 0zm23.121094 10.078125q0 1.390625 -0.765625 2.6875q-0.765625 1.28125 -2.28125 2.0625q-1.515625 0.765625 -3.171875 0.765625q-1.640625 0 -3.140625 -0.75q-1.5 -0.765625 -2.28125 -2.0625q-0.78125 -1.3125 -0.78125 -2.71875q0 -1.453125 0.796875 -2.828125q0.796875 -1.390625 2.28125 -2.1875q1.5 -0.796875 3.125 -0.796875q1.640625 0 3.15625 0.8125q1.515625 0.8125 2.28125 2.1875q0.78125 1.375 0.78125 2.828125zm-2.390625 0.015625q0 -1.15625 -0.84375 -2.140625q-1.125 -1.3125 -2.984375 -1.3125q-1.625 0 -2.71875 1.046875q-1.09375 1.046875 -1.09375 2.421875q0 1.125 1.09375 2.109375q1.109375 0.96875 2.71875 0.96875q1.625 0 2.71875 -0.96875q1.109375 -0.984375 1.109375 -2.125zm6.8554688 -5.53125l0 0.671875q0.578125 -0.5625 1.046875 -0.78125q0.484375 -0.21875 1.109375 -0.21875q0.515625 0 1.03125 0.265625q0.515625 0.25 1.015625 0.765625q0.625 -0.515625 1.25 -0.765625q0.640625 -0.25 1.3125 -0.25q1.34375 0 2.171875 0.703125q1.09375 0.9375 1.09375 2.46875l0 5.375q0.75 0 1.109375 0.34375q0.37501526 0.34375 0.37501526 0.859375q0 0.53125 -0.37501526 0.875q-0.359375 0.328125 -1.21875 0.328125l-2.28125 0l0 -7.578125q0 -0.5625 -0.203125 -0.765625q-0.203125 -0.21875 -0.609375 -0.21875q-0.40625 0 -0.734375 0.21875q-0.4375 0.296875 -1.0625 1.09375l0 4.84375q0.75 0 1.109375 0.34375q0.375 0.34375 0.375 0.859375q0 0.53125 -0.375 0.875q-0.359375 0.328125 -1.21875 0.328125l-2.296875 0l0 -7.578125q0 -0.546875 -0.203125 -0.765625q-0.203125 -0.21875 -0.609375 -0.21875q-0.421875 0 -0.84375 0.265625q-0.40625 0.265625 -0.96875 1.046875l0 4.84375q0.75 0 1.109375 0.34375q0.375 0.34375 0.375 0.859375q0 0.53125 -0.375 0.875q-0.359375 0.328125 -1.234375 0.328125l-2.171875 0q-0.859375 0 -1.234375 -0.328125q-0.375 -0.34375 -0.375 -0.875q0 -0.53125 0.375 -0.859375q0.359375 -0.34375 1.125 -0.34375l0 -5.828125q-0.765625 0 -1.125 -0.34375q-0.375 -0.34375 -0.375 -0.875q0 -0.515625 0.375 -0.84375q0.375 -0.34375 1.234375 -0.34375l2.296875 0zm24.136734 6.53125l-9.859375 0q0.375 0.9375 1.328125 1.515625q0.953125 0.578125 2.59375 0.578125q1.328125 0 3.546875 -0.578125q0.90625 -0.234375 1.265625 -0.234375q0.484375 0 0.8125 0.34375q0.328125 0.34375 0.328125 0.859375q0 0.46875 -0.359375 0.796875q-0.46875 0.421875 -2.28125 0.828125q-1.8125 0.390625 -3.5 0.390625q-2.875 0 -4.609375 -1.625q-1.71875 -1.640625 -1.71875 -4.015625q0 -2.53125 1.859375 -4.109375q1.875 -1.59375 4.3125 -1.59375q1.46875 0 2.6875 0.515625q1.21875 0.515625 1.828125 1.109375q0.84375 0.859375 1.390625 2.140625q0.375 0.890625 0.375 2.0625l0 1.015625zm-2.65625 -2.390625q-0.5625 -1.03125 -1.453125 -1.546875q-0.890625 -0.515625 -2.109375 -0.515625q-1.21875 0 -2.109375 0.515625q-0.890625 0.515625 -1.453125 1.546875l7.125 0zm8.042969 5.171875l0 3.9375l1.4375 0q0.875 0 1.234375 0.328125q0.375 0.34375 0.375 0.890625q0 0.515625 -0.375 0.84375q-0.359375 0.34375 -1.234375 0.34375l-4.25 0q-0.859375 0 -1.234375 -0.34375q-0.375 -0.328125 -0.375 -0.84375q0 -0.546875 0.375 -0.890625q0.375 -0.328125 1.234375 -0.328125l0.40625 0l0 -10.84375l-0.40625 0q-0.859375 0 -1.234375 -0.328125q-0.375 -0.34375 -0.375 -0.890625q0 -0.515625 0.375 -0.84375q0.375 -0.34375 1.234375 -0.34375l2.8125 0l0 0.8125q0.84375 -0.5625 1.75 -0.84375q0.90625 -0.28125 1.84375 -0.28125q2.46875 0 4.203125 1.671875q1.734375 1.65625 1.734375 3.8125q0 2.390625 -2.046875 3.9375q-1.71875 1.28125 -3.859375 1.28125q-0.921875 0 -1.828125 -0.265625q-0.90625 -0.265625 -1.796875 -0.8125zm7.125 -4.125q0 -0.5 -0.40625 -1.28125q-0.390625 -0.78125 -1.21875 -1.296875q-0.828125 -0.53125 -1.9375 -0.53125q-1.796875 0 -2.84375 1.359375q-0.71875 0.921875 -0.71875 1.78125q0 0.953125 1.015625 1.859375q1.03125 0.90625 2.546875 0.90625q1.53125 0 2.546875 -0.890625q1.015625 -0.90625 1.015625 -1.90625zm12.417969 5.453125l0 -0.5625q-0.890625 0.484375 -1.984375 0.71875q-1.09375 0.25 -1.984375 0.25q-1.9375 0 -3.140625 -1.03125q-1.203125 -1.03125 -1.203125 -2.265625q0 -1.515625 1.53125 -2.8125q1.546875 -1.296875 4.265625 -1.296875q1.09375 0 2.515625 0.234375l0 -0.578125q0 -0.53125 -0.46875 -0.875q-0.453125 -0.34375 -1.75 -0.34375q-1.0625 0 -2.765625 0.421875q-0.640625 0.15625 -0.984375 0.15625q-0.484375 0 -0.828125 -0.34375q-0.328125 -0.34375 -0.328125 -0.890625q0 -0.296875 0.109375 -0.515625q0.125 -0.234375 0.328125 -0.359375q0.21875 -0.140625 0.890625 -0.328125q0.890625 -0.25 1.8125 -0.390625q0.9375 -0.140625 1.6875 -0.140625q2.234375 0 3.46875 0.96875q1.234375 0.953125 1.234375 2.640625l0 4.9375l0.40625 0q0.875 0 1.234375 0.34375q0.375 0.328125 0.375 0.859375q0 0.53125 -0.375 0.875q-0.359375 0.328125 -1.234375 0.328125l-2.8125 0zm0 -4.296875q-1.4375 -0.28125 -2.65625 -0.28125q-1.46875 0 -2.515625 0.703125q-0.65625 0.46875 -0.65625 0.9375q0 0.328125 0.3125 0.546875q0.59375 0.390625 1.609375 0.390625q0.859375 0 1.953125 -0.34375q1.109375 -0.34375 1.953125 -0.921875l0 -1.03125zm14.886719 -5.625l0 -0.71875l2.8125 0q0.875 0 1.234375 0.34375q0.375 0.328125 0.375 0.859375q0 0.53125 -0.375 0.875q-0.359375 0.328125 -1.234375 0.328125l-0.40625 0l0 8.734375q0 1.265625 -0.53125 2.203125q-0.53125 0.953125 -1.640625 1.625q-1.09375 0.6875 -2.484375 0.6875l-2.71875 0q-0.859375 0 -1.234375 -0.34375q-0.375 -0.328125 -0.375 -0.84375q0 -0.546875 0.375 -0.890625q0.375 -0.328125 1.234375 -0.328125l2.65625 0q1.09375 0 1.703125 -0.59375q0.609375 -0.59375 0.609375 -1.515625l0 -1.171875q-0.796875 0.515625 -1.625 0.765625q-0.828125 0.265625 -1.6875 0.265625q-2.453125 0 -4.109375 -1.625q-1.640625 -1.640625 -1.640625 -4.046875q0 -2.40625 1.640625 -4.046875q1.65625 -1.640625 4.109375 -1.640625q0.90625 0 1.734375 0.265625q0.828125 0.265625 1.578125 0.8125zm-0.015625 4.59375q0 -1.3125 -0.984375 -2.28125q-0.96875 -0.984375 -2.34375 -0.984375q-1.359375 0 -2.34375 0.984375q-0.984375 0.96875 -0.984375 2.28125q0 1.34375 0.984375 2.3125q0.984375 0.96875 2.34375 0.96875q1.375 0 2.34375 -0.96875q0.984375 -0.96875 0.984375 -2.3125zm17.808594 1.21875l-9.859375 0q0.375 0.9375 1.328125 1.515625q0.953125 0.578125 2.59375 0.578125q1.328125 0 3.546875 -0.578125q0.90625 -0.234375 1.265625 -0.234375q0.484375 0 0.8125 0.34375q0.328125 0.34375 0.328125 0.859375q0 0.46875 -0.359375 0.796875q-0.46875 0.421875 -2.28125 0.828125q-1.8125 0.390625 -3.5 0.390625q-2.875 0 -4.609375 -1.625q-1.71875 -1.640625 -1.71875 -4.015625q0 -2.53125 1.859375 -4.109375q1.875 -1.59375 4.3125 -1.59375q1.46875 0 2.6875 0.515625q1.21875 0.515625 1.828125 1.109375q0.84375 0.859375 1.390625 2.140625q0.375 0.890625 0.375 2.0625l0 1.015625zm-2.65625 -2.390625q-0.5625 -1.03125 -1.453125 -1.546875q-0.890625 -0.515625 -2.109375 -0.515625q-1.21875 0 -2.109375 0.515625q-0.890625 0.515625 -1.453125 1.546875l7.125 0zm12.855469 5.296875q0 0.671875 -0.484375 1.140625q-0.46875 0.453125 -1.3125 0.453125q-0.84375 0 -1.328125 -0.453125q-0.484375 -0.46875 -0.484375 -1.140625q0 -0.6875 0.484375 -1.140625q0.484375 -0.453125 1.328125 -0.453125q0.84375 0 1.3125 0.453125q0.484375 0.453125 0.484375 1.140625zm18.089844 -14.0l0 12.796875l0.40625 0q0.859375 0 1.234375 0.34375q0.375 0.328125 0.375 0.859375q0 0.53125 -0.375 0.875q-0.359375 0.328125 -1.234375 0.328125l-2.8125 0l0 -0.59375q-0.8125 0.484375 -1.71875 0.734375q-0.890625 0.25 -1.859375 0.25q-2.703125 0 -4.359375 -1.5625q-1.640625 -1.578125 -1.640625 -3.90625q0 -2.4375 1.734375 -4.15625q1.734375 -1.71875 4.21875 -1.71875q0.9375 0 1.84375 0.28125q0.90625 0.28125 1.78125 0.859375l0 -2.984375l-0.40625 0q-0.875 0 -1.25 -0.328125q-0.359375 -0.34375 -0.359375 -0.875q0 -0.53125 0.359375 -0.859375q0.375 -0.34375 1.25 -0.34375l2.8125 0zm-2.40625 10.203125q0 -1.5 -1.046875 -2.53125q-1.03125 -1.03125 -2.546875 -1.03125q-1.5 0 -2.546875 1.03125q-1.046875 1.03125 -1.046875 2.484375q0 1.328125 0.9375 2.1875q0.9375 0.84375 2.65625 0.84375q1.703125 0 2.640625 -0.84375q0.953125 -0.859375 0.953125 -2.140625zm17.324219 0.890625l-9.859375 0q0.375 0.9375 1.328125 1.515625q0.953125 0.578125 2.59375 0.578125q1.328125 0 3.546875 -0.578125q0.90625 -0.234375 1.265625 -0.234375q0.484375 0 0.8125 0.34375q0.328125 0.34375 0.328125 0.859375q0 0.46875 -0.359375 0.796875q-0.46875 0.421875 -2.28125 0.828125q-1.8125 0.390625 -3.5 0.390625q-2.875 0 -4.609375 -1.625q-1.71875 -1.640625 -1.71875 -4.015625q0 -2.53125 1.859375 -4.109375q1.875 -1.59375 4.3125 -1.59375q1.46875 0 2.6875 0.515625q1.21875 0.515625 1.828125 1.109375q0.84375 0.859375 1.390625 2.140625q0.375 0.890625 0.375 2.0625l0 1.015625zm-2.65625 -2.390625q-0.5625 -1.03125 -1.453125 -1.546875q-0.890625 -0.515625 -2.109375 -0.515625q-1.21875 0 -2.109375 0.515625q-0.890625 0.515625 -1.453125 1.546875l7.125 0zm12.839844 -2.53125q0 0.671875 -0.484375 1.140625q-0.484375 0.453125 -1.328125 0.453125q-0.84375 0 -1.328125 -0.453125q-0.46875 -0.46875 -0.46875 -1.140625q0 -0.6875 0.46875 -1.140625q0.484375 -0.453125 1.328125 -0.453125q0.84375 0 1.328125 0.453125q0.484375 0.453125 0.484375 1.140625zm0.015625 7.859375q0 0.671875 -0.484375 1.140625q-0.46875 0.453125 -1.3125 0.453125q-0.84375 0 -1.328125 -0.453125q-0.484375 -0.46875 -0.484375 -1.140625q0 -0.6875 0.484375 -1.140625q0.484375 -0.453125 1.328125 -0.453125q0.84375 0 1.3125 0.453125q0.484375 0.453125 0.484375 1.140625zm15.980469 -6.5q0.921875 0.703125 1.375 1.625q0.46875 0.90625 0.46875 1.984375q0 1.21875 -0.59375 2.234375q-0.578125 1.0 -1.84375 1.59375q-1.265625 0.59375 -2.8125 0.59375q-1.546875 0 -2.796875 -0.59375q-1.234375 -0.59375 -1.828125 -1.609375q-0.59375 -1.015625 -0.59375 -2.21875q0 -1.078125 0.453125 -1.984375q0.46875 -0.921875 1.390625 -1.625q-0.796875 -0.75 -1.21875 -1.59375q-0.40625 -0.84375 -0.40625 -1.78125q0 -1.84375 1.40625 -3.171875q1.40625 -1.328125 3.609375 -1.328125q2.203125 0 3.609375 1.328125q1.40625 1.328125 1.40625 3.171875q0 0.9375 -0.40625 1.78125q-0.40625 0.84375 -1.21875 1.59375zm-0.828125 -3.328125q0 -0.890625 -0.703125 -1.515625q-0.703125 -0.640625 -1.875 -0.640625q-1.203125 0 -1.90625 0.640625q-0.6875 0.625 -0.6875 1.515625q0 0.890625 0.6875 1.53125q0.703125 0.625 1.90625 0.625q1.171875 0 1.875 -0.625q0.703125 -0.640625 0.703125 -1.53125zm0.28125 7.0625q0 -0.953125 -0.828125 -1.71875q-0.8125 -0.765625 -2.015625 -0.765625q-1.203125 0 -2.015625 0.765625q-0.8125 0.765625 -0.8125 1.734375q0 0.75 0.703125 1.3125q0.703125 0.5625 2.125 0.5625q1.4375 0 2.140625 -0.5625q0.703125 -0.5625 0.703125 -1.328125zm16.792969 -4.984375l0 2.640625q0 2.34375 -1.359375 4.5q-1.359375 2.140625 -3.875 2.140625q-1.453125 0 -2.453125 -0.640625q-1.0 -0.640625 -1.90625 -2.359375q-0.890625 -1.71875 -0.890625 -3.640625l0 -2.640625q0 -2.328125 1.34375 -4.46875q1.359375 -2.15625 3.875 -2.15625q1.4375 0 2.4375 0.640625q1.0 0.625 1.90625 2.34375q0.921875 1.703125 0.921875 3.640625zm-2.421875 0q0 -1.953125 -1.09375 -3.421875q-0.609375 -0.8125 -1.734375 -0.8125q-1.09375 0 -1.78125 0.890625q-1.046875 1.359375 -1.046875 3.34375l0 2.640625q0 1.96875 1.09375 3.421875q0.609375 0.8125 1.75 0.8125q1.078125 0 1.765625 -0.890625q1.046875 -1.359375 1.046875 -3.34375l0 -2.640625zm14.980469 1.25q0.921875 0.703125 1.375 1.625q0.46875 0.90625 0.46875 1.984375q0 1.21875 -0.59375 2.234375q-0.578125 1.0 -1.84375 1.59375q-1.265625 0.59375 -2.8125 0.59375q-1.546875 0 -2.796875 -0.59375q-1.234375 -0.59375 -1.828125 -1.609375q-0.59375 -1.015625 -0.59375 -2.21875q0 -1.078125 0.453125 -1.984375q0.46875 -0.921875 1.390625 -1.625q-0.796875 -0.75 -1.21875 -1.59375q-0.40625 -0.84375 -0.40625 -1.78125q0 -1.84375 1.40625 -3.171875q1.40625 -1.328125 3.609375 -1.328125q2.203125 0 3.609375 1.328125q1.40625 1.328125 1.40625 3.171875q0 0.9375 -0.40625 1.78125q-0.40625 0.84375 -1.21875 1.59375zm-0.828125 -3.328125q0 -0.890625 -0.703125 -1.515625q-0.703125 -0.640625 -1.875 -0.640625q-1.203125 0 -1.90625 0.640625q-0.6875 0.625 -0.6875 1.515625q0 0.890625 0.6875 1.53125q0.703125 0.625 1.90625 0.625q1.171875 0 1.875 -0.625q0.703125 -0.640625 0.703125 -1.53125zm0.28125 7.0625q0 -0.953125 -0.828125 -1.71875q-0.8125 -0.765625 -2.015625 -0.765625q-1.203125 0 -2.015625 0.765625q-0.8125 0.765625 -0.8125 1.734375q0 0.75 0.703125 1.3125q0.703125 0.5625 2.125 0.5625q1.4375 0 2.140625 -0.5625q0.703125 -0.5625 0.703125 -1.328125zm16.792969 -4.984375l0 2.640625q0 2.34375 -1.359375 4.5q-1.359375 2.140625 -3.875 2.140625q-1.453125 0 -2.453125 -0.640625q-1.0 -0.640625 -1.90625 -2.359375q-0.890625 -1.71875 -0.890625 -3.640625l0 -2.640625q0 -2.328125 1.34375 -4.46875q1.359375 -2.15625 3.875 -2.15625q1.4375 0 2.4375 0.640625q1.0 0.625 1.90625 2.34375q0.921875 1.703125 0.921875 3.640625zm-2.421875 0q0 -1.953125 -1.09375 -3.421875q-0.609375 -0.8125 -1.734375 -0.8125q-1.09375 0 -1.78125 0.890625q-1.046875 1.359375 -1.046875 3.34375l0 2.640625q0 1.96875 1.09375 3.421875q0.609375 0.8125 1.75 0.8125q1.078125 0 1.765625 -0.890625q1.046875 -1.359375 1.046875 -3.34375l0 -2.640625zm16.527344 -5.96875l-7.703125 16.609375q-0.296875 0.609375 -0.53125 0.796875q-0.296875 0.25 -0.734375 0.25q-0.484375 0 -0.84375 -0.359375q-0.359375 -0.34375 -0.359375 -0.78125q0 -0.328125 0.28125 -0.9375l7.71875 -16.578125q0.296875 -0.625 0.515625 -0.8125q0.3125 -0.25 0.734375 -0.25q0.5 0 0.84375 0.359375q0.359375 0.34375 0.359375 0.78125q0 0.3125 -0.28125 0.921875zm6.4648438 13.5625l0 3.9375l1.4375 0q0.875 0 1.234375 0.328125q0.375 0.34375 0.375 0.890625q0 0.515625 -0.375 0.84375q-0.359375 0.34375 -1.234375 0.34375l-4.25 0q-0.859375 0 -1.234375 -0.34375q-0.375 -0.328125 -0.375 -0.84375q0 -0.546875 0.375 -0.890625q0.375 -0.328125 1.234375 -0.328125l0.40625 0l0 -10.84375l-0.40625 0q-0.859375 0 -1.234375 -0.328125q-0.375 -0.34375 -0.375 -0.890625q0 -0.515625 0.375 -0.84375q0.375 -0.34375 1.234375 -0.34375l2.8125 0l0 0.8125q0.84375 -0.5625 1.75 -0.84375q0.90625 -0.28125 1.84375 -0.28125q2.46875 0 4.203125 1.671875q1.734375 1.65625 1.734375 3.8125q0 2.390625 -2.046875 3.9375q-1.71875 1.28125 -3.859375 1.28125q-0.921875 0 -1.828125 -0.265625q-0.90625 -0.265625 -1.796875 -0.8125zm7.125 -4.125q0 -0.5 -0.40625 -1.28125q-0.390625 -0.78125 -1.21875 -1.296875q-0.828125 -0.53125 -1.9375 -0.53125q-1.796875 0 -2.84375 1.359375q-0.71875 0.921875 -0.71875 1.78125q0 0.953125 1.015625 1.859375q1.03125 0.90625 2.546875 0.90625q1.53125 0 2.546875 -0.890625q1.015625 -0.90625 1.015625 -1.90625zm12.417969 5.453125l0 -0.5625q-0.890625 0.484375 -1.984375 0.71875q-1.09375 0.25 -1.984375 0.25q-1.9375 0 -3.140625 -1.03125q-1.203125 -1.03125 -1.203125 -2.265625q0 -1.515625 1.53125 -2.8125q1.546875 -1.296875 4.265625 -1.296875q1.09375 0 2.515625 0.234375l0 -0.578125q0 -0.53125 -0.46875 -0.875q-0.453125 -0.34375 -1.75 -0.34375q-1.0625 0 -2.765625 0.421875q-0.640625 0.15625 -0.984375 0.15625q-0.484375 0 -0.828125 -0.34375q-0.328125 -0.34375 -0.328125 -0.890625q0 -0.296875 0.109375 -0.515625q0.125 -0.234375 0.328125 -0.359375q0.21875 -0.140625 0.890625 -0.328125q0.890625 -0.25 1.8125 -0.390625q0.9375 -0.140625 1.6875 -0.140625q2.234375 0 3.46875 0.96875q1.234375 0.953125 1.234375 2.640625l0 4.9375l0.40625 0q0.875 0 1.234375 0.34375q0.375 0.328125 0.375 0.859375q0 0.53125 -0.375 0.875q-0.359375 0.328125 -1.234375 0.328125l-2.8125 0zm0 -4.296875q-1.4375 -0.28125 -2.65625 -0.28125q-1.46875 0 -2.515625 0.703125q-0.65625 0.46875 -0.65625 0.9375q0 0.328125 0.3125 0.546875q0.59375 0.390625 1.609375 0.390625q0.859375 0 1.953125 -0.34375q1.109375 -0.34375 1.953125 -0.921875l0 -1.03125zm11.652344 -3.9375l0 4.8125q0 0.765625 0.3125 1.015625q0.5 0.390625 1.765625 0.390625q1.84375 0 3.390625 -0.78125q0.609375 -0.3125 0.9375 -0.3125q0.46875 0 0.8125 0.359375q0.359375 0.34375 0.359375 0.84375q0 0.46875 -0.375 0.8125q-0.578125 0.546875 -2.28125 1.015625q-1.6875 0.46875 -2.84375 0.46875q-2.234375 0 -3.359375 -0.96875q-1.125 -0.96875 -1.125 -2.375l0 -5.28125l-0.859375 0q-0.875 0 -1.25 -0.328125q-0.359375 -0.34375 -0.359375 -0.890625q0 -0.515625 0.359375 -0.84375q0.375 -0.34375 1.25 -0.34375l0.859375 0l0 -2.171875q0 -0.859375 0.328125 -1.234375q0.34375 -0.375 0.890625 -0.375q0.515625 0 0.84375 0.375q0.34375 0.375 0.34375 1.234375l0 2.171875l4.4375 0q0.875 0 1.234375 0.34375q0.375 0.328125 0.375 0.859375q0 0.53125 -0.375 0.875q-0.359375 0.328125 -1.234375 0.328125l-4.4375 0zm12.511719 -6.96875l0 5.125q0.75 -0.453125 1.515625 -0.65625q0.78125 -0.21875 1.5625 -0.21875q1.234375 0 2.203125 0.421875q0.984375 0.421875 1.625 1.328125q0.640625 0.90625 0.640625 2.28125l0 4.515625q0.90625 0 1.1875 0.171875q0.5625 0.375 0.5625 1.03125q0 0.53125 -0.359375 0.875q-0.359375 0.328125 -1.234375 0.328125l-2.734375 0q-0.859375 0 -1.234375 -0.328125q-0.359375 -0.34375 -0.359375 -0.875q0 -0.65625 0.5625 -1.03125q0.28125 -0.1875 1.1875 -0.171875l0 -4.34375q0 -0.921875 -0.421875 -1.296875q-0.546875 -0.515625 -1.625 -0.515625q-0.796875 0 -1.421875 0.3125q-0.609375 0.3125 -1.65625 1.34375l0 4.5q0.9375 0 1.203125 0.171875q0.578125 0.375 0.578125 1.03125q0 0.53125 -0.375 0.875q-0.375 0.328125 -1.234375 0.328125l-2.734375 0q-0.859375 0 -1.234375 -0.328125q-0.375 -0.34375 -0.375 -0.875q0 -0.65625 0.578125 -1.03125q0.28125 -0.1875 1.203125 -0.171875l0 -10.390625l-0.421875 0q-0.859375 0 -1.234375 -0.328125q-0.359375 -0.34375 -0.359375 -0.875q0 -0.53125 0.359375 -0.859375q0.375 -0.34375 1.234375 -0.34375l2.8125 0z" fill-rule="nonzero"></path><path fill="#000000" d="m523.32605 39.667664q-0.0625 0.6875 -0.390625 1.0q-0.3125 0.296875 -0.8125 0.296875q-0.53125 0 -0.859375 -0.359375q-0.328125 -0.375 -0.328125 -1.234375l0 -1.359375q2.84375 -1.078125 3.421875 -1.65625q0.59375 -0.59375 0.59375 -1.203125q0 -0.859375 -0.6875 -1.484375q-0.6875 -0.625 -1.9375 -0.625q-1.328125 0 -2.5625 0.609375l0 0.359375q0 0.859375 -0.328125 1.234375q-0.328125 0.359375 -0.875 0.359375q-0.53125 0 -0.859375 -0.359375q-0.328125 -0.375 -0.328125 -1.234375l0 -1.9375q1.828125 -0.859375 2.84375 -1.140625q1.03125 -0.28125 2.125 -0.28125q2.265625 0 3.640625 1.3125q1.375 1.3125 1.375 3.28125q0 1.40625 -0.828125 2.390625q-0.828125 0.984375 -3.203125 2.03125zm0.515625 4.640625q0 0.546875 -0.40625 0.90625q-0.390625 0.34375 -1.296875 0.34375q-0.921875 0 -1.3125 -0.34375q-0.390625 -0.359375 -0.390625 -0.90625q0 -0.546875 0.390625 -0.890625q0.390625 -0.34375 1.3125 -0.34375q0.90625 0 1.296875 0.34375q0.40625 0.34375 0.40625 0.890625zm10.230469 -9.734375l0 0.8125q0.65625 -0.5625 1.453125 -0.84375q0.796875 -0.28125 1.71875 -0.28125q2.125 0 3.375 1.3125q0.984375 1.0625 0.984375 2.765625l0 4.46875q0.765625 0 1.125 0.34375q0.359375 0.328125 0.359375 0.859375q0 0.53125 -0.375 0.875q-0.359375 0.328125 -1.234375 0.328125l-2.15625 0q-0.875 0 -1.25 -0.328125q-0.359375 -0.34375 -0.359375 -0.875q0 -0.53125 0.359375 -0.859375q0.359375 -0.34375 1.125 -0.34375l0 -4.53125q0 -0.78125 -0.421875 -1.15625q-0.546875 -0.46875 -1.65625 -0.46875q-0.828125 0 -1.453125 0.328125q-0.625 0.328125 -1.59375 1.359375l0 4.46875q0.9375 0 1.203125 0.171875q0.578125 0.359375 0.578125 1.03125q0 0.53125 -0.375 0.875q-0.375 0.328125 -1.234375 0.328125l-2.734375 0q-0.859375 0 -1.234375 -0.328125q-0.375 -0.34375 -0.375 -0.875q0 -0.65625 0.5625 -1.03125q0.28125 -0.171875 1.21875 -0.171875l0 -5.828125q-0.765625 0 -1.140625 -0.34375q-0.359375 -0.34375 -0.359375 -0.875q0 -0.515625 0.375 -0.84375q0.375 -0.34375 1.234375 -0.34375l2.28125 0zm18.996094 10.640625l0 -0.5625q-0.890625 0.484375 -1.984375 0.71875q-1.09375 0.25 -1.984375 0.25q-1.9375 0 -3.140625 -1.03125q-1.203125 -1.03125 -1.203125 -2.265625q0 -1.515625 1.53125 -2.8125q1.546875 -1.296875 4.265625 -1.296875q1.09375 0 2.515625 0.234375l0 -0.578125q0 -0.53125 -0.46875 -0.875q-0.453125 -0.34375 -1.75 -0.34375q-1.0625 0 -2.765625 0.421875q-0.640625 0.15625 -0.984375 0.15625q-0.484375 0 -0.828125 -0.34375q-0.328125 -0.34375 -0.328125 -0.890625q0 -0.296875 0.109375 -0.515625q0.125 -0.234375 0.328125 -0.359375q0.21875 -0.140625 0.890625 -0.328125q0.890625 -0.25 1.8125 -0.390625q0.9375 -0.140625 1.6875 -0.140625q2.234375 0 3.46875 0.96875q1.234375 0.953125 1.234375 2.640625l0 4.9375l0.40625 0q0.875 0 1.234375 0.34375q0.375 0.328125 0.375 0.859375q0 0.53125 -0.375 0.875q-0.359375 0.328125 -1.234375 0.328125l-2.8125 0zm0 -4.296875q-1.4375 -0.28125 -2.65625 -0.28125q-1.46875 0 -2.515625 0.703125q-0.65625 0.46875 -0.65625 0.9375q0 0.328125 0.3125 0.546875q0.59375 0.390625 1.609375 0.390625q0.859375 0 1.953125 -0.34375q1.109375 -0.34375 1.953125 -0.921875l0 -1.03125zm8.542969 -6.34375l0 0.671875q0.578125 -0.5625 1.046875 -0.78125q0.484375 -0.21875 1.109375 -0.21875q0.515625 0 1.03125 0.265625q0.515625 0.25 1.015625 0.765625q0.625 -0.515625 1.25 -0.765625q0.640625 -0.25 1.3125 -0.25q1.34375 0 2.171875 0.703125q1.09375 0.9375 1.09375 2.46875l0 5.375q0.75 0 1.109375 0.34375q0.375 0.34375 0.375 0.859375q0 0.53125 -0.375 0.875q-0.359375 0.328125 -1.21875 0.328125l-2.28125 0l0 -7.578125q0 -0.5625 -0.203125 -0.765625q-0.203125 -0.21875 -0.609375 -0.21875q-0.40625 0 -0.734375 0.21875q-0.4375 0.296875 -1.0625 1.09375l0 4.84375q0.75 0 1.109375 0.34375q0.375 0.34375 0.375 0.859375q0 0.53125 -0.375 0.875q-0.359375 0.328125 -1.21875 0.328125l-2.296875 0l0 -7.578125q0 -0.546875 -0.203125 -0.765625q-0.203125 -0.21875 -0.609375 -0.21875q-0.421875 0 -0.84375 0.265625q-0.40625 0.265625 -0.96875 1.046875l0 4.84375q0.75 0 1.109375 0.34375q0.375 0.34375 0.375 0.859375q0 0.53125 -0.375 0.875q-0.359375 0.328125 -1.234375 0.328125l-2.171875 0q-0.859375 0 -1.234375 -0.328125q-0.375 -0.34375 -0.375 -0.875q0 -0.53125 0.375 -0.859375q0.359375 -0.34375 1.125 -0.34375l0 -5.828125q-0.765625 0 -1.125 -0.34375q-0.375 -0.34375 -0.375 -0.875q0 -0.515625 0.375 -0.84375q0.375 -0.34375 1.234375 -0.34375l2.296875 0zm24.136719 6.53125l-9.859375 0q0.375 0.9375 1.328125 1.515625q0.953125 0.578125 2.59375 0.578125q1.328125 0 3.546875 -0.578125q0.90625 -0.234375 1.265625 -0.234375q0.484375 0 0.8125 0.34375q0.328125 0.34375 0.328125 0.859375q0 0.46875 -0.359375 0.796875q-0.46875 0.421875 -2.28125 0.828125q-1.8125 0.390625 -3.5 0.390625q-2.875 0 -4.609375 -1.625q-1.71875 -1.640625 -1.71875 -4.015625q0 -2.53125 1.859375 -4.109375q1.875 -1.59375 4.3125 -1.59375q1.46875 0 2.6875 0.515625q1.21875 0.515625 1.828125 1.109375q0.84375 0.859375 1.390625 2.140625q0.375 0.890625 0.375 2.0625l0 1.015625zm-2.65625 -2.390625q-0.5625 -1.03125 -1.453125 -1.546875q-0.890625 -0.515625 -2.109375 -0.515625q-1.21875 0 -2.109375 0.515625q-0.890625 0.515625 -1.453125 1.546875l7.125 0zm16.183594 -1.40625l-10.265625 0q-0.875 0 -1.25 -0.328125q-0.359375 -0.328125 -0.359375 -0.875q0 -0.53125 0.359375 -0.859375q0.375 -0.328125 1.25 -0.328125l10.265625 0q0.859375 0 1.21875 0.328125q0.375 0.328125 0.375 0.875q0 0.53125 -0.375 0.859375q-0.359375 0.328125 -1.21875 0.328125zm0 4.53125l-10.265625 0q-0.875 0 -1.25 -0.328125q-0.359375 -0.328125 -0.359375 -0.875q0 -0.53125 0.359375 -0.859375q0.375 -0.34375 1.25 -0.34375l10.265625 0q0.859375 0 1.21875 0.34375q0.375 0.328125 0.375 0.859375q0 0.546875 -0.375 0.875q-0.359375 0.328125 -1.21875 0.328125zm5.7304688 2.765625q-0.3125 0.375 -0.515625 0.484375q-0.1875 0.09375 -0.46875 0.09375q-0.546875 0 -0.890625 -0.359375q-0.328125 -0.375 -0.328125 -1.234375l0 -1.609375q0 -0.875 0.328125 -1.234375q0.34375 -0.375 0.890625 -0.375q0.421875 0 0.703125 0.234375q0.296875 0.21875 0.453125 0.734375q0.15625 0.515625 0.3125 0.703125q0.34375 0.375 1.203125 0.75q0.875 0.375 1.90625 0.375q1.609375 0 2.640625 -0.75q0.65625 -0.46875 0.65625 -1.125q0 -0.453125 -0.328125 -0.84375q-0.3125 -0.390625 -1.03125 -0.65625q-0.46875 -0.171875 -2.09375 -0.46875q-1.96875 -0.375 -2.984375 -0.890625q-1.0 -0.515625 -1.59375 -1.453125q-0.578125 -0.9375 -0.578125 -2.015625q0 -1.734375 1.4375 -3.015625q1.453125 -1.296875 3.75 -1.296875q0.9375 0 1.71875 0.203125q0.796875 0.203125 1.4375 0.625q0.46875 -0.453125 0.9375 -0.453125q0.53125 0 0.859375 0.375q0.34375 0.359375 0.34375 1.21875l0 1.796875q0 0.875 -0.34375 1.25q-0.328125 0.359375 -0.859375 0.359375q-0.4375 0 -0.765625 -0.265625q-0.265625 -0.203125 -0.390625 -0.796875q-0.125 -0.609375 -0.328125 -0.859375q-0.34375 -0.453125 -1.03125 -0.75q-0.671875 -0.3125 -1.5625 -0.3125q-1.296875 0 -2.0625 0.609375q-0.75 0.609375 -0.75 1.265625q0 0.4375 0.3125 0.859375q0.3125 0.40625 0.90625 0.640625q0.40625 0.171875 2.25 0.53125q1.84375 0.359375 2.828125 0.796875q1.0 0.4375 1.65625 1.359375q0.65625 0.921875 0.65625 2.203125q0 1.78125 -1.265625 2.84375q-1.65625 1.421875 -4.234375 1.421875q-1.0 0 -1.953125 -0.25q-0.9375 -0.234375 -1.828125 -0.71875zm23.027344 -10.03125l0 8.234375q0.75 0 1.109375 0.34375q0.375 0.34375 0.375 0.859375q0 0.53125 -0.375 0.875q-0.359375 0.328125 -1.234375 0.328125l-2.28125 0l0 -0.546875q-1.03125 0.46875 -1.96875 0.703125q-0.9375 0.234375 -1.78125 0.234375q-1.1875 0 -2.0625 -0.5q-0.859375 -0.5 -1.359375 -1.375q-0.359375 -0.640625 -0.359375 -1.59375l0 -5.15625l-0.421875 0q-0.859375 0 -1.234375 -0.328125q-0.359375 -0.34375 -0.359375 -0.890625q0 -0.515625 0.359375 -0.84375q0.375 -0.34375 1.234375 -0.34375l2.8125 0l0 7.140625q0 0.765625 0.375 1.125q0.375 0.359375 1.125 0.359375q0.734375 0 1.5625 -0.28125q0.84375 -0.296875 2.078125 -1.046875l0 -4.890625l-0.875 0q-0.859375 0 -1.234375 -0.328125q-0.359375 -0.34375 -0.359375 -0.890625q0 -0.515625 0.359375 -0.84375q0.375 -0.34375 1.234375 -0.34375l3.28125 0zm11.886719 2.8125q-0.578125 -0.359375 -1.234375 -0.546875q-0.640625 -0.1875 -1.34375 -0.1875q-1.390625 0 -2.21875 0.46875q-0.359375 0.1875 -0.359375 0.421875q0 0.28125 0.5 0.53125q0.375 0.1875 1.671875 0.359375q2.390625 0.328125 3.328125 0.65625q1.234375 0.4375 1.890625 1.296875q0.671875 0.859375 0.671875 1.796875q0 1.296875 -1.140625 2.15625q-1.625 1.265625 -4.21875 1.265625q-1.046875 0 -1.9375 -0.1875q-0.875 -0.171875 -1.625 -0.53125q-0.171875 0.15625 -0.375 0.234375q-0.1875 0.078125 -0.40625 0.078125q-0.5625 0 -0.90625 -0.359375q-0.328125 -0.375 -0.328125 -1.25l0 -0.796875q0 -0.875 0.328125 -1.234375q0.34375 -0.375 0.890625 -0.375q0.421875 0 0.71875 0.25q0.296875 0.234375 0.453125 0.8125q0.5625 0.46875 1.328125 0.71875q0.78125 0.234375 1.78125 0.234375q1.65625 0 2.5625 -0.515625q0.4375 -0.265625 0.4375 -0.546875q0 -0.46875 -0.625 -0.765625q-0.609375 -0.3125 -2.5625 -0.515625q-2.890625 -0.3125 -3.859375 -1.171875q-0.984375 -0.859375 -0.984375 -2.109375q0 -1.296875 1.09375 -2.140625q1.484375 -1.171875 3.875 -1.171875q0.828125 0 1.59375 0.15625q0.765625 0.15625 1.46875 0.484375q0.21875 -0.171875 0.40625 -0.25q0.203125 -0.078125 0.375 -0.078125q0.484375 0 0.8125 0.375q0.328125 0.359375 0.328125 1.234375l0 0.578125q0 0.78125 -0.1875 1.0625q-0.375 0.546875 -1.015625 0.546875q-0.4375 0 -0.765625 -0.265625q-0.328125 -0.28125 -0.421875 -0.71875zm12.667969 -7.375l0 2.546875l-2.859375 0l0 -2.546875l2.859375 0zm0.328125 4.5625l0 8.234375l2.890625 0q0.859375 0 1.21875 0.34375q0.375 0.328125 0.375 0.859375q0 0.53125 -0.375 0.875q-0.359375 0.328125 -1.21875 0.328125l-8.171875 0q-0.875 0 -1.25 -0.328125q-0.359375 -0.34375 -0.359375 -0.875q0 -0.53125 0.359375 -0.859375q0.375 -0.34375 1.25 -0.34375l2.875 0l0 -5.828125l-1.921875 0q-0.859375 0 -1.234375 -0.328125q-0.375 -0.34375 -0.375 -0.890625q0 -0.515625 0.359375 -0.84375q0.375 -0.34375 1.25 -0.34375l4.328125 0zm15.714844 5.875l0.59375 -2.046875l1.21875 0q0.75 0 1.03125 0.171875q0.5625 0.375 0.5625 1.046875q0 0.5 -0.296875 0.828125q-0.296875 0.328125 -0.71875 0.359375q-0.296875 1.25 -0.734375 2.0q0.953125 0 1.21875 0.171875q0.578125 0.359375 0.578125 1.03125q0 0.53125 -0.375 0.875q-0.375 0.328125 -1.234375 0.328125l-1.4375 0l-0.28125 -0.375q-0.515625 0.375 -1.0 0.515625q-0.71875 0.21875 -1.734375 0.21875q-2.125 0 -3.296875 -1.078125q-1.15625 -1.09375 -1.15625 -2.765625q0 -1.140625 0.578125 -2.171875q0.578125 -1.03125 1.78125 -1.734375q-0.515625 -0.859375 -0.6875 -1.328125q-0.15625 -0.484375 -0.15625 -1.015625q0 -1.453125 1.09375 -2.546875q1.109375 -1.109375 2.625 -1.109375q0.40625 0 0.828125 0.109375q0.421875 0.09375 0.859375 0.3125q0.421875 -0.1875 0.640625 -0.1875q0.484375 0 0.828125 0.359375q0.359375 0.34375 0.359375 0.84375q0 0.40625 -0.203125 0.671875q-0.1875 0.265625 -0.765625 0.578125l-1.015625 0.546875q-0.5625 -0.515625 -0.921875 -0.703125q-0.265625 -0.125 -0.625 -0.125q-0.546875 0 -0.921875 0.375q-0.375 0.359375 -0.375 0.84375q0 0.40625 0.6875 1.421875l2.453125 3.578125zm-3.328125 -0.609375q-1.328125 0.609375 -1.328125 1.875q0 0.671875 0.453125 1.0625q0.453125 0.390625 1.59375 0.390625q0.71875 0 1.328125 -0.359375l-2.046875 -2.96875zm17.386719 5.375l0 -0.5625q-0.890625 0.484375 -1.984375 0.71875q-1.09375 0.25 -1.984375 0.25q-1.9375 0 -3.140625 -1.03125q-1.203125 -1.03125 -1.203125 -2.265625q0 -1.515625 1.53125 -2.8125q1.546875 -1.296875 4.265625 -1.296875q1.09375 0 2.515625 0.234375l0 -0.578125q0 -0.53125 -0.46875 -0.875q-0.453125 -0.34375 -1.75 -0.34375q-1.0625 0 -2.765625 0.421875q-0.640625 0.15625 -0.984375 0.15625q-0.484375 0 -0.828125 -0.34375q-0.328125 -0.34375 -0.328125 -0.890625q0 -0.296875 0.109375 -0.515625q0.125 -0.234375 0.328125 -0.359375q0.21875 -0.140625 0.890625 -0.328125q0.890625 -0.25 1.8125 -0.390625q0.9375 -0.140625 1.6875 -0.140625q2.234375 0 3.46875 0.96875q1.234375 0.953125 1.234375 2.640625l0 4.9375l0.40625 0q0.875 0 1.234375 0.34375q0.375 0.328125 0.375 0.859375q0 0.53125 -0.375 0.875q-0.359375 0.328125 -1.234375 0.328125l-2.8125 0zm0 -4.296875q-1.4375 -0.28125 -2.65625 -0.28125q-1.46875 0 -2.515625 0.703125q-0.65625 0.46875 -0.65625 0.9375q0 0.328125 0.3125 0.546875q0.59375 0.390625 1.609375 0.390625q0.859375 0 1.953125 -0.34375q1.109375 -0.34375 1.953125 -0.921875l0 -1.03125zm14.886719 -5.625l0 -0.71875l2.8125 0q0.875 0 1.234375 0.34375q0.375 0.328125 0.375 0.859375q0 0.53125 -0.375 0.875q-0.359375 0.328125 -1.234375 0.328125l-0.40625 0l0 8.734375q0 1.265625 -0.53125 2.203125q-0.53125 0.953125 -1.640625 1.625q-1.09375 0.6875 -2.484375 0.6875l-2.71875 0q-0.859375 0 -1.234375 -0.34375q-0.375 -0.328125 -0.375 -0.84375q0 -0.546875 0.375 -0.890625q0.375 -0.328125 1.234375 -0.328125l2.65625 0q1.09375 0 1.703125 -0.59375q0.609375 -0.59375 0.609375 -1.515625l0 -1.171875q-0.796875 0.515625 -1.625 0.765625q-0.828125 0.265625 -1.6875 0.265625q-2.453125 0 -4.109375 -1.625q-1.640625 -1.640625 -1.640625 -4.046875q0 -2.40625 1.640625 -4.046875q1.65625 -1.640625 4.109375 -1.640625q0.90625 0 1.734375 0.265625q0.828125 0.265625 1.578125 0.8125zm-0.015625 4.59375q0 -1.3125 -0.984375 -2.28125q-0.96875 -0.984375 -2.34375 -0.984375q-1.359375 0 -2.34375 0.984375q-0.984375 0.96875 -0.984375 2.28125q0 1.34375 0.984375 2.3125q0.984375 0.96875 2.34375 0.96875q1.375 0 2.34375 -0.96875q0.984375 -0.96875 0.984375 -2.3125zm17.808594 1.21875l-9.859375 0q0.375 0.9375 1.328125 1.515625q0.953125 0.578125 2.59375 0.578125q1.328125 0 3.546875 -0.578125q0.90625 -0.234375 1.265625 -0.234375q0.484375 0 0.8125 0.34375q0.328125 0.34375 0.328125 0.859375q0 0.46875 -0.359375 0.796875q-0.46875 0.421875 -2.28125 0.828125q-1.8125 0.390625 -3.5 0.390625q-2.875 0 -4.609375 -1.625q-1.71875 -1.640625 -1.71875 -4.015625q0 -2.53125 1.859375 -4.109375q1.875 -1.59375 4.3125 -1.59375q1.46875 0 2.6875 0.515625q1.21875 0.515625 1.828125 1.109375q0.84375 0.859375 1.390625 2.140625q0.375 0.890625 0.375 2.0625l0 1.015625zm-2.65625 -2.390625q-0.5625 -1.03125 -1.453125 -1.546875q-0.890625 -0.515625 -2.109375 -0.515625q-1.21875 0 -2.109375 0.515625q-0.890625 0.515625 -1.453125 1.546875l7.125 0zm16.183594 -1.40625l-10.265625 0q-0.875 0 -1.25 -0.328125q-0.359375 -0.328125 -0.359375 -0.875q0 -0.53125 0.359375 -0.859375q0.375 -0.328125 1.25 -0.328125l10.265625 0q0.859375 0 1.21875 0.328125q0.375 0.328125 0.375 0.875q0 0.53125 -0.375 0.859375q-0.359375 0.328125 -1.21875 0.328125zm0 4.53125l-10.265625 0q-0.875 0 -1.25 -0.328125q-0.359375 -0.328125 -0.359375 -0.875q0 -0.53125 0.359375 -0.859375q0.375 -0.34375 1.25 -0.34375l10.265625 0q0.859375 0 1.21875 0.34375q0.375 0.328125 0.375 0.859375q0 0.546875 -0.375 0.875q-0.359375 0.328125 -1.21875 0.328125zm6.9960938 0.96875l5.265625 0q0.4375 -0.34375 0.828125 -0.34375q0.546875 0 0.859375 0.359375q0.328125 0.359375 0.328125 1.234375l0 1.15625l-10.9375 0l0 -2.546875q6.484375 -5.359375 7.828125 -6.890625q0.6875 -0.78125 0.6875 -1.484375q0 -0.875 -0.765625 -1.546875q-0.765625 -0.6875 -2.046875 -0.6875q-1.296875 0 -2.140625 0.75q-0.453125 0.40625 -0.71875 1.1875q-0.171875 0.5 -0.453125 0.71875q-0.28125 0.203125 -0.703125 0.203125q-0.5 0 -0.859375 -0.34375q-0.359375 -0.359375 -0.359375 -0.828125q0 -0.703125 0.65625 -1.75q0.65625 -1.0625 1.890625 -1.6875q1.25 -0.640625 2.71875 -0.640625q2.28125 0 3.734375 1.375q1.453125 1.375 1.453125 3.328125q0 1.0 -0.421875 1.859375q-0.421875 0.84375 -2.0 2.34375q-1.234375 1.171875 -4.84375 4.234375zm20.074219 -5.625q1.078125 0.734375 1.59375 1.6875q0.53125 0.953125 0.53125 2.140625q0 1.265625 -0.703125 2.359375q-0.6875 1.078125 -2.015625 1.640625q-1.328125 0.5625 -3.46875 0.5625q-2.78125 0 -4.1875 -0.875q-0.796875 -0.5 -0.796875 -1.171875q0 -0.515625 0.34375 -0.875q0.359375 -0.359375 0.84375 -0.359375q0.34375 0 0.703125 0.234375q0.515625 0.359375 0.96875 0.46875q0.703125 0.171875 1.9375 0.171875q2.09375 0 3.03125 -0.546875q0.9375 -0.546875 0.9375 -1.546875q0 -0.734375 -0.546875 -1.421875q-0.53125 -0.6875 -1.453125 -1.0625q-0.53125 -0.203125 -1.78125 -0.296875q-0.59375 -0.03125 -0.921875 -0.359375q-0.3125 -0.34375 -0.3125 -0.828125q0 -0.515625 0.34375 -0.859375q0.359375 -0.359375 0.890625 -0.359375q1.203125 0 1.28125 -0.015625q0.46875 -0.046875 0.9375 -0.296875q0.46875 -0.265625 0.75 -0.71875q0.296875 -0.453125 0.296875 -0.921875q0 -0.765625 -0.6875 -1.3125q-0.671875 -0.5625 -2.015625 -0.5625q-1.734375 0 -2.640625 1.0q-0.28125 0.296875 -0.4375 0.375q-0.25 0.125 -0.546875 0.125q-0.5 0 -0.859375 -0.34375q-0.34375 -0.359375 -0.34375 -0.875q0 -0.796875 1.078125 -1.5625q1.578125 -1.109375 3.921875 -1.109375q2.234375 0 3.578125 1.265625q1.34375 1.265625 1.34375 3.046875q0 0.921875 -0.40625 1.734375q-0.390625 0.796875 -1.1875 1.46875z" fill-rule="nonzero"></path><path fill="#000000" fill-opacity="0.0" d="m766.63257 68.2231c0 9.654106 -1.3043213 17.480316 -2.913269 17.480316l-121.232605 0c-1.6090088 0 -2.913269 7.8262024 -2.913269 17.480309l0 0c0 -9.654106 -1.3043213 -17.480309 -2.913269 -17.480309l-117.823 0l0 0c-1.6089478 0 -2.913269 -7.82621 -2.913269 -17.480316z" fill-rule="nonzero"></path><path fill="#000000" fill-opacity="0.0" d="m766.63257 68.2231c0 9.654106 -1.3043213 17.480316 -2.913269 17.480316l-121.232605 0c-1.6090088 0 -2.913269 7.8262024 -2.913269 17.480309l0 0c0 -9.654106 -1.3043213 -17.480309 -2.913269 -17.480309l-117.823 0l0 0c-1.6089478 0 -2.913269 -7.82621 -2.913269 -17.480316" fill-rule="nonzero"></path><path stroke="#38761d" stroke-width="4.0" stroke-linejoin="round" stroke-linecap="butt" d="m766.63257 68.2231c0 9.654106 -1.3043213 17.480316 -2.913269 17.480316l-121.232605 0c-1.6090088 0 -2.913269 7.8262024 -2.913269 17.480309l0 0c0 -9.654106 -1.3043213 -17.480309 -2.913269 -17.480309l-117.823 0l0 0c-1.6089478 0 -2.913269 -7.82621 -2.913269 -17.480316" fill-rule="nonzero"></path><path fill="#000000" fill-opacity="0.0" d="m596.08923 88.67716l221.7008 0l0 57.291344l-221.7008 0z" fill-rule="nonzero"></path><path fill="#274e13" d="m631.04236 132.43654q2.140625 1.53125 4.640625 2.421875l-2.140625 4.09375q-1.296875 -0.390625 -2.546875 -1.078125q-0.28125 -0.140625 -3.859375 -2.546875q-2.8125 1.234375 -6.21875 1.234375q-6.609375 0 -10.359375 -3.875q-3.734375 -3.890625 -3.734375 -10.921875q0 -7.015625 3.75 -10.90625q3.75 -3.90625 10.1875 -3.90625q6.359375 0 10.09375 3.90625q3.734375 3.890625 3.734375 10.90625q0 3.703125 -1.046875 6.515625q-0.78125 2.15625 -2.5 4.15625zm-4.640625 -3.25q1.109375 -1.3125 1.65625 -3.171875q0.5625 -1.859375 0.5625 -4.25q0 -4.96875 -2.1875 -7.421875q-2.1875 -2.453125 -5.71875 -2.453125q-3.53125 0 -5.734375 2.46875q-2.1875 2.453125 -2.1875 7.40625q0 5.015625 2.1875 7.515625q2.203125 2.484375 5.5625 2.484375q1.25 0 2.359375 -0.421875q-1.75 -1.140625 -3.578125 -1.796875l1.625 -3.296875q2.859375 0.984375 5.453125 2.9375zm26.332031 6.890625l0 -3.109375q-1.140625 1.65625 -2.984375 2.625q-1.84375 0.953125 -3.890625 0.953125q-2.09375 0 -3.765625 -0.921875q-1.65625 -0.921875 -2.40625 -2.578125q-0.734375 -1.65625 -0.734375 -4.59375l0 -13.125l5.5 0l0 9.53125q0 4.375 0.296875 5.375q0.296875 0.984375 1.09375 1.5625q0.8125 0.5625 2.046875 0.5625q1.40625 0 2.515625 -0.765625q1.109375 -0.765625 1.515625 -1.90625q0.421875 -1.15625 0.421875 -5.609375l0 -8.75l5.484375 0l0 20.75l-5.09375 0zm22.792969 -6.609375l5.46875 0.921875q-1.0625 3.015625 -3.34375 4.59375q-2.265625 1.5625 -5.6875 1.5625q-5.40625 0 -8.0 -3.53125q-2.0625 -2.84375 -2.0625 -7.15625q0 -5.15625 2.6875 -8.078125q2.703125 -2.921875 6.828125 -2.921875q4.625 0 7.296875 3.0625q2.6875 3.0625 2.5625 9.359375l-13.75 0q0.0625 2.453125 1.328125 3.8125q1.28125 1.34375 3.171875 1.34375q1.28125 0 2.15625 -0.703125q0.890625 -0.703125 1.34375 -2.265625zm0.3125 -5.546875q-0.0625 -2.375 -1.234375 -3.609375q-1.171875 -1.25 -2.859375 -1.25q-1.796875 0 -2.96875 1.3125q-1.171875 1.3125 -1.140625 3.546875l8.203125 0zm15.167969 12.15625l-5.484375 0l0 -20.75l5.09375 0l0 2.953125q1.3125 -2.09375 2.359375 -2.75q1.046875 -0.671875 2.375 -0.671875q1.875 0 3.609375 1.046875l-1.703125 4.78125q-1.390625 -0.90625 -2.578125 -0.90625q-1.15625 0 -1.953125 0.640625q-0.796875 0.640625 -1.265625 2.296875q-0.453125 1.65625 -0.453125 6.953125l0 6.40625zm7.7226562 -20.75l5.828125 0l4.96875 14.734375l4.84375 -14.734375l5.6875 0l-7.328125 19.96875l-1.3125 3.609375q-0.71875 1.828125 -1.375 2.78125q-0.65625 0.953125 -1.515625 1.546875q-0.84375 0.59375 -2.078125 0.921875q-1.234375 0.34375 -2.796875 0.34375q-1.59375 0 -3.109375 -0.328125l-0.484375 -4.296875q1.28125 0.25 2.3125 0.25q1.921875 0 2.828125 -1.125q0.921875 -1.125 1.421875 -2.859375l-7.890625 -20.8125z" fill-rule="nonzero"></path></g></svg>

