<?xml version="1.0" standalone="yes"?>

<svg version="1.1" viewBox="0.0 0.0 960.0 720.0" fill="none" stroke="none" stroke-linecap="square" stroke-miterlimit="10" xmlns="http://www.w3.org/2000/svg" xmlns:xlink="http://www.w3.org/1999/xlink"><clipPath id="p.0"><path d="m0 0l960.0 0l0 720.0l-960.0 0l0 -720.0z" clip-rule="nonzero"></path></clipPath><g clip-path="url(#p.0)"><path fill="#000000" fill-opacity="0.0" d="m0 0l960.0 0l0 720.0l-960.0 0z" fill-rule="nonzero"></path><path fill="#cccccc" d="m94.51706 196.18767l37.881897 37.88188l-18.940948 0l0 18.940948l401.7047 0l0 -18.940948l37.881897 37.881897l-37.881897 37.881897l0 -18.940948l-401.7047 0l0 18.940948l18.940948 0l-37.881897 37.881866l-37.881886 -37.881866l18.940945 0l0 -75.763794l-18.940945 0z" fill-rule="nonzero"></path><path fill="#cccccc" d="m469.73755 559.0066l-204.06299 0l0 -17.88977l-35.77954 35.77948l35.77954 35.77954l0 -17.88977l204.06299 0z" fill-rule="nonzero"></path><path fill="#000000" d="m272.87054 585.43634l-6.140625 -17.1875l3.765625 0l4.34375 12.71875l4.21875 -12.71875l3.671875 0l-6.15625 17.1875l-3.703125 0zm10.8515625 -6.40625q0 -1.640625 0.796875 -3.171875q0.8125 -1.53125 2.296875 -2.34375q1.484375 -0.8125 3.3125 -0.8125q2.828125 0 4.625 1.84375q1.8125 1.828125 1.8125 4.625q0 2.828125 -1.828125 4.6875q-1.828125 1.859375 -4.59375 1.859375q-1.703125 0 -3.265625 -0.765625q-1.546875 -0.78125 -2.359375 -2.265625q-0.796875 -1.5 -0.796875 -3.65625zm3.375 0.1875q0 1.84375 0.875 2.828125q0.875 0.984375 2.171875 0.984375q1.28125 0 2.15625 -0.984375q0.875 -0.984375 0.875 -2.859375q0 -1.828125 -0.875 -2.8125q-0.875 -0.984375 -2.15625 -0.984375q-1.296875 0 -2.171875 0.984375q-0.875 0.984375 -0.875 2.84375zm17.753906 -6.234375l0 2.625l-2.25 0l0 5.015625q0 1.53125 0.0625 1.78125q0.0625 0.25 0.28125 0.421875q0.234375 0.15625 0.5625 0.15625q0.453125 0 1.328125 -0.3125l0.28125 2.546875q-1.15625 0.5 -2.609375 0.5q-0.890625 0 -1.609375 -0.296875q-0.703125 -0.296875 -1.046875 -0.765625q-0.328125 -0.484375 -0.453125 -1.296875q-0.109375 -0.578125 -0.109375 -2.3125l0 -5.4375l-1.515625 0l0 -2.625l1.515625 0l0 -2.46875l3.3125 -1.921875l0 4.390625l2.25 0zm2.2734375 -1.6875l0 -3.046875l3.296875 0l0 3.046875l-3.296875 0zm0 14.140625l0 -12.453125l3.296875 0l0 12.453125l-3.296875 0zm17.996094 0l-3.296875 0l0 -6.359375q0 -2.015625 -0.21875 -2.59375q-0.203125 -0.59375 -0.6875 -0.921875q-0.46875 -0.328125 -1.125 -0.328125q-0.859375 0 -1.546875 0.46875q-0.671875 0.46875 -0.921875 1.25q-0.25 0.765625 -0.25 2.84375l0 5.640625l-3.296875 0l0 -12.453125l3.0625 0l0 1.828125q1.625 -2.109375 4.09375 -2.109375q1.09375 0 1.984375 0.40625q0.90625 0.390625 1.375 1.0q0.46875 0.609375 0.640625 1.390625q0.1875 0.765625 0.1875 2.203125l0 7.734375zm3.0351562 0.828125l3.765625 0.453125q0.09375 0.65625 0.421875 0.90625q0.46875 0.34375 1.484375 0.34375q1.28125 0 1.9375 -0.390625q0.421875 -0.25 0.65625 -0.828125q0.140625 -0.40625 0.140625 -1.515625l0 -1.8125q-1.46875 2.015625 -3.71875 2.015625q-2.515625 0 -3.96875 -2.125q-1.15625 -1.671875 -1.15625 -4.171875q0 -3.125 1.5 -4.78125q1.515625 -1.65625 3.75 -1.65625q2.3125 0 3.8125 2.03125l0 -1.75l3.078125 0l0 11.171875q0 2.203125 -0.359375 3.296875q-0.359375 1.09375 -1.015625 1.703125q-0.65625 0.625 -1.765625 0.96875q-1.09375 0.359375 -2.765625 0.359375q-3.15625 0 -4.484375 -1.078125q-1.328125 -1.078125 -1.328125 -2.75q0 -0.15625 0.015625 -0.390625zm2.9375 -7.3125q0 1.984375 0.765625 2.90625q0.765625 0.921875 1.890625 0.921875q1.21875 0 2.046875 -0.9375q0.828125 -0.953125 0.828125 -2.8125q0 -1.921875 -0.796875 -2.859375q-0.796875 -0.9375 -2.015625 -0.9375q-1.1875 0 -1.953125 0.921875q-0.765625 0.90625 -0.765625 2.796875zm11.175781 0.890625l3.375 -0.328125q0.296875 1.703125 1.21875 2.5q0.9375 0.796875 2.53125 0.796875q1.671875 0 2.515625 -0.703125q0.859375 -0.71875 0.859375 -1.671875q0 -0.609375 -0.359375 -1.03125q-0.359375 -0.421875 -1.25 -0.75q-0.609375 -0.203125 -2.78125 -0.75q-2.78125 -0.6875 -3.90625 -1.6875q-1.59375 -1.421875 -1.59375 -3.46875q0 -1.3125 0.75 -2.453125q0.75 -1.140625 2.140625 -1.734375q1.40625 -0.59375 3.390625 -0.59375q3.234375 0 4.859375 1.421875q1.640625 1.40625 1.71875 3.78125l-3.46875 0.140625q-0.21875 -1.3125 -0.953125 -1.890625q-0.734375 -0.59375 -2.203125 -0.59375q-1.5 0 -2.359375 0.625q-0.546875 0.40625 -0.546875 1.0625q0 0.609375 0.515625 1.046875q0.65625 0.546875 3.1875 1.15625q2.53125 0.59375 3.734375 1.234375q1.21875 0.640625 1.90625 1.75q0.6875 1.09375 0.6875 2.734375q0 1.46875 -0.828125 2.765625q-0.8125 1.28125 -2.3125 1.921875q-1.5 0.625 -3.75 0.625q-3.25 0 -5.0 -1.5q-1.75 -1.515625 -2.078125 -4.40625zm25.054688 5.59375l0 -1.859375q-0.6875 0.984375 -1.796875 1.5625q-1.109375 0.578125 -2.328125 0.578125q-1.265625 0 -2.265625 -0.546875q-0.984375 -0.5625 -1.4375 -1.546875q-0.4375 -1.0 -0.4375 -2.765625l0 -7.875l3.296875 0l0 5.71875q0 2.625 0.171875 3.21875q0.1875 0.59375 0.65625 0.9375q0.484375 0.34375 1.234375 0.34375q0.84375 0 1.5 -0.453125q0.671875 -0.46875 0.921875 -1.15625q0.25 -0.6875 0.25 -3.359375l0 -5.25l3.28125 0l0 12.453125l-3.046875 0zm6.2226562 -12.453125l3.03125 0l0 1.703125q1.625 -1.984375 3.875 -1.984375q1.203125 0 2.078125 0.5q0.875 0.484375 1.4375 1.484375q0.828125 -1.0 1.765625 -1.484375q0.953125 -0.5 2.03125 -0.5q1.375 0 2.3125 0.5625q0.953125 0.5625 1.421875 1.640625q0.34375 0.796875 0.34375 2.578125l0 7.953125l-3.296875 0l0 -7.109375q0 -1.859375 -0.328125 -2.390625q-0.46875 -0.703125 -1.40625 -0.703125q-0.703125 0 -1.3125 0.421875q-0.609375 0.421875 -0.875 1.234375q-0.265625 0.8125 -0.265625 2.5625l0 5.984375l-3.296875 0l0 -6.828125q0 -1.8125 -0.171875 -2.328125q-0.171875 -0.53125 -0.546875 -0.78125q-0.375 -0.265625 -1.0 -0.265625q-0.765625 0 -1.375 0.40625q-0.609375 0.40625 -0.875 1.1875q-0.265625 0.765625 -0.265625 2.5625l0 6.046875l-3.28125 0l0 -12.453125zm21.339844 0l3.03125 0l0 1.703125q1.625 -1.984375 3.875 -1.984375q1.203125 0 2.078125 0.5q0.875 0.484375 1.4375 1.484375q0.828125 -1.0 1.765625 -1.484375q0.953125 -0.5 2.03125 -0.5q1.375 0 2.3125 0.5625q0.953125 0.5625 1.421875 1.640625q0.34375 0.796875 0.34375 2.578125l0 7.953125l-3.296875 0l0 -7.109375q0 -1.859375 -0.328125 -2.390625q-0.46875 -0.703125 -1.40625 -0.703125q-0.703125 0 -1.3125 0.421875q-0.609375 0.421875 -0.875 1.234375q-0.265625 0.8125 -0.265625 2.5625l0 5.984375l-3.296875 0l0 -6.828125q0 -1.8125 -0.171875 -2.328125q-0.171875 -0.53125 -0.546875 -0.78125q-0.375 -0.265625 -1.0 -0.265625q-0.765625 0 -1.375 0.40625q-0.609375 0.40625 -0.875 1.1875q-0.265625 0.765625 -0.265625 2.5625l0 6.046875l-3.28125 0l0 -12.453125zm24.042969 3.796875l-2.984375 -0.53125q0.5 -1.8125 1.71875 -2.671875q1.234375 -0.875 3.671875 -0.875q2.203125 0 3.28125 0.53125q1.078125 0.515625 1.515625 1.328125q0.4375 0.796875 0.4375 2.9375l-0.03125 3.84375q0 1.640625 0.15625 2.421875q0.15625 0.78125 0.59375 1.671875l-3.265625 0q-0.125 -0.328125 -0.3125 -0.96875q-0.078125 -0.296875 -0.125 -0.390625q-0.84375 0.8125 -1.8125 1.234375q-0.953125 0.40625 -2.03125 0.40625q-1.921875 0 -3.03125 -1.046875q-1.109375 -1.046875 -1.109375 -2.640625q0 -1.046875 0.5 -1.875q0.5 -0.828125 1.40625 -1.265625q0.921875 -0.4375 2.625 -0.765625q2.3125 -0.4375 3.203125 -0.8125l0 -0.328125q0 -0.953125 -0.46875 -1.34375q-0.46875 -0.40625 -1.765625 -0.40625q-0.890625 0 -1.390625 0.34375q-0.484375 0.34375 -0.78125 1.203125zm4.40625 2.671875q-0.640625 0.21875 -2.015625 0.515625q-1.359375 0.28125 -1.78125 0.5625q-0.640625 0.46875 -0.640625 1.171875q0 0.6875 0.515625 1.1875q0.515625 0.5 1.3125 0.5q0.890625 0 1.6875 -0.578125q0.609375 -0.453125 0.796875 -1.09375q0.125 -0.421875 0.125 -1.609375l0 -0.65625zm9.628906 5.984375l-3.296875 0l0 -12.453125l3.0625 0l0 1.78125q0.78125 -1.265625 1.40625 -1.65625q0.640625 -0.40625 1.4375 -0.40625q1.125 0 2.15625 0.625l-1.015625 2.875q-0.828125 -0.546875 -1.546875 -0.546875q-0.6875 0 -1.171875 0.390625q-0.484375 0.375 -0.765625 1.375q-0.265625 1.0 -0.265625 4.171875l0 3.84375zm4.6367188 -12.453125l3.5 0l2.96875 8.84375l2.90625 -8.84375l3.421875 0l-4.40625 11.984375l-0.78125 2.171875q-0.4375 1.09375 -0.828125 1.65625q-0.390625 0.578125 -0.90625 0.9375q-0.5 0.359375 -1.25 0.546875q-0.734375 0.203125 -1.671875 0.203125q-0.953125 0 -1.875 -0.1875l-0.28125 -2.578125q0.765625 0.140625 1.390625 0.140625q1.140625 0 1.6875 -0.671875q0.5625 -0.671875 0.859375 -1.71875l-4.734375 -12.484375z" fill-rule="nonzero"></path><path fill="#ffffff" d="m931.6772 89.44357l-67.56433 597.7638l-386.60364 0l-67.56433 -597.7638z" fill-rule="nonzero"></path><path stroke="#999999" stroke-width="8.0" stroke-linejoin="round" stroke-linecap="butt" d="m931.6772 89.44357l-67.56433 597.7638l-386.60364 0l-67.56433 -597.7638z" fill-rule="nonzero"></path><path fill="#000000" fill-opacity="0.0" d="m559.01575 33.912075l223.59058 0l0 71.55905l-223.59058 0z" fill-rule="nonzero"></path><path fill="#666666" d="m612.7798 73.63207l-6.6875 -16.593746l4.609375 0l3.125 8.468746l0.90625 2.828125q0.359375 -1.078125 0.453125 -1.421875q0.21875 -0.703125 0.46875 -1.40625l3.15625 -8.468746l4.515625 0l-6.59375 16.593746l-3.953125 0zm12.21875 -8.53125q0 -2.1874962 1.078125 -4.234371q1.078125 -2.046875 3.046875 -3.125q1.984375 -1.078125 4.421875 -1.078125q3.765625 0 6.171875 2.453125q2.40625 2.4375 2.40625 6.171871q0 3.765625 -2.4375 6.25q-2.421875 2.46875 -6.109375 2.46875q-2.28125 0 -4.359375 -1.03125q-2.0625 -1.03125 -3.140625 -3.015625q-1.078125 -2.0 -1.078125 -4.859375zm4.5 0.234375q0 2.46875 1.171875 3.78125q1.171875 1.3125 2.890625 1.3125q1.71875 0 2.875 -1.3125q1.171875 -1.3125 1.171875 -3.8125q0 -2.4374962 -1.171875 -3.7499962q-1.15625 -1.3125 -2.875 -1.3125q-1.71875 0 -2.890625 1.3125q-1.171875 1.3125 -1.171875 3.7812462zm23.671875 -8.296871l0 3.5l-3.0 0l0 6.687496q0 2.03125 0.078125 2.375q0.09375 0.328125 0.390625 0.546875q0.3125 0.21875 0.75 0.21875q0.609375 0 1.765625 -0.421875l0.375 3.40625q-1.53125 0.65625 -3.46875 0.65625q-1.1875 0 -2.140625 -0.390625q-0.953125 -0.40625 -1.40625 -1.03125q-0.4375 -0.640625 -0.609375 -1.71875q-0.140625 -0.765625 -0.140625 -3.09375l0 -7.234371l-2.015625 0l0 -3.5l2.015625 0l0 -3.296875l4.40625 -2.5625l0 5.859375l3.0 0zm12.65625 11.312496l4.375 0.734375q-0.84375 2.40625 -2.671875 3.671875q-1.8125 1.25 -4.546875 1.25q-4.328125 0 -6.40625 -2.828125q-1.640625 -2.265625 -1.640625 -5.71875q0 -4.124996 2.15625 -6.453121q2.15625 -2.34375 5.453125 -2.34375q3.703125 0 5.84375 2.453125q2.140625 2.4375 2.046875 7.484371l-11.0 0q0.046875 1.953125 1.0625 3.046875q1.015625 1.078125 2.53125 1.078125q1.03125 0 1.734375 -0.5625q0.703125 -0.5625 1.0625 -1.8125zm0.25 -4.437496q-0.046875 -1.90625 -0.984375 -2.890625q-0.9375 -1.0 -2.28125 -1.0q-1.4375 0 -2.375 1.046875q-0.9375 1.046875 -0.921875 2.84375l6.5625 0zm18.78125 16.031246l0 -8.34375q-0.859375 1.109375 -2.140625 1.765625q-1.28125 0.640625 -2.765625 0.640625q-2.828125 0 -4.65625 -2.125q-2.15625 -2.484375 -2.15625 -6.734375q0 -3.9999962 2.015625 -6.234371q2.03125 -2.25 5.03125 -2.25q1.65625 0 2.859375 0.703125q1.21875 0.703125 2.15625 2.125l0 -2.453125l4.046875 0l0 22.906246l-4.390625 0zm0.140625 -14.8125q0 -2.5468712 -1.046875 -3.7812462q-1.03125 -1.25 -2.59375 -1.25q-1.59375 0 -2.671875 1.265625q-1.0625 1.265625 -1.0625 4.015621q0 2.734375 1.03125 3.953125q1.03125 1.203125 2.546875 1.203125q1.515625 0 2.65625 -1.359375q1.140625 -1.359375 1.140625 -4.046875zm19.484375 8.5l0 -2.484375q-0.90625 1.328125 -2.390625 2.09375q-1.46875 0.765625 -3.109375 0.765625q-1.671875 0 -3.0 -0.734375q-1.328125 -0.734375 -1.921875 -2.0625q-0.59375 -1.328125 -0.59375 -3.671875l0 -10.499996l4.390625 0l0 7.624996q0 3.5 0.234375 4.296875q0.25 0.78125 0.890625 1.25q0.640625 0.453125 1.625 0.453125q1.125 0 2.015625 -0.609375q0.890625 -0.625 1.21875 -1.53125q0.328125 -0.921875 0.328125 -4.484375l0 -6.999996l4.390625 0l0 16.593746l-4.078125 0zm8.625 -18.843746l0 -4.0625l4.390625 0l0 4.0625l-4.390625 0zm0 18.843746l0 -16.593746l4.390625 0l0 16.593746l-4.390625 0zm7.125 0l0 -3.421875l6.21875 -7.140621q1.53125 -1.75 2.265625 -2.484375q-0.765625 0.046875 -2.015625 0.0625l-5.859375 0.03125l0 -3.640625l13.71875 0l0 3.109375l-6.34375 7.312496l-2.234375 2.421875q1.828125 -0.109375 2.265625 -0.109375l6.796875 0l0 3.859375l-14.8125 0z" fill-rule="nonzero"></path><path fill="#cfe2f3" d="m36.682415 114.3399l0 0c0 -19.76049 18.02142 -35.779533 40.251972 -35.779533c22.230545 0 40.25197 16.019043 40.25197 35.779533c0 19.76049 -18.021423 35.779533 -40.25197 35.779533c-22.230553 0 -40.251972 -16.019043 -40.251972 -35.779533z" fill-rule="nonzero"></path><path fill="#a5b4c2" d="m59.845932 103.63917c0 -2.0583878 1.8772316 -3.7270355 4.192917 -3.7270355c2.3156815 0 4.1929092 1.6686478 4.1929092 3.7270355c0 2.0583801 -1.8772278 3.7270355 -4.1929092 3.7270355c-2.3156853 0 -4.192917 -1.6686554 -4.192917 -3.7270355m25.791077 0c0 -2.0583878 1.8772278 -3.7270355 4.192917 -3.7270355c2.3156815 0 4.1929092 1.6686478 4.1929092 3.7270355c0 2.0583801 -1.8772278 3.7270355 -4.1929092 3.7270355c-2.315689 0 -4.192917 -1.6686554 -4.192917 -3.7270355" fill-rule="nonzero"></path><path fill="#000000" fill-opacity="0.0" d="m55.117554 129.94359q21.816833 13.318573 43.58271 0" fill-rule="nonzero"></path><path fill="#000000" fill-opacity="0.0" d="m36.682415 114.3399l0 0c0 -19.76049 18.02142 -35.779533 40.251972 -35.779533c22.230545 0 40.25197 16.019043 40.25197 35.779533c0 19.76049 -18.021423 35.779533 -40.25197 35.779533c-22.230553 0 -40.251972 -16.019043 -40.251972 -35.779533z" fill-rule="nonzero"></path><path stroke="#000000" stroke-width="1.0" stroke-linejoin="round" stroke-linecap="butt" d="m59.845932 103.63917c0 -2.0583878 1.8772316 -3.7270355 4.192917 -3.7270355c2.3156815 0 4.1929092 1.6686478 4.1929092 3.7270355c0 2.0583801 -1.8772278 3.7270355 -4.1929092 3.7270355c-2.3156853 0 -4.192917 -1.6686554 -4.192917 -3.7270355m25.791077 0c0 -2.0583878 1.8772278 -3.7270355 4.192917 -3.7270355c2.3156815 0 4.1929092 1.6686478 4.1929092 3.7270355c0 2.0583801 -1.8772278 3.7270355 -4.1929092 3.7270355c-2.315689 0 -4.192917 -1.6686554 -4.192917 -3.7270355" fill-rule="nonzero"></path><path stroke="#000000" stroke-width="1.0" stroke-linejoin="round" stroke-linecap="butt" d="m55.117554 129.94359q21.816833 13.318573 43.58271 0" fill-rule="nonzero"></path><path stroke="#000000" stroke-width="1.0" stroke-linejoin="round" stroke-linecap="butt" d="m36.682415 114.3399l0 0c0 -19.76049 18.02142 -35.779533 40.251972 -35.779533c22.230545 0 40.25197 16.019043 40.25197 35.779533c0 19.76049 -18.021423 35.779533 -40.25197 35.779533c-22.230553 0 -40.251972 -16.019043 -40.251972 -35.779533z" fill-rule="nonzero"></path><path fill="#cfe2f3" d="m29.419947 405.51837l0 0c0 -19.760498 18.021421 -35.77954 40.25197 -35.77954c22.230553 0 40.251976 16.019043 40.251976 35.77954c0 19.760498 -18.021423 35.77954 -40.251976 35.77954c-22.230545 0 -40.25197 -16.019043 -40.25197 -35.77954z" fill-rule="nonzero"></path><path fill="#a5b4c2" d="m52.583466 394.81766c0 -2.0584106 1.8772316 -3.7270508 4.192913 -3.7270508c2.3156815 0 4.192913 1.6686401 4.192913 3.7270508c0 2.0583801 -1.8772316 3.7270203 -4.192913 3.7270203c-2.3156815 0 -4.192913 -1.6686401 -4.192913 -3.7270203m25.791077 0c0 -2.0584106 1.8772278 -3.7270508 4.1929092 -3.7270508c2.315689 0 4.192917 1.6686401 4.192917 3.7270508c0 2.0583801 -1.8772278 3.7270203 -4.192917 3.7270203c-2.3156815 0 -4.1929092 -1.6686401 -4.1929092 -3.7270203" fill-rule="nonzero"></path><path fill="#000000" fill-opacity="0.0" d="m47.855087 421.12207q21.816826 13.318573 43.58271 0" fill-rule="nonzero"></path><path fill="#000000" fill-opacity="0.0" d="m29.419947 405.51837l0 0c0 -19.760498 18.021421 -35.77954 40.25197 -35.77954c22.230553 0 40.251976 16.019043 40.251976 35.77954c0 19.760498 -18.021423 35.77954 -40.251976 35.77954c-22.230545 0 -40.25197 -16.019043 -40.25197 -35.77954z" fill-rule="nonzero"></path><path stroke="#000000" stroke-width="1.0" stroke-linejoin="round" stroke-linecap="butt" d="m52.583466 394.81766c0 -2.0584106 1.8772316 -3.7270508 4.192913 -3.7270508c2.3156815 0 4.192913 1.6686401 4.192913 3.7270508c0 2.0583801 -1.8772316 3.7270203 -4.192913 3.7270203c-2.3156815 0 -4.192913 -1.6686401 -4.192913 -3.7270203m25.791077 0c0 -2.0584106 1.8772278 -3.7270508 4.1929092 -3.7270508c2.315689 0 4.192917 1.6686401 4.192917 3.7270508c0 2.0583801 -1.8772278 3.7270203 -4.192917 3.7270203c-2.3156815 0 -4.1929092 -1.6686401 -4.1929092 -3.7270203" fill-rule="nonzero"></path><path stroke="#000000" stroke-width="1.0" stroke-linejoin="round" stroke-linecap="butt" d="m47.855087 421.12207q21.816826 13.318573 43.58271 0" fill-rule="nonzero"></path><path stroke="#000000" stroke-width="1.0" stroke-linejoin="round" stroke-linecap="butt" d="m29.419947 405.51837l0 0c0 -19.760498 18.021421 -35.77954 40.25197 -35.77954c22.230553 0 40.251976 16.019043 40.251976 35.77954c0 19.760498 -18.021423 35.77954 -40.251976 35.77954c-22.230545 0 -40.25197 -16.019043 -40.25197 -35.77954z" fill-rule="nonzero"></path><path fill="#cfe2f3" d="m45.41995 421.51837l0 0c0 -19.760498 18.02142 -35.77954 40.251965 -35.77954c22.230553 0 40.251976 16.019043 40.251976 35.77954c0 19.760498 -18.021423 35.77954 -40.251976 35.77954c-22.230545 0 -40.251965 -16.019043 -40.251965 -35.77954z" fill-rule="nonzero"></path><path fill="#a5b4c2" d="m68.583466 410.81766c0 -2.0584106 1.8772278 -3.7270508 4.1929092 -3.7270508c2.315689 0 4.192917 1.6686401 4.192917 3.7270508c0 2.0583801 -1.8772278 3.7270203 -4.192917 3.7270203c-2.3156815 0 -4.1929092 -1.6686401 -4.1929092 -3.7270203m25.791077 0c0 -2.0584106 1.8772278 -3.7270508 4.1929092 -3.7270508c2.315689 0 4.192917 1.6686401 4.192917 3.7270508c0 2.0583801 -1.8772278 3.7270203 -4.192917 3.7270203c-2.3156815 0 -4.1929092 -1.6686401 -4.1929092 -3.7270203" fill-rule="nonzero"></path><path fill="#000000" fill-opacity="0.0" d="m63.855087 437.12207q21.816826 13.318573 43.58271 0" fill-rule="nonzero"></path><path fill="#000000" fill-opacity="0.0" d="m45.41995 421.51837l0 0c0 -19.760498 18.02142 -35.77954 40.251965 -35.77954c22.230553 0 40.251976 16.019043 40.251976 35.77954c0 19.760498 -18.021423 35.77954 -40.251976 35.77954c-22.230545 0 -40.251965 -16.019043 -40.251965 -35.77954z" fill-rule="nonzero"></path><path stroke="#000000" stroke-width="1.0" stroke-linejoin="round" stroke-linecap="butt" d="m68.583466 410.81766c0 -2.0584106 1.8772278 -3.7270508 4.1929092 -3.7270508c2.315689 0 4.192917 1.6686401 4.192917 3.7270508c0 2.0583801 -1.8772278 3.7270203 -4.192917 3.7270203c-2.3156815 0 -4.1929092 -1.6686401 -4.1929092 -3.7270203m25.791077 0c0 -2.0584106 1.8772278 -3.7270508 4.1929092 -3.7270508c2.315689 0 4.192917 1.6686401 4.192917 3.7270508c0 2.0583801 -1.8772278 3.7270203 -4.192917 3.7270203c-2.3156815 0 -4.1929092 -1.6686401 -4.1929092 -3.7270203" fill-rule="nonzero"></path><path stroke="#000000" stroke-width="1.0" stroke-linejoin="round" stroke-linecap="butt" d="m63.855087 437.12207q21.816826 13.318573 43.58271 0" fill-rule="nonzero"></path><path stroke="#000000" stroke-width="1.0" stroke-linejoin="round" stroke-linecap="butt" d="m45.41995 421.51837l0 0c0 -19.760498 18.02142 -35.77954 40.251965 -35.77954c22.230553 0 40.251976 16.019043 40.251976 35.77954c0 19.760498 -18.021423 35.77954 -40.251976 35.77954c-22.230545 0 -40.251965 -16.019043 -40.251965 -35.77954z" fill-rule="nonzero"></path><path fill="#cfe2f3" d="m61.41995 437.51837l0 0c0 -19.760498 18.02142 -35.77954 40.251965 -35.77954c22.230553 0 40.251976 16.019043 40.251976 35.77954c0 19.760498 -18.021423 35.77954 -40.251976 35.77954c-22.230545 0 -40.251965 -16.019043 -40.251965 -35.77954z" fill-rule="nonzero"></path><path fill="#a5b4c2" d="m84.583466 426.81766c0 -2.0584106 1.8772278 -3.7270508 4.1929092 -3.7270508c2.315689 0 4.192917 1.6686401 4.192917 3.7270508c0 2.0583801 -1.8772278 3.7270203 -4.192917 3.7270203c-2.3156815 0 -4.1929092 -1.6686401 -4.1929092 -3.7270203m25.791077 0c0 -2.0584106 1.8772278 -3.7270508 4.1929092 -3.7270508c2.315689 0 4.192917 1.6686401 4.192917 3.7270508c0 2.0583801 -1.8772278 3.7270203 -4.192917 3.7270203c-2.3156815 0 -4.1929092 -1.6686401 -4.1929092 -3.7270203" fill-rule="nonzero"></path><path fill="#000000" fill-opacity="0.0" d="m79.85509 453.12207q21.816826 13.318573 43.58271 0" fill-rule="nonzero"></path><path fill="#000000" fill-opacity="0.0" d="m61.41995 437.51837l0 0c0 -19.760498 18.02142 -35.77954 40.251965 -35.77954c22.230553 0 40.251976 16.019043 40.251976 35.77954c0 19.760498 -18.021423 35.77954 -40.251976 35.77954c-22.230545 0 -40.251965 -16.019043 -40.251965 -35.77954z" fill-rule="nonzero"></path><path stroke="#000000" stroke-width="1.0" stroke-linejoin="round" stroke-linecap="butt" d="m84.583466 426.81766c0 -2.0584106 1.8772278 -3.7270508 4.1929092 -3.7270508c2.315689 0 4.192917 1.6686401 4.192917 3.7270508c0 2.0583801 -1.8772278 3.7270203 -4.192917 3.7270203c-2.3156815 0 -4.1929092 -1.6686401 -4.1929092 -3.7270203m25.791077 0c0 -2.0584106 1.8772278 -3.7270508 4.1929092 -3.7270508c2.315689 0 4.192917 1.6686401 4.192917 3.7270508c0 2.0583801 -1.8772278 3.7270203 -4.192917 3.7270203c-2.3156815 0 -4.1929092 -1.6686401 -4.1929092 -3.7270203" fill-rule="nonzero"></path><path stroke="#000000" stroke-width="1.0" stroke-linejoin="round" stroke-linecap="butt" d="m79.85509 453.12207q21.816826 13.318573 43.58271 0" fill-rule="nonzero"></path><path stroke="#000000" stroke-width="1.0" stroke-linejoin="round" stroke-linecap="butt" d="m61.41995 437.51837l0 0c0 -19.760498 18.02142 -35.77954 40.251965 -35.77954c22.230553 0 40.251976 16.019043 40.251976 35.77954c0 19.760498 -18.021423 35.77954 -40.251976 35.77954c-22.230545 0 -40.251965 -16.019043 -40.251965 -35.77954z" fill-rule="nonzero"></path><path fill="#cfe2f3" d="m77.419945 453.51837l0 0c0 -19.760498 18.021423 -35.77954 40.25197 -35.77954c22.230553 0 40.251976 16.019043 40.251976 35.77954c0 19.760498 -18.021423 35.77954 -40.251976 35.77954c-22.230545 0 -40.25197 -16.019043 -40.25197 -35.77954z" fill-rule="nonzero"></path><path fill="#a5b4c2" d="m100.583466 442.81766c0 -2.0584106 1.8772278 -3.7270508 4.1929092 -3.7270508c2.315689 0 4.192917 1.6686401 4.192917 3.7270508c0 2.0583801 -1.8772278 3.7270203 -4.192917 3.7270203c-2.3156815 0 -4.1929092 -1.6686401 -4.1929092 -3.7270203m25.791077 0c0 -2.0584106 1.8772278 -3.7270508 4.192917 -3.7270508c2.3156738 0 4.192917 1.6686401 4.192917 3.7270508c0 2.0583801 -1.877243 3.7270203 -4.192917 3.7270203c-2.315689 0 -4.192917 -1.6686401 -4.192917 -3.7270203" fill-rule="nonzero"></path><path fill="#000000" fill-opacity="0.0" d="m95.85509 469.12207q21.816826 13.318573 43.582703 0" fill-rule="nonzero"></path><path fill="#000000" fill-opacity="0.0" d="m77.419945 453.51837l0 0c0 -19.760498 18.021423 -35.77954 40.25197 -35.77954c22.230553 0 40.251976 16.019043 40.251976 35.77954c0 19.760498 -18.021423 35.77954 -40.251976 35.77954c-22.230545 0 -40.25197 -16.019043 -40.25197 -35.77954z" fill-rule="nonzero"></path><path stroke="#000000" stroke-width="1.0" stroke-linejoin="round" stroke-linecap="butt" d="m100.583466 442.81766c0 -2.0584106 1.8772278 -3.7270508 4.1929092 -3.7270508c2.315689 0 4.192917 1.6686401 4.192917 3.7270508c0 2.0583801 -1.8772278 3.7270203 -4.192917 3.7270203c-2.3156815 0 -4.1929092 -1.6686401 -4.1929092 -3.7270203m25.791077 0c0 -2.0584106 1.8772278 -3.7270508 4.192917 -3.7270508c2.3156738 0 4.192917 1.6686401 4.192917 3.7270508c0 2.0583801 -1.877243 3.7270203 -4.192917 3.7270203c-2.315689 0 -4.192917 -1.6686401 -4.192917 -3.7270203" fill-rule="nonzero"></path><path stroke="#000000" stroke-width="1.0" stroke-linejoin="round" stroke-linecap="butt" d="m95.85509 469.12207q21.816826 13.318573 43.582703 0" fill-rule="nonzero"></path><path stroke="#000000" stroke-width="1.0" stroke-linejoin="round" stroke-linecap="butt" d="m77.419945 453.51837l0 0c0 -19.760498 18.021423 -35.77954 40.25197 -35.77954c22.230553 0 40.251976 16.019043 40.251976 35.77954c0 19.760498 -18.021423 35.77954 -40.251976 35.77954c-22.230545 0 -40.25197 -16.019043 -40.25197 -35.77954z" fill-rule="nonzero"></path><path fill="#cfe2f3" d="m93.419945 469.51837l0 0c0 -19.760498 18.021423 -35.77954 40.251976 -35.77954c22.230545 0 40.25197 16.019043 40.25197 35.77954c0 19.760498 -18.021423 35.77954 -40.25197 35.77954c-22.230553 0 -40.251976 -16.019043 -40.251976 -35.77954z" fill-rule="nonzero"></path><path fill="#a5b4c2" d="m116.583466 458.81766c0 -2.0584106 1.8772278 -3.7270508 4.1929092 -3.7270508c2.315689 0 4.192917 1.6686401 4.192917 3.7270508c0 2.0583801 -1.8772278 3.7270203 -4.192917 3.7270203c-2.3156815 0 -4.1929092 -1.6686401 -4.1929092 -3.7270203m25.791077 0c0 -2.0584106 1.8772278 -3.7270508 4.192917 -3.7270508c2.3156738 0 4.192917 1.6686401 4.192917 3.7270508c0 2.0583801 -1.877243 3.7270203 -4.192917 3.7270203c-2.315689 0 -4.192917 -1.6686401 -4.192917 -3.7270203" fill-rule="nonzero"></path><path fill="#000000" fill-opacity="0.0" d="m111.85509 485.12207q21.816833 13.318573 43.582703 0" fill-rule="nonzero"></path><path fill="#000000" fill-opacity="0.0" d="m93.419945 469.51837l0 0c0 -19.760498 18.021423 -35.77954 40.251976 -35.77954c22.230545 0 40.25197 16.019043 40.25197 35.77954c0 19.760498 -18.021423 35.77954 -40.25197 35.77954c-22.230553 0 -40.251976 -16.019043 -40.251976 -35.77954z" fill-rule="nonzero"></path><path stroke="#000000" stroke-width="1.0" stroke-linejoin="round" stroke-linecap="butt" d="m116.583466 458.81766c0 -2.0584106 1.8772278 -3.7270508 4.1929092 -3.7270508c2.315689 0 4.192917 1.6686401 4.192917 3.7270508c0 2.0583801 -1.8772278 3.7270203 -4.192917 3.7270203c-2.3156815 0 -4.1929092 -1.6686401 -4.1929092 -3.7270203m25.791077 0c0 -2.0584106 1.8772278 -3.7270508 4.192917 -3.7270508c2.3156738 0 4.192917 1.6686401 4.192917 3.7270508c0 2.0583801 -1.877243 3.7270203 -4.192917 3.7270203c-2.315689 0 -4.192917 -1.6686401 -4.192917 -3.7270203" fill-rule="nonzero"></path><path stroke="#000000" stroke-width="1.0" stroke-linejoin="round" stroke-linecap="butt" d="m111.85509 485.12207q21.816833 13.318573 43.582703 0" fill-rule="nonzero"></path><path stroke="#000000" stroke-width="1.0" stroke-linejoin="round" stroke-linecap="butt" d="m93.419945 469.51837l0 0c0 -19.760498 18.021423 -35.77954 40.251976 -35.77954c22.230545 0 40.25197 16.019043 40.25197 35.77954c0 19.760498 -18.021423 35.77954 -40.25197 35.77954c-22.230553 0 -40.251976 -16.019043 -40.251976 -35.77954z" fill-rule="nonzero"></path><path fill="#f3f3f3" d="m29.419947 541.1168l174.39369 0l0 102.86609l-174.39369 0z" fill-rule="nonzero"></path><path stroke="#666666" stroke-width="8.0" stroke-linejoin="round" stroke-linecap="butt" d="m29.419947 541.1168l174.39369 0l0 102.86609l-174.39369 0z" fill-rule="nonzero"></path><path fill="#000000" fill-opacity="0.0" d="m118.381386 643.9829l-38.960625 33.165405" fill-rule="nonzero"></path><path stroke="#666666" stroke-width="4.0" stroke-linejoin="round" stroke-linecap="butt" d="m118.381386 643.9829l-38.960625 33.165405" fill-rule="nonzero"></path><path fill="#000000" fill-opacity="0.0" d="m118.381386 643.9829l35.433067 35.62207" fill-rule="nonzero"></path><path stroke="#666666" stroke-width="4.0" stroke-linejoin="round" stroke-linecap="butt" d="m118.381386 643.9829l35.433067 35.62207" fill-rule="nonzero"></path><path fill="#000000" fill-opacity="0.0" d="m48.427822 628.35895l136.37794 0" fill-rule="nonzero"></path><path stroke="#999999" stroke-width="2.0" stroke-linejoin="round" stroke-linecap="butt" d="m48.427822 628.35895l136.37794 0" fill-rule="nonzero"></path><path fill="#d9d9d9" d="m64.97014 595.06866l16.53543 0l0 33.165344l-16.53543 0z" fill-rule="nonzero"></path><path stroke="#999999" stroke-width="1.0" stroke-linejoin="round" stroke-linecap="butt" d="m64.97014 595.06866l16.53543 0l0 33.165344l-16.53543 0z" fill-rule="nonzero"></path><path fill="#d9d9d9" d="m92.45759 577.10144l16.53543 0l0 51.149597l-16.53543 0z" fill-rule="nonzero"></path><path stroke="#999999" stroke-width="1.0" stroke-linejoin="round" stroke-linecap="butt" d="m92.45759 577.10144l16.53543 0l0 51.149597l-16.53543 0z" fill-rule="nonzero"></path><path fill="#d9d9d9" d="m119.94591 562.5342l16.53543 0l0 65.82678l-16.53543 0z" fill-rule="nonzero"></path><path stroke="#999999" stroke-width="1.0" stroke-linejoin="round" stroke-linecap="butt" d="m119.94591 562.5342l16.53543 0l0 65.82678l-16.53543 0z" fill-rule="nonzero"></path><path fill="#d9d9d9" d="m147.43224 595.1954l16.53543 0l0 33.165344l-16.53543 0z" fill-rule="nonzero"></path><path stroke="#999999" stroke-width="1.0" stroke-linejoin="round" stroke-linecap="butt" d="m147.43224 595.1954l16.53543 0l0 33.165344l-16.53543 0z" fill-rule="nonzero"></path><path fill="#cfe2f3" d="m72.09449 148.37927l0 0c0 -1.0900879 0.8836746 -1.9737549 1.9737549 -1.9737549l7.895012 0l0 0c0.523468 0 1.0255051 0.20794678 1.3956528 0.5780945c0.3701477 0.3701477 0.5780945 0.8721771 0.5780945 1.3956604l0 9.154846c0 1.0900726 -0.8836746 1.9737549 -1.9737473 1.9737549l-7.895012 0c-1.0900803 0 -1.9737549 -0.88368225 -1.9737549 -1.9737549z" fill-rule="nonzero"></path><path stroke="#000000" stroke-width="1.0" stroke-linejoin="round" stroke-linecap="butt" d="m72.09449 148.37927l0 0c0 -1.0900879 0.8836746 -1.9737549 1.9737549 -1.9737549l7.895012 0l0 0c0.523468 0 1.0255051 0.20794678 1.3956528 0.5780945c0.3701477 0.3701477 0.5780945 0.8721771 0.5780945 1.3956604l0 9.154846c0 1.0900726 -0.8836746 1.9737549 -1.9737473 1.9737549l-7.895012 0c-1.0900803 0 -1.9737549 -0.88368225 -1.9737549 -1.9737549z" fill-rule="nonzero"></path><path fill="#cfe2f3" d="m102.13386 162.40552l-18.204727 -4.551193l0 -9.795273l18.204727 -4.551178z" fill-rule="nonzero"></path><path stroke="#000000" stroke-width="1.0" stroke-linejoin="round" stroke-linecap="butt" d="m102.13386 162.40552l-18.204727 -4.551193l0 -9.795273l18.204727 -4.551178z" fill-rule="nonzero"></path><path fill="#cfe2f3" d="m53.889763 143.50787l18.204727 4.551178l0 9.795273l-18.204727 4.551193z" fill-rule="nonzero"></path><path stroke="#000000" stroke-width="1.0" stroke-linejoin="round" stroke-linecap="butt" d="m53.889763 143.50787l18.204727 4.551178l0 9.795273l-18.204727 4.551193z" fill-rule="nonzero"></path><path fill="#000000" fill-opacity="0.0" d="m82.86089 53.930447l187.811 0l0 71.55905l-187.811 0z" fill-rule="nonzero"></path><path fill="#666666" d="m120.40703 93.650444l0 -22.90625l9.734375 0q3.671875 0 5.328125 0.625q1.671875 0.609375 2.671875 2.1875q1.0 1.578125 1.0 3.609375q0 2.578125 -1.515625 4.265625q-1.515625 1.671875 -4.53125 2.109375q1.5 0.875 2.46875 1.921875q0.984375 1.046875 2.640625 3.71875l2.796875 4.46875l-5.53125 0l-3.34375 -4.984375q-1.78125 -2.671875 -2.4375 -3.359375q-0.65625 -0.703125 -1.390625 -0.953125q-0.734375 -0.265625 -2.328125 -0.265625l-0.9375 0l0 9.5625l-4.625 0zm4.625 -13.21875l3.421875 0q3.328125 0 4.15625 -0.28125q0.828125 -0.28125 1.296875 -0.96875q0.46875 -0.6875 0.46875 -1.71875q0 -1.15625 -0.625 -1.859375q-0.609375 -0.71875 -1.734375 -0.90625q-0.5625 -0.078125 -3.375 -0.078125l-3.609375 0l0 5.8125zm28.046875 7.9375l4.375 0.734375q-0.84375 2.40625 -2.671875 3.671875q-1.8125 1.25 -4.546875 1.25q-4.328125 0 -6.40625 -2.828125q-1.640625 -2.265625 -1.640625 -5.71875q0 -4.125 2.15625 -6.453125q2.15625 -2.34375 5.453125 -2.34375q3.703125 0 5.84375 2.453125q2.140625 2.4375 2.046875 7.484375l-11.0 0q0.046875 1.953125 1.0625 3.046875q1.015625 1.078125 2.53125 1.078125q1.03125 0 1.734375 -0.5625q0.703125 -0.5625 1.0625 -1.8125zm0.25 -4.4375q-0.046875 -1.90625 -0.984375 -2.890625q-0.9375 -1.0 -2.28125 -1.0q-1.4375 0 -2.375 1.046875q-0.9375 1.046875 -0.921875 2.84375l6.5625 0zm6.015625 -6.875l2.4375 0l0 -1.25q0 -2.09375 0.4375 -3.125q0.453125 -1.03125 1.640625 -1.671875q1.203125 -0.65625 3.03125 -0.65625q1.875 0 3.671875 0.5625l-0.59375 3.0625q-1.046875 -0.25 -2.015625 -0.25q-0.953125 0 -1.375 0.453125q-0.40625 0.4375 -0.40625 1.703125l0 1.171875l3.28125 0l0 3.453125l-3.28125 0l0 13.140625l-4.390625 0l0 -13.140625l-2.4375 0l0 -3.453125zm22.1875 11.3125l4.375 0.734375q-0.84375 2.40625 -2.671875 3.671875q-1.8125 1.25 -4.546875 1.25q-4.328125 0 -6.40625 -2.828125q-1.640625 -2.265625 -1.640625 -5.71875q0 -4.125 2.15625 -6.453125q2.15625 -2.34375 5.453125 -2.34375q3.703125 0 5.84375 2.453125q2.140625 2.4375 2.046875 7.484375l-11.0 0q0.046875 1.953125 1.0625 3.046875q1.015625 1.078125 2.53125 1.078125q1.03125 0 1.734375 -0.5625q0.703125 -0.5625 1.0625 -1.8125zm0.25 -4.4375q-0.046875 -1.90625 -0.984375 -2.890625q-0.9375 -1.0 -2.28125 -1.0q-1.4375 0 -2.375 1.046875q-0.9375 1.046875 -0.921875 2.84375l6.5625 0zm12.140625 9.71875l-4.390625 0l0 -16.59375l4.078125 0l0 2.359375q1.046875 -1.671875 1.875 -2.203125q0.84375 -0.53125 1.90625 -0.53125q1.5 0 2.890625 0.828125l-1.359375 3.828125q-1.109375 -0.71875 -2.0625 -0.71875q-0.921875 0 -1.5625 0.515625q-0.640625 0.5 -1.015625 1.828125q-0.359375 1.328125 -0.359375 5.5625l0 5.125zm17.859375 -5.28125l4.375 0.734375q-0.84375 2.40625 -2.671875 3.671875q-1.8125 1.25 -4.546875 1.25q-4.328125 0 -6.40625 -2.828125q-1.640625 -2.265625 -1.640625 -5.71875q0 -4.125 2.15625 -6.453125q2.15625 -2.34375 5.453125 -2.34375q3.703125 0 5.84375 2.453125q2.140625 2.4375 2.046875 7.484375l-11.0 0q0.046875 1.953125 1.0625 3.046875q1.015625 1.078125 2.53125 1.078125q1.03125 0 1.734375 -0.5625q0.703125 -0.5625 1.0625 -1.8125zm0.25 -4.4375q-0.046875 -1.90625 -0.984375 -2.890625q-0.9375 -1.0 -2.28125 -1.0q-1.4375 0 -2.375 1.046875q-0.9375 1.046875 -0.921875 2.84375l6.5625 0zm17.546875 4.4375l4.375 0.734375q-0.84375 2.40625 -2.671875 3.671875q-1.8125 1.25 -4.546875 1.25q-4.328125 0 -6.40625 -2.828125q-1.640625 -2.265625 -1.640625 -5.71875q0 -4.125 2.15625 -6.453125q2.15625 -2.34375 5.453125 -2.34375q3.703125 0 5.84375 2.453125q2.140625 2.4375 2.046875 7.484375l-11.0 0q0.046875 1.953125 1.0625 3.046875q1.015625 1.078125 2.53125 1.078125q1.03125 0 1.734375 -0.5625q0.703125 -0.5625 1.0625 -1.8125zm0.25 -4.4375q-0.046875 -1.90625 -0.984375 -2.890625q-0.9375 -1.0 -2.28125 -1.0q-1.4375 0 -2.375 1.046875q-0.9375 1.046875 -0.921875 2.84375l6.5625 0z" fill-rule="nonzero"></path><path fill="#000000" fill-opacity="0.0" d="m64.97113 356.84253l223.59055 0l0 71.55905l-223.59055 0z" fill-rule="nonzero"></path><path fill="#666666" d="m122.157036 396.56253l0 -22.90625l7.4218674 0q4.21875 0 5.5 0.34375q1.96875 0.515625 3.296875 2.25q1.328125 1.71875 1.328125 4.453125q0 2.109375 -0.765625 3.546875q-0.765625 1.4375 -1.953125 2.265625q-1.171875 0.8125 -2.390625 1.078125q-1.65625 0.328125 -4.796875 0.328125l-3.0156174 0l0 8.640625l-4.625 0zm4.625 -19.03125l0 6.5l2.5312424 0q2.734375 0 3.65625 -0.359375q0.921875 -0.359375 1.4375 -1.125q0.53125 -0.765625 0.53125 -1.78125q0 -1.25 -0.734375 -2.0625q-0.734375 -0.8125 -1.859375 -1.015625q-0.828125 -0.15625 -3.328125 -0.15625l-2.2343674 0zm16.687492 19.03125l0 -22.90625l4.390625 0l0 22.90625l-4.390625 0zm12.171875 -11.53125l-3.984375 -0.71875q0.671875 -2.40625 2.3125 -3.5625q1.640625 -1.15625 4.875 -1.15625q2.9375 0 4.375 0.703125q1.4375 0.6875 2.015625 1.765625q0.59375 1.0625 0.59375 3.921875l-0.046875 5.125q0 2.1875 0.203125 3.234375q0.21875 1.03125 0.796875 2.21875l-4.34375 0q-0.171875 -0.4375 -0.421875 -1.296875q-0.109375 -0.390625 -0.15625 -0.515625q-1.125 1.09375 -2.40625 1.640625q-1.28125 0.546875 -2.734375 0.546875q-2.5625 0 -4.046875 -1.390625q-1.46875 -1.390625 -1.46875 -3.515625q0 -1.40625 0.671875 -2.5q0.671875 -1.109375 1.875 -1.6875q1.21875 -0.59375 3.5 -1.03125q3.078125 -0.578125 4.265625 -1.078125l0 -0.4375q0 -1.265625 -0.625 -1.796875q-0.625 -0.546875 -2.359375 -0.546875q-1.171875 0 -1.828125 0.46875q-0.65625 0.453125 -1.0625 1.609375zm5.875 3.5625q-0.84375 0.28125 -2.671875 0.671875q-1.828125 0.390625 -2.390625 0.765625q-0.859375 0.609375 -0.859375 1.546875q0 0.921875 0.6875 1.59375q0.6875 0.671875 1.75 0.671875q1.1875 0 2.265625 -0.78125q0.796875 -0.59375 1.046875 -1.453125q0.171875 -0.5625 0.171875 -2.140625l0 -0.875zm6.5625 -8.625l4.671875 0l3.96875 11.78125l3.875 -11.78125l4.546875 0l-5.859375 15.96875l-1.046875 2.890625q-0.578125 1.453125 -1.109375 2.21875q-0.515625 0.765625 -1.203125 1.234375q-0.671875 0.484375 -1.671875 0.75q-0.984375 0.265625 -2.234375 0.265625q-1.265625 0 -2.484375 -0.265625l-0.390625 -3.4375q1.03125 0.203125 1.859375 0.203125q1.53125 0 2.265625 -0.90625q0.734375 -0.890625 1.125 -2.28125l-6.3125 -16.640625zm29.48439 11.3125l4.375 0.734375q-0.84375 2.40625 -2.671875 3.671875q-1.8125 1.25 -4.546875 1.25q-4.3281403 0 -6.4062653 -2.828125q-1.640625 -2.265625 -1.640625 -5.71875q0 -4.125 2.15625 -6.453125q2.15625 -2.34375 5.4531403 -2.34375q3.703125 0 5.84375 2.453125q2.140625 2.4375 2.046875 7.484375l-11.000015 0q0.046875 1.953125 1.0625 3.046875q1.0156403 1.078125 2.5312653 1.078125q1.03125 0 1.734375 -0.5625q0.703125 -0.5625 1.0625 -1.8125zm0.25 -4.4375q-0.046875 -1.90625 -0.984375 -2.890625q-0.9375 -1.0 -2.28125 -1.0q-1.4375 0 -2.3750153 1.046875q-0.9375 1.046875 -0.921875 2.84375l6.5625153 0zm12.140625 9.71875l-4.390625 0l0 -16.59375l4.078125 0l0 2.359375q1.046875 -1.671875 1.875 -2.203125q0.84375 -0.53125 1.90625 -0.53125q1.5 0 2.890625 0.828125l-1.359375 3.828125q-1.109375 -0.71875 -2.0625 -0.71875q-0.921875 0 -1.5625 0.515625q-0.640625 0.5 -1.015625 1.828125q-0.359375 1.328125 -0.359375 5.5625l0 5.125zm6.703125 -4.734375l4.40625 -0.671875q0.28125 1.28125 1.140625 1.953125q0.859375 0.65625 2.40625 0.65625q1.703125 0 2.5625 -0.625q0.578125 -0.4375 0.578125 -1.171875q0 -0.5 -0.3125 -0.828125q-0.328125 -0.3125 -1.46875 -0.578125q-5.3125 -1.171875 -6.734375 -2.140625q-1.96875 -1.34375 -1.96875 -3.734375q0 -2.15625 1.703125 -3.625q1.703125 -1.46875 5.28125 -1.46875q3.40625 0 5.0625 1.109375q1.65625 1.109375 2.28125 3.28125l-4.140625 0.765625q-0.265625 -0.96875 -1.015625 -1.484375q-0.734375 -0.515625 -2.109375 -0.515625q-1.734375 0 -2.484375 0.484375q-0.5 0.34375 -0.5 0.890625q0 0.46875 0.4375 0.796875q0.59375 0.4375 4.09375 1.234375q3.515625 0.796875 4.90625 1.953125q1.375 1.171875 1.375 3.265625q0 2.28125 -1.90625 3.921875q-1.90625 1.640625 -5.640625 1.640625q-3.390625 0 -5.375 -1.375q-1.96875 -1.375 -2.578125 -3.734375z" fill-rule="nonzero"></path><path fill="#000000" fill-opacity="0.0" d="m129.19685 111.96457l0 0c0 -3.5862274 2.9072113 -6.4934387 6.4934387 -6.4934387l25.973755 0l0 0c1.722168 0 3.3737946 0.6841278 4.5915527 1.901886c1.2177582 1.2177505 1.901886 2.8693848 1.901886 4.5915527l0 52.83989c0 3.5862274 -2.9072113 6.4934387 -6.4934387 6.4934387l-25.973755 0c-3.5862274 0 -6.4934387 -2.9072113 -6.4934387 -6.4934387z" fill-rule="nonzero"></path><path stroke="#666666" stroke-width="3.0" stroke-linejoin="round" stroke-linecap="butt" d="m129.19685 111.96457l0 0c0 -3.5862274 2.9072113 -6.4934387 6.4934387 -6.4934387l25.973755 0l0 0c1.722168 0 3.3737946 0.6841278 4.5915527 1.901886c1.2177582 1.2177505 1.901886 2.8693848 1.901886 4.5915527l0 52.83989c0 3.5862274 -2.9072113 6.4934387 -6.4934387 6.4934387l-25.973755 0c-3.5862274 0 -6.4934387 -2.9072113 -6.4934387 -6.4934387z" fill-rule="nonzero"></path><path fill="#000000" fill-opacity="0.0" d="m129.19685 159.0433l0 0c0 -1.1596527 0.94007874 -2.0997314 2.0997314 -2.0997314l34.761154 0c0.55688477 0 1.0909576 0.22122192 1.4847412 0.61499023c0.39378357 0.39378357 0.6150055 0.92785645 0.6150055 1.4847412l0 8.398956c0 1.1596527 -0.940094 2.0997314 -2.0997467 2.0997314l-34.761154 0c-1.1596527 0 -2.0997314 -0.94007874 -2.0997314 -2.0997314z" fill-rule="nonzero"></path><path stroke="#666666" stroke-width="3.0" stroke-linejoin="round" stroke-linecap="butt" d="m129.19685 159.0433l0 0c0 -1.1596527 0.94007874 -2.0997314 2.0997314 -2.0997314l34.761154 0c0.55688477 0 1.0909576 0.22122192 1.4847412 0.61499023c0.39378357 0.39378357 0.6150055 0.92785645 0.6150055 1.4847412l0 8.398956c0 1.1596527 -0.940094 2.0997314 -2.0997467 2.0997314l-34.761154 0c-1.1596527 0 -2.0997314 -0.94007874 -2.0997314 -2.0997314z" fill-rule="nonzero"></path><path fill="#999999" d="m132.66142 113.88058l0 0c0 -2.954216 2.394867 -5.349083 5.3490753 -5.349083l21.396332 0l0 0c1.4186554 0 2.7792206 0.5635605 3.782364 1.5667114c1.0031433 1.0031509 1.5667114 2.3637085 1.5667114 3.7823715l0 34.719154c0 2.9542236 -2.394867 5.3490906 -5.3490753 5.3490906l-21.396332 0c-2.9542084 0 -5.3490753 -2.394867 -5.3490753 -5.3490906z" fill-rule="nonzero"></path><path stroke="#666666" stroke-width="1.0" stroke-linejoin="round" stroke-linecap="butt" d="m132.66142 113.88058l0 0c0 -2.954216 2.394867 -5.349083 5.3490753 -5.349083l21.396332 0l0 0c1.4186554 0 2.7792206 0.5635605 3.782364 1.5667114c1.0031433 1.0031509 1.5667114 2.3637085 1.5667114 3.7823715l0 34.719154c0 2.9542236 -2.394867 5.3490906 -5.3490753 5.3490906l-21.396332 0c-2.9542084 0 -5.3490753 -2.394867 -5.3490753 -5.3490906z" fill-rule="nonzero"></path><path fill="#999999" d="m138.77165 161.36351l0 0c0 -0.51893616 0.4206848 -0.939621 0.93963623 -0.939621l17.931763 0c0.24920654 0 0.48820496 0.09899902 0.66441345 0.27520752c0.1762085 0.1762085 0.27520752 0.4152069 0.27520752 0.66441345l0 3.7585297c0 0.5189514 -0.4206848 0.93963623 -0.939621 0.93963623l-17.931763 0c-0.5189514 0 -0.93963623 -0.4206848 -0.93963623 -0.93963623z" fill-rule="nonzero"></path><path stroke="#666666" stroke-width="1.0" stroke-linejoin="round" stroke-linecap="butt" d="m138.77165 161.36351l0 0c0 -0.51893616 0.4206848 -0.939621 0.93963623 -0.939621l17.931763 0c0.24920654 0 0.48820496 0.09899902 0.66441345 0.27520752c0.1762085 0.1762085 0.27520752 0.4152069 0.27520752 0.66441345l0 3.7585297c0 0.5189514 -0.4206848 0.93963623 -0.939621 0.93963623l-17.931763 0c-0.5189514 0 -0.93963623 -0.4206848 -0.93963623 -0.93963623z" fill-rule="nonzero"></path><path fill="#000000" fill-opacity="0.0" d="m184.80577 426.5866l0 0c0 -3.5862122 2.9072113 -6.4934387 6.4934387 -6.4934387l25.973755 0l0 0c1.722168 0 3.3737946 0.68414307 4.5915527 1.901886c1.2177582 1.2177734 1.901886 2.8693848 1.901886 4.5915527l0 52.839905c0 3.5862122 -2.9072113 6.4934387 -6.4934387 6.4934387l-25.973755 0c-3.5862274 0 -6.4934387 -2.9072266 -6.4934387 -6.4934387z" fill-rule="nonzero"></path><path stroke="#666666" stroke-width="3.0" stroke-linejoin="round" stroke-linecap="butt" d="m184.80577 426.5866l0 0c0 -3.5862122 2.9072113 -6.4934387 6.4934387 -6.4934387l25.973755 0l0 0c1.722168 0 3.3737946 0.68414307 4.5915527 1.901886c1.2177582 1.2177734 1.901886 2.8693848 1.901886 4.5915527l0 52.839905c0 3.5862122 -2.9072113 6.4934387 -6.4934387 6.4934387l-25.973755 0c-3.5862274 0 -6.4934387 -2.9072266 -6.4934387 -6.4934387z" fill-rule="nonzero"></path><path fill="#000000" fill-opacity="0.0" d="m184.80577 473.66534l0 0c0 -1.1596375 0.940094 -2.0997314 2.0997467 -2.0997314l34.761154 0c0.55688477 0 1.0909576 0.22122192 1.4847412 0.61499023c0.3937683 0.39379883 0.61499023 0.92785645 0.61499023 1.4847412l0 8.398956c0 1.159668 -0.94007874 2.0997314 -2.0997314 2.0997314l-34.761154 0c-1.1596527 0 -2.0997467 -0.9400635 -2.0997467 -2.0997314z" fill-rule="nonzero"></path><path stroke="#666666" stroke-width="3.0" stroke-linejoin="round" stroke-linecap="butt" d="m184.80577 473.66534l0 0c0 -1.1596375 0.940094 -2.0997314 2.0997467 -2.0997314l34.761154 0c0.55688477 0 1.0909576 0.22122192 1.4847412 0.61499023c0.3937683 0.39379883 0.61499023 0.92785645 0.61499023 1.4847412l0 8.398956c0 1.159668 -0.94007874 2.0997314 -2.0997314 2.0997314l-34.761154 0c-1.1596527 0 -2.0997467 -0.9400635 -2.0997467 -2.0997314z" fill-rule="nonzero"></path><path fill="#999999" d="m188.27034 428.50262l0 0c0 -2.9542236 2.394867 -5.3490906 5.3490753 -5.3490906l21.396332 0l0 0c1.4186707 0 2.7792206 0.5635681 3.7823792 1.5667114c1.0031433 1.0031433 1.5666962 2.3637085 1.5666962 3.7823792l0 34.719147c0 2.9542236 -2.394867 5.3490906 -5.3490753 5.3490906l-21.396332 0c-2.9542084 0 -5.3490753 -2.394867 -5.3490753 -5.3490906z" fill-rule="nonzero"></path><path stroke="#666666" stroke-width="1.0" stroke-linejoin="round" stroke-linecap="butt" d="m188.27034 428.50262l0 0c0 -2.9542236 2.394867 -5.3490906 5.3490753 -5.3490906l21.396332 0l0 0c1.4186707 0 2.7792206 0.5635681 3.7823792 1.5667114c1.0031433 1.0031433 1.5666962 2.3637085 1.5666962 3.7823792l0 34.719147c0 2.9542236 -2.394867 5.3490906 -5.3490753 5.3490906l-21.396332 0c-2.9542084 0 -5.3490753 -2.394867 -5.3490753 -5.3490906z" fill-rule="nonzero"></path><path fill="#999999" d="m194.38058 475.98557l0 0c0 -0.5189514 0.4206848 -0.93963623 0.939621 -0.93963623l17.931763 0c0.24920654 0 0.48820496 0.09899902 0.66441345 0.27520752c0.17622375 0.1762085 0.27522278 0.41522217 0.27522278 0.6644287l0 3.7585144c0 0.5189514 -0.4206848 0.93963623 -0.93963623 0.93963623l-17.931763 0c-0.51893616 0 -0.939621 -0.4206848 -0.939621 -0.93963623z" fill-rule="nonzero"></path><path stroke="#666666" stroke-width="1.0" stroke-linejoin="round" stroke-linecap="butt" d="m194.38058 475.98557l0 0c0 -0.5189514 0.4206848 -0.93963623 0.939621 -0.93963623l17.931763 0c0.24920654 0 0.48820496 0.09899902 0.66441345 0.27520752c0.17622375 0.1762085 0.27522278 0.41522217 0.27522278 0.6644287l0 3.7585144c0 0.5189514 -0.4206848 0.93963623 -0.93963623 0.93963623l-17.931763 0c-0.51893616 0 -0.939621 -0.4206848 -0.939621 -0.93963623z" fill-rule="nonzero"></path><path fill="#cccccc" d="m195.2207 120.49475l173.13385 0l0 -17.889763l35.77951 35.779533l-35.77951 35.779526l0 -17.88977l-173.13385 0z" fill-rule="nonzero"></path><path fill="#000000" d="m215.79306 146.92451l0 -17.1875l7.296875 0q2.75 0 4.0 0.46875q1.25 0.46875 2.0 1.65625q0.75 1.171875 0.75 2.703125q0 1.921875 -1.140625 3.1875q-1.140625 1.265625 -3.390625 1.59375q1.125 0.65625 1.84375 1.4375q0.734375 0.78125 1.984375 2.78125l2.09375 3.359375l-4.140625 0l-2.515625 -3.734375q-1.328125 -2.015625 -1.828125 -2.53125q-0.484375 -0.515625 -1.046875 -0.703125q-0.546875 -0.203125 -1.734375 -0.203125l-0.703125 0l0 7.171875l-3.46875 0zm3.46875 -9.921875l2.5625 0q2.5 0 3.109375 -0.203125q0.625 -0.21875 0.96875 -0.734375q0.359375 -0.515625 0.359375 -1.28125q0 -0.875 -0.46875 -1.40625q-0.453125 -0.53125 -1.296875 -0.671875q-0.421875 -0.0625 -2.53125 -0.0625l-2.703125 0l0 4.359375zm21.035156 5.953125l3.28125 0.5625q-0.640625 1.796875 -2.015625 2.75q-1.359375 0.9375 -3.40625 0.9375q-3.25 0 -4.796875 -2.125q-1.234375 -1.703125 -1.234375 -4.28125q0 -3.09375 1.609375 -4.84375q1.625 -1.765625 4.09375 -1.765625q2.78125 0 4.375 1.84375q1.609375 1.828125 1.546875 5.609375l-8.25 0q0.03125 1.46875 0.796875 2.28125q0.765625 0.8125 1.890625 0.8125q0.78125 0 1.296875 -0.421875q0.53125 -0.421875 0.8125 -1.359375zm0.1875 -3.328125q-0.046875 -1.421875 -0.75 -2.15625q-0.703125 -0.75 -1.703125 -0.75q-1.078125 0 -1.78125 0.78125q-0.703125 0.78125 -0.6875 2.125l4.921875 0zm4.5039062 -5.15625l1.828125 0l0 -0.9375q0 -1.5625 0.328125 -2.328125q0.34375 -0.78125 1.234375 -1.265625q0.90625 -0.484375 2.265625 -0.484375q1.40625 0 2.765625 0.421875l-0.453125 2.296875q-0.78125 -0.1875 -1.515625 -0.1875q-0.703125 0 -1.015625 0.328125q-0.3125 0.328125 -0.3125 1.28125l0 0.875l2.453125 0l0 2.59375l-2.453125 0l0 9.859375l-3.296875 0l0 -9.859375l-1.828125 0l0 -2.59375zm16.648438 8.484375l3.28125 0.5625q-0.640625 1.796875 -2.015625 2.75q-1.359375 0.9375 -3.40625 0.9375q-3.25 0 -4.796875 -2.125q-1.234375 -1.703125 -1.234375 -4.28125q0 -3.09375 1.609375 -4.84375q1.625 -1.765625 4.09375 -1.765625q2.78125 0 4.375 1.84375q1.609375 1.828125 1.546875 5.609375l-8.25 0q0.03125 1.46875 0.796875 2.28125q0.765625 0.8125 1.890625 0.8125q0.78125 0 1.296875 -0.421875q0.53125 -0.421875 0.8125 -1.359375zm0.1875 -3.328125q-0.046875 -1.421875 -0.75 -2.15625q-0.703125 -0.75 -1.703125 -0.75q-1.078125 0 -1.78125 0.78125q-0.703125 0.78125 -0.6875 2.125l4.921875 0zm9.097656 7.296875l-3.296875 0l0 -12.453125l3.0625 0l0 1.78125q0.78125 -1.265625 1.40625 -1.65625q0.640625 -0.40625 1.4375 -0.40625q1.125 0 2.15625 0.625l-1.015625 2.875q-0.828125 -0.546875 -1.546875 -0.546875q-0.6875 0 -1.171875 0.390625q-0.484375 0.375 -0.765625 1.375q-0.265625 1.0 -0.265625 4.171875l0 3.84375zm13.402344 -3.96875l3.28125 0.5625q-0.640625 1.796875 -2.015625 2.75q-1.359375 0.9375 -3.40625 0.9375q-3.25 0 -4.796875 -2.125q-1.234375 -1.703125 -1.234375 -4.28125q0 -3.09375 1.609375 -4.84375q1.625 -1.765625 4.09375 -1.765625q2.78125 0 4.375 1.84375q1.609375 1.828125 1.546875 5.609375l-8.25 0q0.03125 1.46875 0.796875 2.28125q0.765625 0.8125 1.890625 0.8125q0.78125 0 1.296875 -0.421875q0.53125 -0.421875 0.8125 -1.359375zm0.1875 -3.328125q-0.046875 -1.421875 -0.75 -2.15625q-0.703125 -0.75 -1.703125 -0.75q-1.078125 0 -1.78125 0.78125q-0.703125 0.78125 -0.6875 2.125l4.921875 0zm13.160156 3.328125l3.28125 0.5625q-0.640625 1.796875 -2.015625 2.75q-1.359375 0.9375 -3.40625 0.9375q-3.25 0 -4.796875 -2.125q-1.234375 -1.703125 -1.234375 -4.28125q0 -3.09375 1.609375 -4.84375q1.625 -1.765625 4.09375 -1.765625q2.78125 0 4.375 1.84375q1.609375 1.828125 1.546875 5.609375l-8.25 0q0.03125 1.46875 0.796875 2.28125q0.765625 0.8125 1.890625 0.8125q0.78125 0 1.296875 -0.421875q0.53125 -0.421875 0.8125 -1.359375zm0.1875 -3.328125q-0.046875 -1.421875 -0.75 -2.15625q-0.703125 -0.75 -1.703125 -0.75q-1.078125 0 -1.78125 0.78125q-0.703125 0.78125 -0.6875 2.125l4.921875 0zm5.2695312 -1.1875q0 -2.625 0.78125 -4.40625q0.59375 -1.3125 1.59375 -2.359375q1.015625 -1.046875 2.234375 -1.546875q1.59375 -0.671875 3.703125 -0.671875q3.796875 0 6.0625 2.359375q2.28125 2.34375 2.28125 6.546875q0 4.15625 -2.265625 6.515625q-2.25 2.34375 -6.03125 2.34375q-3.84375 0 -6.109375 -2.34375q-2.25 -2.34375 -2.25 -6.4375zm3.578125 -0.125q0 2.921875 1.34375 4.4375q1.34375 1.5 3.421875 1.5q2.078125 0 3.40625 -1.484375q1.328125 -1.5 1.328125 -4.5q0 -2.953125 -1.296875 -4.40625q-1.296875 -1.453125 -3.4375 -1.453125q-2.140625 0 -3.453125 1.484375q-1.3125 1.46875 -1.3125 4.421875zm18.917969 8.609375l-3.296875 0l0 -12.453125l3.0625 0l0 1.78125q0.78125 -1.265625 1.40625 -1.65625q0.640625 -0.40625 1.4375 -0.40625q1.125 0 2.15625 0.625l-1.015625 2.875q-0.828125 -0.546875 -1.546875 -0.546875q-0.6875 0 -1.171875 0.390625q-0.484375 0.375 -0.765625 1.375q-0.265625 1.0 -0.265625 4.171875l0 3.84375zm17.605469 0l-3.0625 0l0 -1.828125q-0.765625 1.0625 -1.796875 1.59375q-1.03125 0.515625 -2.09375 0.515625q-2.140625 0 -3.671875 -1.71875q-1.53125 -1.734375 -1.53125 -4.828125q0 -3.171875 1.484375 -4.8125q1.5 -1.65625 3.765625 -1.65625q2.09375 0 3.609375 1.734375l0 -6.1875l3.296875 0l0 17.1875zm-8.796875 -6.5q0 2.0 0.5625 2.890625q0.796875 1.28125 2.21875 1.28125q1.140625 0 1.9375 -0.953125q0.796875 -0.96875 0.796875 -2.890625q0 -2.15625 -0.78125 -3.09375q-0.765625 -0.9375 -1.96875 -0.9375q-1.171875 0 -1.96875 0.9375q-0.796875 0.921875 -0.796875 2.765625zm19.253906 2.53125l3.28125 0.5625q-0.640625 1.796875 -2.015625 2.75q-1.359375 0.9375 -3.40625 0.9375q-3.25 0 -4.796875 -2.125q-1.234375 -1.703125 -1.234375 -4.28125q0 -3.09375 1.609375 -4.84375q1.625 -1.765625 4.09375 -1.765625q2.78125 0 4.375 1.84375q1.609375 1.828125 1.546875 5.609375l-8.25 0q0.03125 1.46875 0.796875 2.28125q0.765625 0.8125 1.890625 0.8125q0.78125 0 1.296875 -0.421875q0.53125 -0.421875 0.8125 -1.359375zm0.1875 -3.328125q-0.046875 -1.421875 -0.75 -2.15625q-0.703125 -0.75 -1.703125 -0.75q-1.078125 0 -1.78125 0.78125q-0.703125 0.78125 -0.6875 2.125l4.921875 0zm9.097656 7.296875l-3.296875 0l0 -12.453125l3.0625 0l0 1.78125q0.78125 -1.265625 1.40625 -1.65625q0.640625 -0.40625 1.4375 -0.40625q1.125 0 2.15625 0.625l-1.015625 2.875q-0.828125 -0.546875 -1.546875 -0.546875q-0.6875 0 -1.171875 0.390625q-0.484375 0.375 -0.765625 1.375q-0.265625 1.0 -0.265625 4.171875l0 3.84375z" fill-rule="nonzero"></path><path fill="#cccccc" d="m240.62993 411.15616l166.3307 0l0 -17.88974l35.77954 35.77951l-35.77954 35.77954l0 -17.88977l-166.3307 0z" fill-rule="nonzero"></path><path fill="#000000" d="m272.45697 437.58594l0 -17.1875l5.5625 0q3.171875 0 4.125 0.265625q1.484375 0.390625 2.46875 1.6875q1.0 1.28125 1.0 3.34375q0 1.578125 -0.578125 2.65625q-0.5625 1.078125 -1.453125 1.703125q-0.890625 0.609375 -1.796875 0.796875q-1.25 0.25 -3.59375 0.25l-2.265625 0l0 6.484375l-3.46875 0zm3.46875 -14.28125l0 4.875l1.890625 0q2.0625 0 2.75 -0.265625q0.6875 -0.265625 1.078125 -0.84375q0.390625 -0.578125 0.390625 -1.328125q0 -0.9375 -0.546875 -1.546875q-0.546875 -0.609375 -1.390625 -0.765625q-0.625 -0.125 -2.5 -0.125l-1.671875 0zm12.5078125 14.28125l0 -17.1875l3.296875 0l0 17.1875l-3.296875 0zm9.136719 -8.65625l-2.984375 -0.53125q0.5 -1.8125 1.71875 -2.671875q1.234375 -0.875 3.671875 -0.875q2.203125 0 3.28125 0.53125q1.078125 0.515625 1.515625 1.328125q0.4375 0.796875 0.4375 2.9375l-0.03125 3.84375q0 1.640625 0.15625 2.421875q0.15625 0.78125 0.59375 1.671875l-3.265625 0q-0.125 -0.328125 -0.3125 -0.96875q-0.078125 -0.296875 -0.125 -0.390625q-0.84375 0.8125 -1.8125 1.234375q-0.953125 0.40625 -2.03125 0.40625q-1.921875 0 -3.03125 -1.046875q-1.109375 -1.046875 -1.109375 -2.640625q0 -1.046875 0.5 -1.875q0.5 -0.828125 1.40625 -1.265625q0.921875 -0.4375 2.625 -0.765625q2.3125 -0.4375 3.203125 -0.8125l0 -0.328125q0 -0.953125 -0.46875 -1.34375q-0.46875 -0.40625 -1.765625 -0.40625q-0.890625 0 -1.390625 0.34375q-0.484375 0.34375 -0.78125 1.203125zm4.40625 2.671875q-0.640625 0.21875 -2.015625 0.515625q-1.359375 0.28125 -1.78125 0.5625q-0.640625 0.46875 -0.640625 1.171875q0 0.6875 0.515625 1.1875q0.515625 0.5 1.3125 0.5q0.890625 0 1.6875 -0.578125q0.609375 -0.453125 0.796875 -1.09375q0.125 -0.421875 0.125 -1.609375l0 -0.65625zm4.9257812 -6.46875l3.5 0l2.96875 8.84375l2.90625 -8.84375l3.421875 0l-4.40625 11.984375l-0.78125 2.171875q-0.4375 1.09375 -0.828125 1.65625q-0.390625 0.578125 -0.90625 0.9375q-0.5 0.359375 -1.25 0.546875q-0.734375 0.203125 -1.671875 0.203125q-0.953125 0 -1.875 -0.1875l-0.28125 -2.578125q0.765625 0.140625 1.390625 0.140625q1.140625 0 1.6875 -0.671875q0.5625 -0.671875 0.859375 -1.71875l-4.734375 -12.484375zm22.113281 8.484375l3.28125 0.5625q-0.640625 1.796875 -2.015625 2.75q-1.359375 0.9375 -3.40625 0.9375q-3.25 0 -4.796875 -2.125q-1.234375 -1.703125 -1.234375 -4.28125q0 -3.09375 1.609375 -4.84375q1.625 -1.765625 4.09375 -1.765625q2.78125 0 4.375 1.84375q1.609375 1.828125 1.546875 5.609375l-8.25 0q0.03125 1.46875 0.796875 2.28125q0.765625 0.8125 1.890625 0.8125q0.78125 0 1.296875 -0.421875q0.53125 -0.421875 0.8125 -1.359375zm0.1875 -3.328125q-0.046875 -1.421875 -0.75 -2.15625q-0.703125 -0.75 -1.703125 -0.75q-1.078125 0 -1.78125 0.78125q-0.703125 0.78125 -0.6875 2.125l4.921875 0zm9.097656 7.296875l-3.296875 0l0 -12.453125l3.0625 0l0 1.78125q0.78125 -1.265625 1.40625 -1.65625q0.640625 -0.40625 1.4375 -0.40625q1.125 0 2.15625 0.625l-1.015625 2.875q-0.828125 -0.546875 -1.546875 -0.546875q-0.6875 0 -1.171875 0.390625q-0.484375 0.375 -0.765625 1.375q-0.265625 1.0 -0.265625 4.171875l0 3.84375zm10.589844 0l-6.140625 -17.1875l3.765625 0l4.34375 12.71875l4.21875 -12.71875l3.671875 0l-6.15625 17.1875l-3.703125 0zm10.8515625 -6.40625q0 -1.640625 0.796875 -3.171875q0.8125 -1.53125 2.296875 -2.34375q1.484375 -0.8125 3.3125 -0.8125q2.828125 0 4.625 1.84375q1.8125 1.828125 1.8125 4.625q0 2.828125 -1.828125 4.6875q-1.828125 1.859375 -4.59375 1.859375q-1.703125 0 -3.265625 -0.765625q-1.546875 -0.78125 -2.359375 -2.265625q-0.796875 -1.5 -0.796875 -3.65625zm3.375 0.1875q0 1.84375 0.875 2.828125q0.875 0.984375 2.171875 0.984375q1.28125 0 2.15625 -0.984375q0.875 -0.984375 0.875 -2.859375q0 -1.828125 -0.875 -2.8125q-0.875 -0.984375 -2.15625 -0.984375q-1.296875 0 -2.171875 0.984375q-0.875 0.984375 -0.875 2.84375zm17.753906 -6.234375l0 2.625l-2.25 0l0 5.015625q0 1.53125 0.0625 1.78125q0.0625 0.25 0.28125 0.421875q0.234375 0.15625 0.5625 0.15625q0.453125 0 1.328125 -0.3125l0.28125 2.546875q-1.15625 0.5 -2.609375 0.5q-0.890625 0 -1.609375 -0.296875q-0.703125 -0.296875 -1.046875 -0.765625q-0.328125 -0.484375 -0.453125 -1.296875q-0.109375 -0.578125 -0.109375 -2.3125l0 -5.4375l-1.515625 0l0 -2.625l1.515625 0l0 -2.46875l3.3125 -1.921875l0 4.390625l2.25 0zm9.4921875 8.484375l3.28125 0.5625q-0.640625 1.796875 -2.015625 2.75q-1.359375 0.9375 -3.40625 0.9375q-3.25 0 -4.796875 -2.125q-1.234375 -1.703125 -1.234375 -4.28125q0 -3.09375 1.609375 -4.84375q1.625 -1.765625 4.09375 -1.765625q2.78125 0 4.375 1.84375q1.609375 1.828125 1.546875 5.609375l-8.25 0q0.03125 1.46875 0.796875 2.28125q0.765625 0.8125 1.890625 0.8125q0.78125 0 1.296875 -0.421875q0.53125 -0.421875 0.8125 -1.359375zm0.1875 -3.328125q-0.046875 -1.421875 -0.75 -2.15625q-0.703125 -0.75 -1.703125 -0.75q-1.078125 0 -1.78125 0.78125q-0.703125 0.78125 -0.6875 2.125l4.921875 0z" fill-rule="nonzero"></path><path fill="#000000" fill-opacity="0.0" d="m129.19685 245.41614l313.54333 0l0 71.55905l-313.54333 0z" fill-rule="nonzero"></path><path fill="#000000" d="m198.78296 271.8624l3.375 -0.328125q0.296875 1.703125 1.21875 2.5q0.9375 0.796875 2.53125 0.796875q1.671875 0 2.515625 -0.703125q0.859375 -0.71875 0.859375 -1.671875q0 -0.609375 -0.359375 -1.03125q-0.359375 -0.421875 -1.25 -0.75q-0.609375 -0.203125 -2.78125 -0.75q-2.78125 -0.6875 -3.90625 -1.6875q-1.59375 -1.421875 -1.59375 -3.46875q0 -1.3125 0.75 -2.453125q0.75 -1.140625 2.140625 -1.734375q1.40625 -0.59375 3.390625 -0.59375q3.234375 0 4.859375 1.421875q1.640625 1.40625 1.71875 3.78125l-3.46875 0.140625q-0.21875 -1.3125 -0.953125 -1.890625q-0.734375 -0.59375 -2.203125 -0.59375q-1.5 0 -2.359375 0.625q-0.546875 0.40625 -0.546875 1.0625q0 0.609375 0.515625 1.046875q0.65625 0.546875 3.1875 1.15625q2.53125 0.59375 3.734375 1.234375q1.21875 0.640625 1.90625 1.75q0.6875 1.09375 0.6875 2.734375q0 1.46875 -0.828125 2.765625q-0.8125 1.28125 -2.3125 1.921875q-1.5 0.625 -3.75 0.625q-3.25 0 -5.0 -1.5q-1.75 -1.515625 -2.078125 -4.40625zm24.070312 1.625l3.28125 0.5625q-0.640625 1.796875 -2.015625 2.75q-1.359375 0.9375 -3.40625 0.9375q-3.25 0 -4.796875 -2.125q-1.234375 -1.703125 -1.234375 -4.28125q0 -3.09375 1.609375 -4.84375q1.625 -1.765625 4.09375 -1.765625q2.78125 0 4.375 1.84375q1.609375 1.828125 1.546875 5.609375l-8.25 0q0.03125 1.46875 0.796875 2.28125q0.765625 0.8125 1.890625 0.8125q0.78125 0 1.296875 -0.421875q0.53125 -0.421875 0.8125 -1.359375zm0.1875 -3.328125q-0.046875 -1.421875 -0.75 -2.15625q-0.703125 -0.75 -1.703125 -0.75q-1.078125 0 -1.78125 0.78125q-0.703125 0.78125 -0.6875 2.125l4.921875 0zm9.097656 7.296875l-3.296875 0l0 -12.453125l3.0625 0l0 1.78125q0.78125 -1.265625 1.40625 -1.65625q0.640625 -0.40625 1.4375 -0.40625q1.125 0 2.15625 0.625l-1.015625 2.875q-0.828125 -0.546875 -1.546875 -0.546875q-0.6875 0 -1.171875 0.390625q-0.484375 0.375 -0.765625 1.375q-0.265625 1.0 -0.265625 4.171875l0 3.84375zm9.605469 0l-5.015625 -12.453125l3.46875 0l2.34375 6.359375l0.671875 2.125q0.265625 -0.8125 0.34375 -1.078125q0.15625 -0.515625 0.34375 -1.046875l2.375 -6.359375l3.390625 0l-4.953125 12.453125l-2.96875 0zm17.144531 -3.96875l3.28125 0.5625q-0.640625 1.796875 -2.015625 2.75q-1.359375 0.9375 -3.40625 0.9375q-3.25 0 -4.796875 -2.125q-1.234375 -1.703125 -1.234375 -4.28125q0 -3.09375 1.609375 -4.84375q1.625 -1.765625 4.09375 -1.765625q2.78125 0 4.375 1.84375q1.609375 1.828125 1.546875 5.609375l-8.25 0q0.03125 1.46875 0.796875 2.28125q0.765625 0.8125 1.890625 0.8125q0.78125 0 1.296875 -0.421875q0.53125 -0.421875 0.8125 -1.359375zm0.1875 -3.328125q-0.046875 -1.421875 -0.75 -2.15625q-0.703125 -0.75 -1.703125 -0.75q-1.078125 0 -1.78125 0.78125q-0.703125 0.78125 -0.6875 2.125l4.921875 0zm9.097656 7.296875l-3.296875 0l0 -12.453125l3.0625 0l0 1.78125q0.78125 -1.265625 1.40625 -1.65625q0.640625 -0.40625 1.4375 -0.40625q1.125 0 2.15625 0.625l-1.015625 2.875q-0.828125 -0.546875 -1.546875 -0.546875q-0.6875 0 -1.171875 0.390625q-0.484375 0.375 -0.765625 1.375q-0.265625 1.0 -0.265625 4.171875l0 3.84375zm6.1679688 0l0 -17.1875l5.1875 0l3.125 11.71875l3.078125 -11.71875l5.203125 0l0 17.1875l-3.21875 0l0 -13.53125l-3.421875 13.53125l-3.328125 0l-3.40625 -13.53125l0 13.53125l-3.21875 0zm27.226562 -3.96875l3.28125 0.5625q-0.640625 1.796875 -2.015625 2.75q-1.359375 0.9375 -3.40625 0.9375q-3.25 0 -4.796875 -2.125q-1.234375 -1.703125 -1.234375 -4.28125q0 -3.09375 1.609375 -4.84375q1.625 -1.765625 4.09375 -1.765625q2.78125 0 4.375 1.84375q1.609375 1.828125 1.546875 5.609375l-8.25 0q0.03125 1.46875 0.796875 2.28125q0.765625 0.8125 1.890625 0.8125q0.78125 0 1.296875 -0.421875q0.53125 -0.421875 0.8125 -1.359375zm0.1875 -3.328125q-0.046875 -1.421875 -0.75 -2.15625q-0.703125 -0.75 -1.703125 -0.75q-1.078125 0 -1.78125 0.78125q-0.703125 0.78125 -0.6875 2.125l4.921875 0zm4.7851562 3.75l3.3125 -0.515625q0.203125 0.96875 0.84375 1.46875q0.65625 0.5 1.8125 0.5q1.28125 0 1.921875 -0.46875q0.4375 -0.328125 0.4375 -0.890625q0 -0.375 -0.234375 -0.609375q-0.25 -0.234375 -1.109375 -0.4375q-3.984375 -0.875 -5.046875 -1.609375q-1.484375 -1.0 -1.484375 -2.796875q0 -1.625 1.28125 -2.71875q1.28125 -1.109375 3.96875 -1.109375q2.546875 0 3.78125 0.84375q1.25 0.828125 1.71875 2.453125l-3.109375 0.578125q-0.1875 -0.734375 -0.75 -1.109375q-0.5625 -0.390625 -1.59375 -0.390625q-1.296875 0 -1.859375 0.359375q-0.375 0.265625 -0.375 0.671875q0 0.34375 0.328125 0.59375q0.453125 0.328125 3.078125 0.9375q2.625 0.59375 3.671875 1.453125q1.03125 0.875 1.03125 2.453125q0 1.703125 -1.4375 2.9375q-1.421875 1.234375 -4.21875 1.234375q-2.546875 0 -4.03125 -1.03125q-1.484375 -1.03125 -1.9375 -2.796875zm13.347656 0l3.3125 -0.515625q0.203125 0.96875 0.84375 1.46875q0.65625 0.5 1.8125 0.5q1.28125 0 1.921875 -0.46875q0.4375 -0.328125 0.4375 -0.890625q0 -0.375 -0.234375 -0.609375q-0.25 -0.234375 -1.109375 -0.4375q-3.984375 -0.875 -5.046875 -1.609375q-1.484375 -1.0 -1.484375 -2.796875q0 -1.625 1.28125 -2.71875q1.28125 -1.109375 3.96875 -1.109375q2.546875 0 3.78125 0.84375q1.25 0.828125 1.71875 2.453125l-3.109375 0.578125q-0.1875 -0.734375 -0.75 -1.109375q-0.5625 -0.390625 -1.59375 -0.390625q-1.296875 0 -1.859375 0.359375q-0.375 0.265625 -0.375 0.671875q0 0.34375 0.328125 0.59375q0.453125 0.328125 3.078125 0.9375q2.625 0.59375 3.671875 1.453125q1.03125 0.875 1.03125 2.453125q0 1.703125 -1.4375 2.9375q-1.421875 1.234375 -4.21875 1.234375q-2.546875 0 -4.03125 -1.03125q-1.484375 -1.03125 -1.9375 -2.796875zm16.972656 -5.109375l-2.984375 -0.53125q0.5 -1.8125 1.71875 -2.671875q1.234375 -0.875 3.671875 -0.875q2.203125 0 3.28125 0.53125q1.078125 0.515625 1.515625 1.328125q0.4375 0.796875 0.4375 2.9375l-0.03125 3.84375q0 1.640625 0.15625 2.421875q0.15625 0.78125 0.59375 1.671875l-3.265625 0q-0.125 -0.328125 -0.3125 -0.96875q-0.078125 -0.296875 -0.125 -0.390625q-0.84375 0.8125 -1.8125 1.234375q-0.953125 0.40625 -2.03125 0.40625q-1.921875 0 -3.03125 -1.046875q-1.109375 -1.046875 -1.109375 -2.640625q0 -1.046875 0.5 -1.875q0.5 -0.828125 1.40625 -1.265625q0.921875 -0.4375 2.625 -0.765625q2.3125 -0.4375 3.203125 -0.8125l0 -0.328125q0 -0.953125 -0.46875 -1.34375q-0.46875 -0.40625 -1.765625 -0.40625q-0.890625 0 -1.390625 0.34375q-0.484375 0.34375 -0.78125 1.203125zm4.40625 2.671875q-0.640625 0.21875 -2.015625 0.515625q-1.359375 0.28125 -1.78125 0.5625q-0.640625 0.46875 -0.640625 1.171875q0 0.6875 0.515625 1.1875q0.515625 0.5 1.3125 0.5q0.890625 0 1.6875 -0.578125q0.609375 -0.453125 0.796875 -1.09375q0.125 -0.421875 0.125 -1.609375l0 -0.65625zm6.1757812 6.8125l3.765625 0.453125q0.09375 0.65625 0.421875 0.90625q0.46875 0.34375 1.484375 0.34375q1.28125 0 1.9375 -0.390625q0.421875 -0.25 0.65625 -0.828125q0.140625 -0.40625 0.140625 -1.515625l0 -1.8125q-1.46875 2.015625 -3.71875 2.015625q-2.515625 0 -3.96875 -2.125q-1.15625 -1.671875 -1.15625 -4.171875q0 -3.125 1.5 -4.78125q1.515625 -1.65625 3.75 -1.65625q2.3125 0 3.8125 2.03125l0 -1.75l3.078125 0l0 11.171875q0 2.203125 -0.359375 3.296875q-0.359375 1.09375 -1.015625 1.703125q-0.65625 0.625 -1.765625 0.96875q-1.09375 0.359375 -2.765625 0.359375q-3.15625 0 -4.484375 -1.078125q-1.328125 -1.078125 -1.328125 -2.75q0 -0.15625 0.015625 -0.390625zm2.9375 -7.3125q0 1.984375 0.765625 2.90625q0.765625 0.921875 1.890625 0.921875q1.21875 0 2.046875 -0.9375q0.828125 -0.953125 0.828125 -2.8125q0 -1.921875 -0.796875 -2.859375q-0.796875 -0.9375 -2.015625 -0.9375q-1.1875 0 -1.953125 0.921875q-0.765625 0.90625 -0.765625 2.796875zm19.238281 2.515625l3.28125 0.5625q-0.640625 1.796875 -2.015625 2.75q-1.359375 0.9375 -3.40625 0.9375q-3.25 0 -4.796875 -2.125q-1.234375 -1.703125 -1.234375 -4.28125q0 -3.09375 1.609375 -4.84375q1.625 -1.765625 4.09375 -1.765625q2.78125 0 4.375 1.84375q1.609375 1.828125 1.546875 5.609375l-8.25 0q0.03125 1.46875 0.796875 2.28125q0.765625 0.8125 1.890625 0.8125q0.78125 0 1.296875 -0.421875q0.53125 -0.421875 0.8125 -1.359375zm0.1875 -3.328125q-0.046875 -1.421875 -0.75 -2.15625q-0.703125 -0.75 -1.703125 -0.75q-1.078125 0 -1.78125 0.78125q-0.703125 0.78125 -0.6875 2.125l4.921875 0z" fill-rule="nonzero"></path><path fill="#000000" fill-opacity="0.0" d="m498.19684 272.39764l345.22833 0l0 202.74014l-345.22833 0z" fill-rule="nonzero"></path><path fill="#999999" d="m540.2798 404.27765l-21.875 -91.625l18.9375 0l13.8125 62.9375l16.75 -62.9375l22.0 0l16.0625 64.0l14.0625 -64.0l18.625 0l-22.25 91.625l-19.625 0l-18.25 -68.5l-18.1875 68.5l-20.0625 0zm190.4375 0l-20.125 0l-8.0 -20.8125l-36.625 0l-7.5625 20.8125l-19.625 0l35.6875 -91.625l19.5625 0l36.6875 91.625zm-34.0625 -36.25l-12.625 -34.0l-12.375 34.0l25.0 0zm43.9375 36.25l0 -91.625l38.9375 0q14.6875 0 21.34375 2.46875q6.65625 2.46875 10.65625 8.78125q4.0 6.3125 4.0 14.4375q0 10.3125 -6.0625 17.03125q-6.0625 6.71875 -18.125 8.46875q6.0 3.5 9.90625 7.6875q3.90625 4.1875 10.53125 14.875l11.1875 17.875l-22.125 0l-13.375 -19.9375q-7.125 -10.6875 -9.75 -13.46875q-2.625 -2.78125 -5.5625 -3.8125q-2.9375 -1.03125 -9.3125 -1.03125l-3.75 0l0 38.25l-18.5 0zm18.5 -52.875l13.6875 0q13.3125 0 16.625 -1.125q3.3125 -1.125 5.1875 -3.875q1.875 -2.75 1.875 -6.875q0 -4.625 -2.46875 -7.46875q-2.46875 -2.84375 -6.96875 -3.59375q-2.25 -0.3125 -13.5 -0.3125l-14.4375 0l0 23.25z" fill-rule="nonzero"></path></g></svg>

