<?xml version="1.0" standalone="yes"?>

<svg version="1.1" viewBox="0.0 0.0 476.755905511811 476.755905511811" fill="none" stroke="none" stroke-linecap="square" stroke-miterlimit="10" xmlns="http://www.w3.org/2000/svg" xmlns:xlink="http://www.w3.org/1999/xlink"><clipPath id="p.0"><path d="m0 0l476.75592 0l0 476.75592l-476.75592 0l0 -476.75592z" clip-rule="nonzero"></path></clipPath><g clip-path="url(#p.0)"><path fill="#000000" fill-opacity="0.0" d="m0 0l476.75592 0l0 476.75592l-476.75592 0z" fill-rule="nonzero"></path><path fill="#1155cc" d="m0.98707217 238.35715l0 0c0 -131.09587 106.2742 -237.37007 237.37007 -237.37007l0 0c62.954468 0 123.330475 25.008562 167.84601 69.524086c44.515503 44.51552 69.52408 104.89153 69.52408 167.84598l0 0c0 131.09589 -106.2742 237.37009 -237.37009 237.37009l0 0c-131.09587 0 -237.37007 -106.2742 -237.37007 -237.37009z" fill-rule="nonzero"></path><path fill="#ffffff" d="m345.4939 370.4353q1.5625 4.296875 1.65625 6.9375q0.09375 2.640625 -1.46875 4.015625q-1.5625 1.359375 -5.171875 1.75q-3.609375 0.390625 -9.671875 0.390625q-6.0469055 0 -9.6719055 -0.296875q-3.609375 -0.28125 -5.46875 -0.96875q-1.84375 -0.6875 -2.734375 -1.859375q-0.875 -1.171875 -1.65625 -2.9375l-21.671875 -61.515625l-105.078125 0l-20.703125 60.734375q-0.59375 1.765625 -1.578125 3.03125q-0.96875 1.265625 -2.828125 2.15625q-1.84375 0.875 -5.265625 1.265625q-3.421875 0.390625 -8.890625 0.390625q-5.65625 0 -9.28125 -0.484375q-3.609375 -0.484375 -5.078125 -1.859375q-1.453125 -1.375 -1.359375 -4.0q0.09375 -2.640625 1.65625 -6.9375l84.765625 -234.76564q0.78125 -2.15625 2.046875 -3.515625q1.28125 -1.375 3.71875 -2.15625q2.4375 -0.78125 6.25 -1.0625q3.8125 -0.296875 9.671875 -0.296875q6.25 0 10.34375 0.296875q4.109375 0.28125 6.640625 1.0625q2.546875 0.78125 3.90625 2.25q1.375 1.46875 2.15625 3.609375l84.765656 234.76564zm-108.796906 -207.21877l-0.1875 0l-43.5625 125.968765l87.890625 0l-44.140625 -125.968765z" fill-rule="nonzero"></path></g></svg>

