<?xml version="1.0" standalone="yes"?>

<svg version="1.1" viewBox="0.0 0.0 476.755905511811 476.755905511811" fill="none" stroke="none" stroke-linecap="square" stroke-miterlimit="10" xmlns="http://www.w3.org/2000/svg" xmlns:xlink="http://www.w3.org/1999/xlink"><clipPath id="p.0"><path d="m0 0l476.75592 0l0 476.75592l-476.75592 0l0 -476.75592z" clip-rule="nonzero"></path></clipPath><g clip-path="url(#p.0)"><path fill="#000000" fill-opacity="0.0" d="m0 0l476.75592 0l0 476.75592l-476.75592 0z" fill-rule="nonzero"></path><path fill="#38761d" d="m0.98707217 238.35715l0 0c0 -131.09587 106.2742 -237.37007 237.37007 -237.37007l0 0c62.954468 0 123.330475 25.008562 167.84601 69.524086c44.515503 44.51552 69.52408 104.89153 69.52408 167.84598l0 0c0 131.09589 -106.2742 237.37009 -237.37009 237.37009l0 0c-131.09587 0 -237.37007 -106.2742 -237.37007 -237.37009z" fill-rule="nonzero"></path><path fill="#ffffff" d="m329.77124 309.88843q0 11.921875 -3.03125 21.984375q-3.0312805 10.046875 -8.5000305 18.0625q-5.46875 8.0 -13.1875 14.0625q-7.703125 6.046875 -17.375 10.15625q-9.671875 4.09375 -20.703125 6.15625q-11.03125 2.046875 -25.296875 2.046875l-66.015625 0q-4.484375 0 -8.5 -3.03125q-4.0 -3.03125 -4.0 -10.640625l0 -225.39064q0 -7.625 4.0 -10.640625q4.015625 -3.03125 8.5 -3.03125l57.421875 0q22.65625 0 37.109375 4.296875q14.453125 4.296875 24.125 12.5q9.671875 8.203125 14.546875 20.125q4.890625 11.90625 4.890625 26.9375q0 8.984375 -2.15625 17.1875q-2.140625 8.203125 -6.34375 15.140625q-4.203125 6.9375 -10.546875 12.40625q-6.34375 5.46875 -14.546875 8.984375q10.34375 1.953125 19.328125 7.125q8.984375 5.1718903 15.71875 13.187515q6.75 8.0 10.65625 18.75q3.9062805 10.734375 3.9062805 23.625zm-50.59378 -113.07814q0 -9.1875 -2.546875 -16.609375q-2.53125 -7.421875 -8.0 -12.59375q-5.46875 -5.171875 -14.265625 -7.90625q-8.78125 -2.734375 -23.234375 -2.734375l-34.765625 0l0 81.828125l38.28125 0q13.09375 0 21.09375 -3.40625q8.015625 -3.421875 13.28125 -9.1875q5.28125 -5.765625 7.71875 -13.46875q2.4375 -7.71875 2.4375 -15.921875zm15.234375 115.031265q0 -11.328125 -3.609375 -19.921875q-3.609375 -8.59375 -10.546875 -14.453125q-6.9375 -5.859375 -17.390625 -8.875q-10.4375 -3.03125 -26.265625 -3.03125l-40.234375 0l0 89.0625l48.828125 0q11.53125 0 20.125 -2.734375q8.59375 -2.734375 15.125 -8.109375q6.546875 -5.375 10.25 -13.375q3.71875 -8.015625 3.71875 -18.5625z" fill-rule="nonzero"></path></g></svg>

