<?xml version="1.0" standalone="yes"?>

<svg version="1.1" viewBox="0.0 0.0 476.755905511811 476.755905511811" fill="none" stroke="none" stroke-linecap="square" stroke-miterlimit="10" xmlns="http://www.w3.org/2000/svg" xmlns:xlink="http://www.w3.org/1999/xlink"><clipPath id="p.0"><path d="m0 0l476.75592 0l0 476.75592l-476.75592 0l0 -476.75592z" clip-rule="nonzero"></path></clipPath><g clip-path="url(#p.0)"><path fill="#000000" fill-opacity="0.0" d="m0 0l476.75592 0l0 476.75592l-476.75592 0z" fill-rule="nonzero"></path><path fill="#bf9000" d="m0.98707217 238.35715l0 0c0 -131.09587 106.2742 -237.37007 237.37007 -237.37007l0 0c62.954468 0 123.330475 25.008562 167.84601 69.524086c44.515503 44.51552 69.52408 104.89153 69.52408 167.84598l0 0c0 131.09589 -106.2742 237.37009 -237.37009 237.37009l0 0c-131.09587 0 -237.37007 -106.2742 -237.37007 -237.37009z" fill-rule="nonzero"></path><path fill="#ffffff" d="m334.0603 346.60718q0 3.125 -0.203125 5.46875q-0.1875 2.34375 -0.671875 4.109375q-0.484375 1.75 -1.265625 3.125q-0.78125 1.359375 -2.734375 3.3125q-1.953125 1.953125 -8.2031555 5.96875q-6.25 4.0 -15.53125 7.8125q-9.28125 3.796875 -21.296875 6.4375q-12.0 2.640625 -26.265625 2.640625q-24.609375 0 -44.4375 -8.203125q-19.8125 -8.203125 -33.78125 -24.21875q-13.96875 -16.015625 -21.484375 -39.546875q-7.515625 -23.546875 -7.515625 -54.203125q0 -31.45314 8.09375 -56.062515q8.109375 -24.609375 22.75 -41.6875q14.65625 -17.09375 35.0625 -26.078125q20.421875 -8.984367 45.21875 -8.984367q10.9375 0 21.28125 2.0468674q10.359375 2.046875 19.140625 5.171875q8.796875 3.125 15.625 7.234375q6.84375 4.09375 9.4844055 6.734375q2.640625 2.640625 3.421875 4.015625q0.78125 1.359375 1.265625 3.21875q0.484375 1.84375 0.78125 4.390625q0.296875 2.53125 0.296875 6.046875q0 3.90625 -0.390625 6.640625q-0.390625 2.734375 -1.171875 4.59375q-0.78125 1.859375 -1.859375 2.734375q-1.078125 0.875 -2.640625 0.875q-2.7344055 0 -7.6250305 -3.796875q-4.875 -3.8125 -12.59375 -8.40625q-7.703125 -4.59375 -18.75 -8.390625q-11.03125 -3.8125 -26.453125 -3.8125q-16.796875 0 -30.578125 6.734375q-13.765625 6.734375 -23.53125 19.828125q-9.765625 13.078125 -15.140625 31.9375q-5.359375 18.84375 -5.359375 43.062515q0 24.015625 5.171875 42.484375q5.171875 18.453125 14.84375 30.859375q9.671875 12.390625 23.734375 18.75q14.0625 6.34375 31.828125 6.34375q15.046875 0 26.265625 -3.703125q11.234375 -3.71875 19.140625 -8.3125q7.921875 -4.59375 13.0 -8.296875q5.078125 -3.71875 8.0000305 -3.71875q1.375 0 2.34375 0.59375q0.984375 0.578125 1.5625 2.25q0.59375 1.65625 0.875 4.59375q0.296875 2.921875 0.296875 7.40625z" fill-rule="nonzero"></path></g></svg>

