<?xml version="1.0" standalone="yes"?>

<svg version="1.1" viewBox="0.0 0.0 476.755905511811 476.755905511811" fill="none" stroke="none" stroke-linecap="square" stroke-miterlimit="10" xmlns="http://www.w3.org/2000/svg" xmlns:xlink="http://www.w3.org/1999/xlink"><clipPath id="p.0"><path d="m0 0l476.75592 0l0 476.75592l-476.75592 0l0 -476.75592z" clip-rule="nonzero"></path></clipPath><g clip-path="url(#p.0)"><path fill="#000000" fill-opacity="0.0" d="m0 0l476.75592 0l0 476.75592l-476.75592 0z" fill-rule="nonzero"></path><path fill="#cc0000" d="m0.98707217 238.35715l0 0c0 -131.09587 106.2742 -237.37007 237.37007 -237.37007l0 0c62.954468 0 123.330475 25.008562 167.84601 69.524086c44.515503 44.51552 69.52408 104.89153 69.52408 167.84598l0 0c0 131.09589 -106.2742 237.37009 -237.37009 237.37009l0 0c-131.09587 0 -237.37007 -106.2742 -237.37007 -237.37009z" fill-rule="nonzero"></path><path fill="#ffffff" d="m343.2478 252.27904q0 32.812515 -8.40625 57.32814q-8.3906555 24.5 -24.515656 40.625q-16.109375 16.109375 -39.546875 24.125q-23.4375 8.0 -55.859375 8.0l-53.515625 0q-4.484375 0 -8.5 -3.03125q-4.0 -3.03125 -4.0 -10.640625l0 -225.39064q0 -7.625 4.0 -10.640625q4.015625 -3.03125 8.5 -3.03125l57.234375 0q32.8125 0 55.46875 8.5q22.65625 8.484375 37.984375 24.40625q15.3281555 15.921875 23.234406 38.578125q7.921875 22.65625 7.921875 51.171875zm-35.359406 1.359375q0 -20.5 -5.078125 -38.171875q-5.078125 -17.6875 -15.921875 -30.578125q-10.828125 -12.890625 -27.4375 -20.109375q-16.59375 -7.234375 -42.765625 -7.234375l-34.1875 0l0 196.68752l34.578125 0q24.21875 0 40.8125 -6.046875q16.609375 -6.0625 27.734375 -18.5625q11.140625 -12.5 16.703125 -31.34375q5.5625 -18.859375 5.5625 -44.64064z" fill-rule="nonzero"></path></g></svg>

